%
M48
M72
T01C0.02362
T02C0.03200
T03C0.04000
%
T01
X38500Y27496
X62500Y32996
X67500Y27496
X92000Y32496
X92000Y39996
X71500Y69996
X61500Y77496
X69000Y84996
X81500Y92496
X81500Y102496
X70000Y106496
X64000Y116496
X56500Y114996
X39000Y91496
X37500Y79996
X52500Y73996
X55500Y54496
X106500Y102496
X86500Y122496
T02
X41500Y115496
X41500Y105496
X28500Y76996
X28500Y57996
T03
X11500Y12496
X11500Y22496
X11500Y32496
X11500Y42496
X11500Y52496
X11500Y62496
X11500Y72496
X11500Y82496
X11500Y92496
X11500Y102496
X11500Y112496
X11500Y122496
X84000Y47496
X91500Y62496
X91500Y72496
X91500Y82496
X91500Y92496
X94000Y115996
X104000Y115996
X121500Y112496
X121500Y102496
X121500Y92496
X121500Y82496
X121500Y72496
X121500Y62496
X121500Y52496
X121500Y42496
X121500Y32496
X121500Y22496
X121500Y12496
X108500Y12496
X98500Y12496
X88500Y12496
X78500Y12496
X84000Y27496
X56669Y12496
X48835Y12496
X41000Y12496
X33165Y12496
X25331Y12496
X121500Y122496
M30
