G75*
%MOIN*%
%OFA0B0*%
%FSLAX25Y25*%
%IPPOS*%
%LPD*%
%AMOC8*
5,1,8,0,0,1.08239X$1,22.5*
%
%ADD10C,0.00600*%
%ADD11C,0.00300*%
%ADD12C,0.00100*%
%ADD13C,0.00200*%
%ADD14C,0.01600*%
%ADD15C,0.00800*%
%ADD16R,0.02300X0.01600*%
%ADD17R,0.01181X0.00591*%
%ADD18R,0.01181X0.01181*%
%ADD19R,0.00591X0.01181*%
%ADD20C,0.01200*%
D10*
X0022000Y0055496D02*
X0022000Y0079496D01*
X0022002Y0079656D01*
X0022008Y0079815D01*
X0022018Y0079974D01*
X0022031Y0080133D01*
X0022049Y0080292D01*
X0022070Y0080450D01*
X0022096Y0080607D01*
X0022125Y0080764D01*
X0022158Y0080920D01*
X0022195Y0081075D01*
X0022235Y0081230D01*
X0022280Y0081383D01*
X0022328Y0081535D01*
X0022380Y0081686D01*
X0022436Y0081835D01*
X0022495Y0081983D01*
X0022558Y0082130D01*
X0022624Y0082275D01*
X0022694Y0082418D01*
X0022768Y0082560D01*
X0022844Y0082700D01*
X0022925Y0082838D01*
X0023008Y0082973D01*
X0023095Y0083107D01*
X0023186Y0083239D01*
X0023279Y0083368D01*
X0023376Y0083495D01*
X0023475Y0083620D01*
X0023578Y0083742D01*
X0023684Y0083861D01*
X0023792Y0083978D01*
X0023904Y0084092D01*
X0024018Y0084204D01*
X0024135Y0084312D01*
X0024254Y0084418D01*
X0024376Y0084521D01*
X0024501Y0084620D01*
X0024628Y0084717D01*
X0024757Y0084810D01*
X0024889Y0084901D01*
X0025023Y0084988D01*
X0025158Y0085071D01*
X0025296Y0085152D01*
X0025436Y0085228D01*
X0025578Y0085302D01*
X0025721Y0085372D01*
X0025866Y0085438D01*
X0026013Y0085501D01*
X0026161Y0085560D01*
X0026310Y0085616D01*
X0026461Y0085668D01*
X0026613Y0085716D01*
X0026766Y0085761D01*
X0026921Y0085801D01*
X0027076Y0085838D01*
X0027232Y0085871D01*
X0027389Y0085900D01*
X0027546Y0085926D01*
X0027704Y0085947D01*
X0027863Y0085965D01*
X0028022Y0085978D01*
X0028181Y0085988D01*
X0028340Y0085994D01*
X0028500Y0085996D01*
X0028660Y0085994D01*
X0028819Y0085988D01*
X0028978Y0085978D01*
X0029137Y0085965D01*
X0029296Y0085947D01*
X0029454Y0085926D01*
X0029611Y0085900D01*
X0029768Y0085871D01*
X0029924Y0085838D01*
X0030079Y0085801D01*
X0030234Y0085761D01*
X0030387Y0085716D01*
X0030539Y0085668D01*
X0030690Y0085616D01*
X0030839Y0085560D01*
X0030987Y0085501D01*
X0031134Y0085438D01*
X0031279Y0085372D01*
X0031422Y0085302D01*
X0031564Y0085228D01*
X0031704Y0085152D01*
X0031842Y0085071D01*
X0031977Y0084988D01*
X0032111Y0084901D01*
X0032243Y0084810D01*
X0032372Y0084717D01*
X0032499Y0084620D01*
X0032624Y0084521D01*
X0032746Y0084418D01*
X0032865Y0084312D01*
X0032982Y0084204D01*
X0033096Y0084092D01*
X0033208Y0083978D01*
X0033316Y0083861D01*
X0033422Y0083742D01*
X0033525Y0083620D01*
X0033624Y0083495D01*
X0033721Y0083368D01*
X0033814Y0083239D01*
X0033905Y0083107D01*
X0033992Y0082973D01*
X0034075Y0082838D01*
X0034156Y0082700D01*
X0034232Y0082560D01*
X0034306Y0082418D01*
X0034376Y0082275D01*
X0034442Y0082130D01*
X0034505Y0081983D01*
X0034564Y0081835D01*
X0034620Y0081686D01*
X0034672Y0081535D01*
X0034720Y0081383D01*
X0034765Y0081230D01*
X0034805Y0081075D01*
X0034842Y0080920D01*
X0034875Y0080764D01*
X0034904Y0080607D01*
X0034930Y0080450D01*
X0034951Y0080292D01*
X0034969Y0080133D01*
X0034982Y0079974D01*
X0034992Y0079815D01*
X0034998Y0079656D01*
X0035000Y0079496D01*
X0035000Y0055496D01*
X0034998Y0055336D01*
X0034992Y0055177D01*
X0034982Y0055018D01*
X0034969Y0054859D01*
X0034951Y0054700D01*
X0034930Y0054542D01*
X0034904Y0054385D01*
X0034875Y0054228D01*
X0034842Y0054072D01*
X0034805Y0053917D01*
X0034765Y0053762D01*
X0034720Y0053609D01*
X0034672Y0053457D01*
X0034620Y0053306D01*
X0034564Y0053157D01*
X0034505Y0053009D01*
X0034442Y0052862D01*
X0034376Y0052717D01*
X0034306Y0052574D01*
X0034232Y0052432D01*
X0034156Y0052292D01*
X0034075Y0052154D01*
X0033992Y0052019D01*
X0033905Y0051885D01*
X0033814Y0051753D01*
X0033721Y0051624D01*
X0033624Y0051497D01*
X0033525Y0051372D01*
X0033422Y0051250D01*
X0033316Y0051131D01*
X0033208Y0051014D01*
X0033096Y0050900D01*
X0032982Y0050788D01*
X0032865Y0050680D01*
X0032746Y0050574D01*
X0032624Y0050471D01*
X0032499Y0050372D01*
X0032372Y0050275D01*
X0032243Y0050182D01*
X0032111Y0050091D01*
X0031977Y0050004D01*
X0031842Y0049921D01*
X0031704Y0049840D01*
X0031564Y0049764D01*
X0031422Y0049690D01*
X0031279Y0049620D01*
X0031134Y0049554D01*
X0030987Y0049491D01*
X0030839Y0049432D01*
X0030690Y0049376D01*
X0030539Y0049324D01*
X0030387Y0049276D01*
X0030234Y0049231D01*
X0030079Y0049191D01*
X0029924Y0049154D01*
X0029768Y0049121D01*
X0029611Y0049092D01*
X0029454Y0049066D01*
X0029296Y0049045D01*
X0029137Y0049027D01*
X0028978Y0049014D01*
X0028819Y0049004D01*
X0028660Y0048998D01*
X0028500Y0048996D01*
X0028340Y0048998D01*
X0028181Y0049004D01*
X0028022Y0049014D01*
X0027863Y0049027D01*
X0027704Y0049045D01*
X0027546Y0049066D01*
X0027389Y0049092D01*
X0027232Y0049121D01*
X0027076Y0049154D01*
X0026921Y0049191D01*
X0026766Y0049231D01*
X0026613Y0049276D01*
X0026461Y0049324D01*
X0026310Y0049376D01*
X0026161Y0049432D01*
X0026013Y0049491D01*
X0025866Y0049554D01*
X0025721Y0049620D01*
X0025578Y0049690D01*
X0025436Y0049764D01*
X0025296Y0049840D01*
X0025158Y0049921D01*
X0025023Y0050004D01*
X0024889Y0050091D01*
X0024757Y0050182D01*
X0024628Y0050275D01*
X0024501Y0050372D01*
X0024376Y0050471D01*
X0024254Y0050574D01*
X0024135Y0050680D01*
X0024018Y0050788D01*
X0023904Y0050900D01*
X0023792Y0051014D01*
X0023684Y0051131D01*
X0023578Y0051250D01*
X0023475Y0051372D01*
X0023376Y0051497D01*
X0023279Y0051624D01*
X0023186Y0051753D01*
X0023095Y0051885D01*
X0023008Y0052019D01*
X0022925Y0052154D01*
X0022844Y0052292D01*
X0022768Y0052432D01*
X0022694Y0052574D01*
X0022624Y0052717D01*
X0022558Y0052862D01*
X0022495Y0053009D01*
X0022436Y0053157D01*
X0022380Y0053306D01*
X0022328Y0053457D01*
X0022280Y0053609D01*
X0022235Y0053762D01*
X0022195Y0053917D01*
X0022158Y0054072D01*
X0022125Y0054228D01*
X0022096Y0054385D01*
X0022070Y0054542D01*
X0022049Y0054700D01*
X0022031Y0054859D01*
X0022018Y0055018D01*
X0022008Y0055177D01*
X0022002Y0055336D01*
X0022000Y0055496D01*
X0028500Y0062496D02*
X0028500Y0064996D01*
X0031500Y0064996D01*
X0031500Y0066496D02*
X0025500Y0066496D01*
X0025500Y0068496D01*
X0031500Y0068496D01*
X0031500Y0066496D01*
X0028500Y0064996D02*
X0025500Y0064996D01*
X0025500Y0069996D02*
X0028500Y0069996D01*
X0028500Y0072496D01*
X0028500Y0069996D02*
X0031500Y0069996D01*
X0043400Y0070096D02*
X0047300Y0070096D01*
X0047300Y0071196D01*
X0043400Y0071196D01*
X0043400Y0070096D01*
X0043400Y0069196D02*
X0043400Y0068096D01*
X0047300Y0068096D01*
X0047300Y0069196D01*
X0043400Y0069196D01*
X0043400Y0067196D02*
X0043400Y0066096D01*
X0047300Y0066096D01*
X0047300Y0067196D01*
X0043400Y0067196D01*
X0043400Y0071996D02*
X0047300Y0071996D01*
X0047300Y0073096D01*
X0043400Y0073096D01*
X0043400Y0071996D01*
X0043400Y0073996D02*
X0047300Y0073996D01*
X0047300Y0075096D01*
X0043400Y0075096D01*
X0043400Y0073996D01*
X0043400Y0075996D02*
X0047300Y0075996D01*
X0047300Y0077096D01*
X0043400Y0077096D01*
X0043400Y0075996D01*
X0043400Y0077896D02*
X0047300Y0077896D01*
X0047300Y0078996D01*
X0043400Y0078996D01*
X0043400Y0077896D01*
X0043400Y0079896D02*
X0047300Y0079896D01*
X0047300Y0080996D01*
X0043400Y0080996D01*
X0043400Y0079896D01*
X0043400Y0081896D02*
X0047300Y0081896D01*
X0047300Y0082996D01*
X0043400Y0082996D01*
X0043400Y0081896D01*
X0043400Y0083796D02*
X0047300Y0083796D01*
X0047300Y0084896D01*
X0043400Y0084896D01*
X0043400Y0083796D01*
X0043400Y0085796D02*
X0047300Y0085796D01*
X0047300Y0086696D01*
X0052300Y0091696D01*
X0053200Y0091696D01*
X0053200Y0095596D01*
X0052100Y0095596D01*
X0052100Y0091696D01*
X0052300Y0091696D01*
X0051200Y0091696D02*
X0051200Y0095596D01*
X0050100Y0095596D01*
X0050100Y0091696D01*
X0051200Y0091696D01*
X0054100Y0091696D02*
X0054100Y0095596D01*
X0055200Y0095596D01*
X0055200Y0091696D01*
X0054100Y0091696D01*
X0056000Y0091696D02*
X0056000Y0095596D01*
X0057100Y0095596D01*
X0057100Y0091696D01*
X0056000Y0091696D01*
X0058000Y0091696D02*
X0058000Y0095596D01*
X0059100Y0095596D01*
X0059100Y0091696D01*
X0058000Y0091696D01*
X0060000Y0091696D02*
X0060000Y0095596D01*
X0061100Y0095596D01*
X0061100Y0091696D01*
X0060000Y0091696D01*
X0061900Y0091696D02*
X0061900Y0095596D01*
X0063000Y0095596D01*
X0063000Y0091696D01*
X0061900Y0091696D01*
X0063900Y0091696D02*
X0063900Y0095596D01*
X0065000Y0095596D01*
X0065000Y0091696D01*
X0063900Y0091696D01*
X0065900Y0091696D02*
X0065900Y0095596D01*
X0067000Y0095596D01*
X0067000Y0091696D01*
X0065900Y0091696D01*
X0067800Y0091696D02*
X0067800Y0095596D01*
X0068900Y0095596D01*
X0068900Y0091696D01*
X0067800Y0091696D01*
X0069800Y0091696D02*
X0069800Y0095596D01*
X0070900Y0095596D01*
X0070900Y0091696D01*
X0069800Y0091696D01*
X0071800Y0091696D02*
X0071800Y0095596D01*
X0072900Y0095596D01*
X0072900Y0091696D01*
X0071800Y0091696D01*
X0075700Y0091696D02*
X0047300Y0091696D01*
X0047300Y0063296D01*
X0075700Y0063296D01*
X0075700Y0091696D01*
X0075700Y0088896D02*
X0079600Y0088896D01*
X0079600Y0087796D01*
X0075700Y0087796D01*
X0075700Y0088896D01*
X0075700Y0086896D02*
X0079600Y0086896D01*
X0079600Y0085796D01*
X0075700Y0085796D01*
X0075700Y0086896D01*
X0075700Y0084896D02*
X0079600Y0084896D01*
X0079600Y0083796D01*
X0075700Y0083796D01*
X0075700Y0084896D01*
X0075700Y0082996D02*
X0079600Y0082996D01*
X0079600Y0081896D01*
X0075700Y0081896D01*
X0075700Y0082996D01*
X0075700Y0080996D02*
X0079600Y0080996D01*
X0079600Y0079896D01*
X0075700Y0079896D01*
X0075700Y0080996D01*
X0075700Y0078996D02*
X0079600Y0078996D01*
X0079600Y0077896D01*
X0075700Y0077896D01*
X0075700Y0078996D01*
X0075700Y0077096D02*
X0079600Y0077096D01*
X0079600Y0075996D01*
X0075700Y0075996D01*
X0075700Y0077096D01*
X0075700Y0075096D02*
X0079600Y0075096D01*
X0079600Y0073996D01*
X0075700Y0073996D01*
X0075700Y0075096D01*
X0075700Y0073096D02*
X0079600Y0073096D01*
X0079600Y0071996D01*
X0075700Y0071996D01*
X0075700Y0073096D01*
X0075700Y0071196D02*
X0079600Y0071196D01*
X0079600Y0070096D01*
X0075700Y0070096D01*
X0075700Y0071196D01*
X0075700Y0069196D02*
X0079600Y0069196D01*
X0079600Y0068096D01*
X0075700Y0068096D01*
X0075700Y0069196D01*
X0075700Y0067196D02*
X0079600Y0067196D01*
X0079600Y0066096D01*
X0075700Y0066096D01*
X0075700Y0067196D01*
X0072900Y0063296D02*
X0071800Y0063296D01*
X0071800Y0059396D01*
X0072900Y0059396D01*
X0072900Y0063296D01*
X0070900Y0063296D02*
X0070900Y0059396D01*
X0069800Y0059396D01*
X0069800Y0063296D01*
X0070900Y0063296D01*
X0068900Y0063296D02*
X0068900Y0059396D01*
X0067800Y0059396D01*
X0067800Y0063296D01*
X0068900Y0063296D01*
X0067000Y0063296D02*
X0067000Y0059396D01*
X0065900Y0059396D01*
X0065900Y0063296D01*
X0067000Y0063296D01*
X0065000Y0063296D02*
X0065000Y0059396D01*
X0063900Y0059396D01*
X0063900Y0063296D01*
X0065000Y0063296D01*
X0063000Y0063296D02*
X0063000Y0059396D01*
X0061900Y0059396D01*
X0061900Y0063296D01*
X0063000Y0063296D01*
X0061100Y0063296D02*
X0061100Y0059396D01*
X0060000Y0059396D01*
X0060000Y0063296D01*
X0061100Y0063296D01*
X0059100Y0063296D02*
X0059100Y0059396D01*
X0058000Y0059396D01*
X0058000Y0063296D01*
X0059100Y0063296D01*
X0057100Y0063296D02*
X0057100Y0059396D01*
X0056000Y0059396D01*
X0056000Y0063296D01*
X0057100Y0063296D01*
X0055200Y0063296D02*
X0055200Y0059396D01*
X0054100Y0059396D01*
X0054100Y0063296D01*
X0055200Y0063296D01*
X0053200Y0063296D02*
X0053200Y0059396D01*
X0052100Y0059396D01*
X0052100Y0063296D01*
X0053200Y0063296D01*
X0051200Y0063296D02*
X0051200Y0059396D01*
X0050100Y0059396D01*
X0050100Y0063296D01*
X0051200Y0063296D01*
X0047300Y0086696D02*
X0047300Y0086896D01*
X0043400Y0086896D01*
X0043400Y0085796D01*
X0043400Y0087796D02*
X0047300Y0087796D01*
X0047300Y0088896D01*
X0043400Y0088896D01*
X0043400Y0087796D01*
X0049500Y0106496D02*
X0049500Y0106996D01*
X0049500Y0113996D01*
X0049500Y0114496D01*
X0071000Y0114496D01*
X0071060Y0114494D01*
X0071121Y0114489D01*
X0071180Y0114480D01*
X0071239Y0114467D01*
X0071298Y0114451D01*
X0071355Y0114431D01*
X0071410Y0114408D01*
X0071465Y0114381D01*
X0071517Y0114352D01*
X0071568Y0114319D01*
X0071617Y0114283D01*
X0071663Y0114245D01*
X0071707Y0114203D01*
X0071749Y0114159D01*
X0071787Y0114113D01*
X0071823Y0114064D01*
X0071856Y0114013D01*
X0071885Y0113961D01*
X0071912Y0113906D01*
X0071935Y0113851D01*
X0071955Y0113794D01*
X0071971Y0113735D01*
X0071984Y0113676D01*
X0071993Y0113617D01*
X0071998Y0113556D01*
X0072000Y0113496D01*
X0072000Y0107496D01*
X0071998Y0107436D01*
X0071993Y0107375D01*
X0071984Y0107316D01*
X0071971Y0107257D01*
X0071955Y0107198D01*
X0071935Y0107141D01*
X0071912Y0107086D01*
X0071885Y0107031D01*
X0071856Y0106979D01*
X0071823Y0106928D01*
X0071787Y0106879D01*
X0071749Y0106833D01*
X0071707Y0106789D01*
X0071663Y0106747D01*
X0071617Y0106709D01*
X0071568Y0106673D01*
X0071517Y0106640D01*
X0071465Y0106611D01*
X0071410Y0106584D01*
X0071355Y0106561D01*
X0071298Y0106541D01*
X0071239Y0106525D01*
X0071180Y0106512D01*
X0071121Y0106503D01*
X0071060Y0106498D01*
X0071000Y0106496D01*
X0049500Y0106496D01*
X0049500Y0106996D02*
X0048000Y0106996D01*
X0048000Y0113996D01*
X0049500Y0113996D01*
X0056000Y0110496D02*
X0058000Y0110496D01*
X0058000Y0108496D01*
X0059500Y0108496D02*
X0061000Y0108496D01*
X0061000Y0112496D01*
X0059500Y0112496D01*
X0059500Y0108496D01*
X0058000Y0110496D02*
X0058000Y0112496D01*
X0062500Y0112496D02*
X0062500Y0110496D01*
X0062500Y0108496D01*
X0062500Y0110496D02*
X0064500Y0110496D01*
D11*
X0049886Y0090866D02*
X0046750Y0087730D01*
X0048318Y0087730D02*
X0048318Y0090866D01*
X0046750Y0090866D02*
X0049886Y0087730D01*
X0049886Y0089298D02*
X0046750Y0089298D01*
D12*
X0066648Y0078723D02*
X0068950Y0078723D01*
X0068950Y0077956D02*
X0068950Y0079491D01*
X0067415Y0077956D02*
X0066648Y0078723D01*
X0066648Y0077281D02*
X0068566Y0077281D01*
X0068950Y0076897D01*
X0068950Y0076130D01*
X0068566Y0075746D01*
X0066648Y0075746D01*
D13*
X0081998Y0065607D02*
X0081998Y0064873D01*
X0082365Y0064506D01*
X0081998Y0063764D02*
X0081998Y0063030D01*
X0081998Y0063397D02*
X0083833Y0063397D01*
X0084200Y0063030D01*
X0084200Y0062663D01*
X0083833Y0062296D01*
X0084200Y0064506D02*
X0082732Y0065974D01*
X0082365Y0065974D01*
X0081998Y0065607D01*
X0084200Y0065974D02*
X0084200Y0064506D01*
X0097198Y0063907D02*
X0097565Y0064274D01*
X0097932Y0064274D01*
X0098299Y0063907D01*
X0098299Y0063173D01*
X0097932Y0062806D01*
X0097565Y0062806D01*
X0097198Y0063173D01*
X0097198Y0063907D01*
X0098299Y0063907D02*
X0098666Y0064274D01*
X0099033Y0064274D01*
X0099400Y0063907D01*
X0099400Y0063173D01*
X0099033Y0062806D01*
X0098666Y0062806D01*
X0098299Y0063173D01*
X0097565Y0062064D02*
X0097198Y0061697D01*
X0097198Y0060963D01*
X0097565Y0060596D01*
X0099033Y0060596D01*
X0099400Y0060963D01*
X0099400Y0061697D01*
X0099033Y0062064D01*
X0098933Y0070676D02*
X0097465Y0070676D01*
X0097098Y0071043D01*
X0097098Y0071777D01*
X0097465Y0072144D01*
X0097465Y0072886D02*
X0097832Y0072886D01*
X0098199Y0073253D01*
X0098199Y0074354D01*
X0097465Y0074354D02*
X0097098Y0073987D01*
X0097098Y0073253D01*
X0097465Y0072886D01*
X0098933Y0072886D02*
X0099300Y0073253D01*
X0099300Y0073987D01*
X0098933Y0074354D01*
X0097465Y0074354D01*
X0098933Y0072144D02*
X0099300Y0071777D01*
X0099300Y0071043D01*
X0098933Y0070676D01*
X0098666Y0080596D02*
X0098666Y0081697D01*
X0098299Y0082064D01*
X0097565Y0082064D01*
X0097198Y0081697D01*
X0097198Y0080596D01*
X0099400Y0080596D01*
X0098666Y0081330D02*
X0099400Y0082064D01*
X0099033Y0082806D02*
X0099400Y0083173D01*
X0099400Y0083907D01*
X0099033Y0084274D01*
X0098666Y0084274D01*
X0098299Y0083907D01*
X0098299Y0083540D01*
X0098299Y0083907D02*
X0097932Y0084274D01*
X0097565Y0084274D01*
X0097198Y0083907D01*
X0097198Y0083173D01*
X0097565Y0082806D01*
X0098166Y0098596D02*
X0098166Y0099697D01*
X0097799Y0100064D01*
X0097065Y0100064D01*
X0096698Y0099697D01*
X0096698Y0098596D01*
X0098900Y0098596D01*
X0098166Y0099330D02*
X0098900Y0100064D01*
X0097799Y0100806D02*
X0097799Y0102274D01*
X0096698Y0101907D02*
X0097799Y0100806D01*
X0098900Y0101907D02*
X0096698Y0101907D01*
X0093833Y0106296D02*
X0094200Y0106663D01*
X0094200Y0107030D01*
X0093833Y0107397D01*
X0091998Y0107397D01*
X0091998Y0107030D02*
X0091998Y0107764D01*
X0092365Y0108506D02*
X0091998Y0108873D01*
X0091998Y0109607D01*
X0092365Y0109974D01*
X0092732Y0109974D01*
X0093099Y0109607D01*
X0093466Y0109974D01*
X0093833Y0109974D01*
X0094200Y0109607D01*
X0094200Y0108873D01*
X0093833Y0108506D01*
X0093099Y0109240D02*
X0093099Y0109607D01*
X0078900Y0113596D02*
X0076698Y0113596D01*
X0076698Y0114697D01*
X0077065Y0115064D01*
X0077799Y0115064D01*
X0078166Y0114697D01*
X0078166Y0113596D01*
X0078166Y0114330D02*
X0078900Y0115064D01*
X0078533Y0115806D02*
X0078900Y0116173D01*
X0078900Y0116907D01*
X0078533Y0117274D01*
X0077799Y0117274D01*
X0077432Y0116907D01*
X0077432Y0116540D01*
X0077799Y0115806D01*
X0076698Y0115806D01*
X0076698Y0117274D01*
X0053900Y0104774D02*
X0053900Y0103306D01*
X0052432Y0104774D01*
X0052065Y0104774D01*
X0051698Y0104407D01*
X0051698Y0103673D01*
X0052065Y0103306D01*
X0052065Y0102564D02*
X0051698Y0102197D01*
X0051698Y0101463D01*
X0052065Y0101096D01*
X0053533Y0101096D01*
X0053900Y0101463D01*
X0053900Y0102197D01*
X0053533Y0102564D01*
X0052065Y0102564D01*
X0053166Y0101830D02*
X0053900Y0102564D01*
X0046300Y0118257D02*
X0044098Y0118257D01*
X0046300Y0118257D02*
X0046300Y0119725D01*
X0046300Y0120467D02*
X0046300Y0121934D01*
X0046300Y0122676D02*
X0044098Y0122676D01*
X0044098Y0123777D01*
X0044465Y0124144D01*
X0045933Y0124144D01*
X0046300Y0123777D01*
X0046300Y0122676D01*
X0045199Y0121200D02*
X0045199Y0120467D01*
X0044098Y0120467D02*
X0046300Y0120467D01*
X0044098Y0120467D02*
X0044098Y0121934D01*
X0044465Y0124886D02*
X0044098Y0125253D01*
X0044098Y0125987D01*
X0044465Y0126354D01*
X0044832Y0126354D01*
X0045199Y0125987D01*
X0045566Y0126354D01*
X0045933Y0126354D01*
X0046300Y0125987D01*
X0046300Y0125253D01*
X0045933Y0124886D01*
X0045199Y0125620D02*
X0045199Y0125987D01*
X0020500Y0125787D02*
X0018298Y0125787D01*
X0019399Y0124686D01*
X0019399Y0126154D01*
X0018298Y0123944D02*
X0018298Y0123210D01*
X0018298Y0123577D02*
X0020133Y0123577D01*
X0020500Y0123210D01*
X0020500Y0122843D01*
X0020133Y0122476D01*
X0020400Y0121484D02*
X0020400Y0120016D01*
X0018932Y0121484D01*
X0018565Y0121484D01*
X0018198Y0121117D01*
X0018198Y0120383D01*
X0018565Y0120016D01*
X0018198Y0118540D02*
X0020400Y0118540D01*
X0020400Y0117806D02*
X0020400Y0119274D01*
X0018932Y0117806D02*
X0018198Y0118540D01*
X0018565Y0117064D02*
X0018198Y0116697D01*
X0018198Y0115963D01*
X0018565Y0115596D01*
X0020033Y0115596D01*
X0020400Y0115963D01*
X0020400Y0116697D01*
X0020033Y0117064D01*
X0020400Y0110484D02*
X0020400Y0109016D01*
X0020400Y0109750D02*
X0018198Y0109750D01*
X0018932Y0109016D01*
X0020400Y0108274D02*
X0020400Y0106806D01*
X0020400Y0107540D02*
X0018198Y0107540D01*
X0018932Y0106806D01*
X0018565Y0106064D02*
X0018198Y0105697D01*
X0018198Y0104963D01*
X0018565Y0104596D01*
X0020033Y0104596D01*
X0020400Y0104963D01*
X0020400Y0105697D01*
X0020033Y0106064D01*
X0019933Y0097854D02*
X0018465Y0097854D01*
X0019933Y0096386D01*
X0020300Y0096753D01*
X0020300Y0097487D01*
X0019933Y0097854D01*
X0018465Y0097854D02*
X0018098Y0097487D01*
X0018098Y0096753D01*
X0018465Y0096386D01*
X0019933Y0096386D01*
X0020300Y0095644D02*
X0020300Y0094176D01*
X0020300Y0094910D02*
X0018098Y0094910D01*
X0018832Y0094176D01*
X0018465Y0093434D02*
X0018098Y0093067D01*
X0018098Y0092334D01*
X0018465Y0091967D01*
X0019933Y0091967D01*
X0020300Y0092334D01*
X0020300Y0093067D01*
X0019933Y0093434D01*
X0040198Y0050274D02*
X0040565Y0050274D01*
X0042033Y0048806D01*
X0042400Y0048806D01*
X0042033Y0048064D02*
X0042400Y0047697D01*
X0042400Y0046963D01*
X0042033Y0046596D01*
X0040565Y0046596D01*
X0040198Y0046963D01*
X0040198Y0047697D01*
X0040565Y0048064D01*
X0040198Y0048806D02*
X0040198Y0050274D01*
X0036400Y0046274D02*
X0036400Y0044806D01*
X0036400Y0045540D02*
X0034198Y0045540D01*
X0034932Y0044806D01*
X0034565Y0044064D02*
X0036033Y0044064D01*
X0036400Y0043697D01*
X0036400Y0042963D01*
X0036033Y0042596D01*
X0034565Y0042596D01*
X0034198Y0042963D01*
X0034198Y0043697D01*
X0034565Y0044064D01*
X0035666Y0043330D02*
X0036400Y0044064D01*
X0040198Y0038774D02*
X0040198Y0037306D01*
X0041299Y0037306D01*
X0040932Y0038040D01*
X0040932Y0038407D01*
X0041299Y0038774D01*
X0042033Y0038774D01*
X0042400Y0038407D01*
X0042400Y0037673D01*
X0042033Y0037306D01*
X0042033Y0036564D02*
X0042400Y0036197D01*
X0042400Y0035463D01*
X0042033Y0035096D01*
X0040565Y0035096D01*
X0040198Y0035463D01*
X0040198Y0036197D01*
X0040565Y0036564D01*
X0042065Y0029274D02*
X0042432Y0029274D01*
X0042799Y0028907D01*
X0043166Y0029274D01*
X0043533Y0029274D01*
X0043900Y0028907D01*
X0043900Y0028173D01*
X0043533Y0027806D01*
X0043533Y0027064D02*
X0043900Y0026697D01*
X0043900Y0025963D01*
X0043533Y0025596D01*
X0042065Y0025596D01*
X0041698Y0025963D01*
X0041698Y0026697D01*
X0042065Y0027064D01*
X0042065Y0027806D02*
X0041698Y0028173D01*
X0041698Y0028907D01*
X0042065Y0029274D01*
X0042799Y0028907D02*
X0042799Y0028540D01*
X0036413Y0025589D02*
X0036413Y0024121D01*
X0036413Y0024855D02*
X0034211Y0024855D01*
X0034945Y0024121D01*
X0034578Y0023380D02*
X0034211Y0023013D01*
X0034211Y0022279D01*
X0034578Y0021912D01*
X0034945Y0021912D01*
X0035312Y0022279D01*
X0035312Y0023013D01*
X0035679Y0023380D01*
X0036046Y0023380D01*
X0036413Y0023013D01*
X0036413Y0022279D01*
X0036046Y0021912D01*
X0036046Y0021170D02*
X0034211Y0021170D01*
X0034211Y0019702D02*
X0036046Y0019702D01*
X0036413Y0020069D01*
X0036413Y0020803D01*
X0036046Y0021170D01*
X0036780Y0022646D02*
X0033844Y0022646D01*
X0022800Y0021854D02*
X0022800Y0020386D01*
X0021332Y0021854D01*
X0020965Y0021854D01*
X0020598Y0021487D01*
X0020598Y0020753D01*
X0020965Y0020386D01*
X0020965Y0019644D02*
X0020598Y0019277D01*
X0020598Y0018543D01*
X0020965Y0018176D01*
X0022433Y0018176D01*
X0022800Y0018543D01*
X0022800Y0019277D01*
X0022433Y0019644D01*
X0021533Y0042596D02*
X0020065Y0042596D01*
X0019698Y0042963D01*
X0019698Y0043697D01*
X0020065Y0044064D01*
X0020799Y0044806D02*
X0020799Y0046274D01*
X0019698Y0045907D02*
X0020799Y0044806D01*
X0021533Y0044064D02*
X0021900Y0043697D01*
X0021900Y0042963D01*
X0021533Y0042596D01*
X0021900Y0045907D02*
X0019698Y0045907D01*
X0071098Y0048043D02*
X0071465Y0047676D01*
X0072933Y0047676D01*
X0073300Y0048043D01*
X0073300Y0048777D01*
X0072933Y0049144D01*
X0072933Y0049886D02*
X0073300Y0050253D01*
X0073300Y0050987D01*
X0072933Y0051354D01*
X0072566Y0051354D01*
X0072199Y0050987D01*
X0072199Y0049886D01*
X0072933Y0049886D01*
X0072199Y0049886D02*
X0071465Y0050620D01*
X0071098Y0051354D01*
X0071465Y0049144D02*
X0071098Y0048777D01*
X0071098Y0048043D01*
X0085798Y0039287D02*
X0085798Y0038553D01*
X0086165Y0038186D01*
X0086165Y0037444D02*
X0085798Y0037077D01*
X0085798Y0036343D01*
X0086165Y0035976D01*
X0086532Y0035976D01*
X0086899Y0036343D01*
X0086899Y0037077D01*
X0087266Y0037444D01*
X0087633Y0037444D01*
X0088000Y0037077D01*
X0088000Y0036343D01*
X0087633Y0035976D01*
X0087633Y0035234D02*
X0085798Y0035234D01*
X0085798Y0033767D02*
X0087633Y0033767D01*
X0088000Y0034134D01*
X0088000Y0034867D01*
X0087633Y0035234D01*
X0088367Y0036710D02*
X0085431Y0036710D01*
X0085798Y0039287D02*
X0086165Y0039654D01*
X0086532Y0039654D01*
X0088000Y0038186D01*
X0088000Y0039654D01*
X0093098Y0043676D02*
X0093098Y0044777D01*
X0093465Y0045144D01*
X0094199Y0045144D01*
X0094566Y0044777D01*
X0094566Y0043676D01*
X0095300Y0043676D02*
X0093098Y0043676D01*
X0094566Y0044410D02*
X0095300Y0045144D01*
X0095300Y0045886D02*
X0095300Y0047354D01*
X0095300Y0046620D02*
X0093098Y0046620D01*
X0093832Y0045886D01*
X0097300Y0033354D02*
X0097300Y0031886D01*
X0097300Y0032620D02*
X0095098Y0032620D01*
X0095832Y0031886D01*
X0095465Y0031144D02*
X0096933Y0031144D01*
X0097300Y0030777D01*
X0097300Y0029676D01*
X0095098Y0029676D01*
X0095098Y0030777D01*
X0095465Y0031144D01*
X0095098Y0028934D02*
X0095098Y0027467D01*
X0097300Y0027467D01*
X0097300Y0028934D01*
X0096199Y0028200D02*
X0096199Y0027467D01*
X0097300Y0026725D02*
X0097300Y0025257D01*
X0095098Y0025257D01*
X0094000Y0020154D02*
X0094000Y0018686D01*
X0094000Y0019420D02*
X0091798Y0019420D01*
X0092532Y0018686D01*
X0091798Y0017944D02*
X0091798Y0017210D01*
X0091798Y0017577D02*
X0093633Y0017577D01*
X0094000Y0017210D01*
X0094000Y0016843D01*
X0093633Y0016476D01*
X0105598Y0025257D02*
X0107800Y0025257D01*
X0107800Y0026725D01*
X0107800Y0027467D02*
X0107800Y0028934D01*
X0107800Y0029676D02*
X0107800Y0030777D01*
X0107433Y0031144D01*
X0105965Y0031144D01*
X0105598Y0030777D01*
X0105598Y0029676D01*
X0107800Y0029676D01*
X0106699Y0028200D02*
X0106699Y0027467D01*
X0105598Y0027467D02*
X0105598Y0028934D01*
X0105598Y0027467D02*
X0107800Y0027467D01*
X0107800Y0031886D02*
X0106332Y0033354D01*
X0105965Y0033354D01*
X0105598Y0032987D01*
X0105598Y0032253D01*
X0105965Y0031886D01*
X0107800Y0031886D02*
X0107800Y0033354D01*
X0111098Y0052176D02*
X0111098Y0053277D01*
X0111465Y0053644D01*
X0112199Y0053644D01*
X0112566Y0053277D01*
X0112566Y0052176D01*
X0113300Y0052176D02*
X0111098Y0052176D01*
X0112566Y0052910D02*
X0113300Y0053644D01*
X0113300Y0054386D02*
X0111832Y0055854D01*
X0111465Y0055854D01*
X0111098Y0055487D01*
X0111098Y0054753D01*
X0111465Y0054386D01*
X0113300Y0054386D02*
X0113300Y0055854D01*
X0073300Y0027854D02*
X0073300Y0026386D01*
X0073300Y0027120D02*
X0071098Y0027120D01*
X0071832Y0026386D01*
X0071465Y0025644D02*
X0071098Y0025277D01*
X0071098Y0024543D01*
X0071465Y0024176D01*
X0072933Y0024176D01*
X0073300Y0024543D01*
X0073300Y0025277D01*
X0072933Y0025644D01*
X0115633Y0106976D02*
X0116000Y0107343D01*
X0116000Y0107710D01*
X0115633Y0108077D01*
X0113798Y0108077D01*
X0113798Y0107710D02*
X0113798Y0108444D01*
X0113798Y0109186D02*
X0114899Y0109186D01*
X0114532Y0109920D01*
X0114532Y0110287D01*
X0114899Y0110654D01*
X0115633Y0110654D01*
X0116000Y0110287D01*
X0116000Y0109553D01*
X0115633Y0109186D01*
X0113798Y0109186D02*
X0113798Y0110654D01*
D14*
X0046500Y0112496D02*
X0044500Y0112496D01*
X0044500Y0108496D02*
X0046000Y0108496D01*
X0037000Y0079496D02*
X0037000Y0055496D01*
X0036997Y0055289D01*
X0036990Y0055082D01*
X0036977Y0054876D01*
X0036960Y0054669D01*
X0036937Y0054464D01*
X0036909Y0054258D01*
X0036877Y0054054D01*
X0036839Y0053850D01*
X0036797Y0053648D01*
X0036749Y0053446D01*
X0036697Y0053246D01*
X0036640Y0053047D01*
X0036578Y0052850D01*
X0036511Y0052654D01*
X0036439Y0052460D01*
X0036363Y0052267D01*
X0036282Y0052077D01*
X0036196Y0051888D01*
X0036106Y0051702D01*
X0036012Y0051518D01*
X0035912Y0051336D01*
X0035809Y0051157D01*
X0035701Y0050980D01*
X0035589Y0050806D01*
X0035473Y0050635D01*
X0035352Y0050466D01*
X0035228Y0050301D01*
X0035099Y0050139D01*
X0034967Y0049980D01*
X0034831Y0049824D01*
X0034691Y0049671D01*
X0034547Y0049522D01*
X0034400Y0049377D01*
X0034249Y0049235D01*
X0034095Y0049097D01*
X0033937Y0048962D01*
X0033777Y0048832D01*
X0033613Y0048706D01*
X0033446Y0048583D01*
X0033276Y0048465D01*
X0033103Y0048350D01*
X0032928Y0048240D01*
X0032750Y0048135D01*
X0032569Y0048033D01*
X0032387Y0047937D01*
X0032201Y0047844D01*
X0032014Y0047756D01*
X0031824Y0047673D01*
X0031633Y0047594D01*
X0031440Y0047520D01*
X0031244Y0047451D01*
X0031048Y0047387D01*
X0030850Y0047327D01*
X0030650Y0047272D01*
X0030449Y0047222D01*
X0030247Y0047177D01*
X0030044Y0047137D01*
X0029840Y0047102D01*
X0029635Y0047072D01*
X0029430Y0047047D01*
X0029224Y0047027D01*
X0029017Y0047012D01*
X0028810Y0047002D01*
X0028603Y0046997D01*
X0028397Y0046997D01*
X0028190Y0047002D01*
X0027983Y0047012D01*
X0027776Y0047027D01*
X0027570Y0047047D01*
X0027365Y0047072D01*
X0027160Y0047102D01*
X0026956Y0047137D01*
X0026753Y0047177D01*
X0026551Y0047222D01*
X0026350Y0047272D01*
X0026150Y0047327D01*
X0025952Y0047387D01*
X0025756Y0047451D01*
X0025560Y0047520D01*
X0025367Y0047594D01*
X0025176Y0047673D01*
X0024986Y0047756D01*
X0024799Y0047844D01*
X0024613Y0047937D01*
X0024431Y0048033D01*
X0024250Y0048135D01*
X0024072Y0048240D01*
X0023897Y0048350D01*
X0023724Y0048465D01*
X0023554Y0048583D01*
X0023387Y0048706D01*
X0023223Y0048832D01*
X0023063Y0048962D01*
X0022905Y0049097D01*
X0022751Y0049235D01*
X0022600Y0049377D01*
X0022453Y0049522D01*
X0022309Y0049671D01*
X0022169Y0049824D01*
X0022033Y0049980D01*
X0021901Y0050139D01*
X0021772Y0050301D01*
X0021648Y0050466D01*
X0021527Y0050635D01*
X0021411Y0050806D01*
X0021299Y0050980D01*
X0021191Y0051157D01*
X0021088Y0051336D01*
X0020988Y0051518D01*
X0020894Y0051702D01*
X0020804Y0051888D01*
X0020718Y0052077D01*
X0020637Y0052267D01*
X0020561Y0052460D01*
X0020489Y0052654D01*
X0020422Y0052850D01*
X0020360Y0053047D01*
X0020303Y0053246D01*
X0020251Y0053446D01*
X0020203Y0053648D01*
X0020161Y0053850D01*
X0020123Y0054054D01*
X0020091Y0054258D01*
X0020063Y0054464D01*
X0020040Y0054669D01*
X0020023Y0054876D01*
X0020010Y0055082D01*
X0020003Y0055289D01*
X0020000Y0055496D01*
X0020000Y0079496D01*
X0020003Y0079703D01*
X0020010Y0079910D01*
X0020023Y0080116D01*
X0020040Y0080323D01*
X0020063Y0080528D01*
X0020091Y0080734D01*
X0020123Y0080938D01*
X0020161Y0081142D01*
X0020203Y0081344D01*
X0020251Y0081546D01*
X0020303Y0081746D01*
X0020360Y0081945D01*
X0020422Y0082142D01*
X0020489Y0082338D01*
X0020561Y0082532D01*
X0020637Y0082725D01*
X0020718Y0082915D01*
X0020804Y0083104D01*
X0020894Y0083290D01*
X0020988Y0083474D01*
X0021088Y0083656D01*
X0021191Y0083835D01*
X0021299Y0084012D01*
X0021411Y0084186D01*
X0021527Y0084357D01*
X0021648Y0084526D01*
X0021772Y0084691D01*
X0021901Y0084853D01*
X0022033Y0085012D01*
X0022169Y0085168D01*
X0022309Y0085321D01*
X0022453Y0085470D01*
X0022600Y0085615D01*
X0022751Y0085757D01*
X0022905Y0085895D01*
X0023063Y0086030D01*
X0023223Y0086160D01*
X0023387Y0086286D01*
X0023554Y0086409D01*
X0023724Y0086527D01*
X0023897Y0086642D01*
X0024072Y0086752D01*
X0024250Y0086857D01*
X0024431Y0086959D01*
X0024613Y0087055D01*
X0024799Y0087148D01*
X0024986Y0087236D01*
X0025176Y0087319D01*
X0025367Y0087398D01*
X0025560Y0087472D01*
X0025756Y0087541D01*
X0025952Y0087605D01*
X0026150Y0087665D01*
X0026350Y0087720D01*
X0026551Y0087770D01*
X0026753Y0087815D01*
X0026956Y0087855D01*
X0027160Y0087890D01*
X0027365Y0087920D01*
X0027570Y0087945D01*
X0027776Y0087965D01*
X0027983Y0087980D01*
X0028190Y0087990D01*
X0028397Y0087995D01*
X0028603Y0087995D01*
X0028810Y0087990D01*
X0029017Y0087980D01*
X0029224Y0087965D01*
X0029430Y0087945D01*
X0029635Y0087920D01*
X0029840Y0087890D01*
X0030044Y0087855D01*
X0030247Y0087815D01*
X0030449Y0087770D01*
X0030650Y0087720D01*
X0030850Y0087665D01*
X0031048Y0087605D01*
X0031244Y0087541D01*
X0031440Y0087472D01*
X0031633Y0087398D01*
X0031824Y0087319D01*
X0032014Y0087236D01*
X0032201Y0087148D01*
X0032387Y0087055D01*
X0032569Y0086959D01*
X0032750Y0086857D01*
X0032928Y0086752D01*
X0033103Y0086642D01*
X0033276Y0086527D01*
X0033446Y0086409D01*
X0033613Y0086286D01*
X0033777Y0086160D01*
X0033937Y0086030D01*
X0034095Y0085895D01*
X0034249Y0085757D01*
X0034400Y0085615D01*
X0034547Y0085470D01*
X0034691Y0085321D01*
X0034831Y0085168D01*
X0034967Y0085012D01*
X0035099Y0084853D01*
X0035228Y0084691D01*
X0035352Y0084526D01*
X0035473Y0084357D01*
X0035589Y0084186D01*
X0035701Y0084012D01*
X0035809Y0083835D01*
X0035912Y0083656D01*
X0036012Y0083474D01*
X0036106Y0083290D01*
X0036196Y0083104D01*
X0036282Y0082915D01*
X0036363Y0082725D01*
X0036439Y0082532D01*
X0036511Y0082338D01*
X0036578Y0082142D01*
X0036640Y0081945D01*
X0036697Y0081746D01*
X0036749Y0081546D01*
X0036797Y0081344D01*
X0036839Y0081142D01*
X0036877Y0080938D01*
X0036909Y0080734D01*
X0036937Y0080528D01*
X0036960Y0080323D01*
X0036977Y0080116D01*
X0036990Y0079910D01*
X0036997Y0079703D01*
X0037000Y0079496D01*
D15*
X0006500Y0009996D02*
X0009000Y0007496D01*
X0014000Y0007496D01*
X0016500Y0009996D01*
X0016500Y0014996D01*
X0014000Y0017496D01*
X0016500Y0019996D01*
X0016500Y0024996D01*
X0014000Y0027496D01*
X0016500Y0029996D01*
X0016500Y0034996D01*
X0014000Y0037496D01*
X0016500Y0039996D01*
X0016500Y0044996D01*
X0014000Y0047496D01*
X0016500Y0049996D01*
X0016500Y0054996D01*
X0014000Y0057496D01*
X0016500Y0059996D01*
X0016500Y0064996D01*
X0014000Y0067496D01*
X0016500Y0069996D01*
X0016500Y0074996D01*
X0014000Y0077496D01*
X0016500Y0079996D01*
X0016500Y0084996D01*
X0014000Y0087496D01*
X0016500Y0089996D01*
X0016500Y0094996D01*
X0014000Y0097496D01*
X0016500Y0099996D01*
X0016500Y0104996D01*
X0014000Y0107496D01*
X0016500Y0109996D01*
X0016500Y0114996D01*
X0014000Y0117496D01*
X0016500Y0119996D01*
X0016500Y0124996D01*
X0014000Y0127496D01*
X0009000Y0127496D01*
X0006500Y0124996D01*
X0006500Y0119996D01*
X0009000Y0117496D01*
X0006500Y0114996D01*
X0006500Y0109996D01*
X0009000Y0107496D01*
X0006500Y0104996D01*
X0006500Y0099996D01*
X0009000Y0097496D01*
X0006500Y0094996D01*
X0006500Y0089996D01*
X0009000Y0087496D01*
X0006500Y0084996D01*
X0006500Y0079996D01*
X0009000Y0077496D01*
X0006500Y0074996D01*
X0006500Y0069996D01*
X0009000Y0067496D01*
X0006500Y0064996D01*
X0006500Y0059996D01*
X0009000Y0057496D01*
X0006500Y0054996D01*
X0006500Y0049996D01*
X0009000Y0047496D01*
X0006500Y0044996D01*
X0006500Y0039996D01*
X0009000Y0037496D01*
X0006500Y0034996D01*
X0006500Y0029996D01*
X0009000Y0027496D01*
X0006500Y0024996D01*
X0006500Y0019996D01*
X0009000Y0017496D01*
X0006500Y0014996D01*
X0006500Y0009996D01*
X0073500Y0009996D02*
X0073500Y0014996D01*
X0076000Y0017496D01*
X0081000Y0017496D01*
X0083500Y0014996D01*
X0086000Y0017496D01*
X0091000Y0017496D01*
X0093500Y0014996D01*
X0096000Y0017496D01*
X0101000Y0017496D01*
X0103500Y0014996D01*
X0106000Y0017496D01*
X0111000Y0017496D01*
X0113500Y0014996D01*
X0113500Y0009996D01*
X0111000Y0007496D01*
X0106000Y0007496D01*
X0103500Y0009996D01*
X0101000Y0007496D01*
X0096000Y0007496D01*
X0093500Y0009996D01*
X0091000Y0007496D01*
X0086000Y0007496D01*
X0083500Y0009996D01*
X0081000Y0007496D01*
X0076000Y0007496D01*
X0073500Y0009996D01*
X0081500Y0022496D02*
X0079000Y0024996D01*
X0079000Y0029996D01*
X0081500Y0032496D01*
X0086500Y0032496D01*
X0089000Y0029996D01*
X0089000Y0024996D01*
X0086500Y0022496D01*
X0081500Y0022496D01*
X0081500Y0042496D02*
X0086500Y0042496D01*
X0089000Y0044996D01*
X0089000Y0049996D01*
X0086500Y0052496D01*
X0081500Y0052496D01*
X0079000Y0049996D01*
X0079000Y0044996D01*
X0081500Y0042496D01*
X0089000Y0057496D02*
X0086500Y0059996D01*
X0086500Y0064996D01*
X0089000Y0067496D01*
X0086500Y0069996D01*
X0086500Y0074996D01*
X0089000Y0077496D01*
X0086500Y0079996D01*
X0086500Y0084996D01*
X0089000Y0087496D01*
X0086500Y0089996D01*
X0086500Y0094996D01*
X0089000Y0097496D01*
X0094000Y0097496D01*
X0096500Y0094996D01*
X0096500Y0089996D01*
X0094000Y0087496D01*
X0096500Y0084996D01*
X0096500Y0079996D01*
X0094000Y0077496D01*
X0096500Y0074996D01*
X0096500Y0069996D01*
X0094000Y0067496D01*
X0096500Y0064996D01*
X0096500Y0059996D01*
X0094000Y0057496D01*
X0089000Y0057496D01*
X0116500Y0054996D02*
X0116500Y0049996D01*
X0119000Y0047496D01*
X0116500Y0044996D01*
X0116500Y0039996D01*
X0119000Y0037496D01*
X0116500Y0034996D01*
X0116500Y0029996D01*
X0119000Y0027496D01*
X0116500Y0024996D01*
X0116500Y0019996D01*
X0119000Y0017496D01*
X0116500Y0014996D01*
X0116500Y0009996D01*
X0119000Y0007496D01*
X0124000Y0007496D01*
X0126500Y0009996D01*
X0126500Y0014996D01*
X0124000Y0017496D01*
X0126500Y0019996D01*
X0126500Y0024996D01*
X0124000Y0027496D01*
X0126500Y0029996D01*
X0126500Y0034996D01*
X0124000Y0037496D01*
X0126500Y0039996D01*
X0126500Y0044996D01*
X0124000Y0047496D01*
X0126500Y0049996D01*
X0126500Y0054996D01*
X0124000Y0057496D01*
X0126500Y0059996D01*
X0126500Y0064996D01*
X0124000Y0067496D01*
X0126500Y0069996D01*
X0126500Y0074996D01*
X0124000Y0077496D01*
X0126500Y0079996D01*
X0126500Y0084996D01*
X0124000Y0087496D01*
X0126500Y0089996D01*
X0126500Y0094996D01*
X0124000Y0097496D01*
X0126500Y0099996D01*
X0126500Y0104996D01*
X0124000Y0107496D01*
X0126500Y0109996D01*
X0126500Y0114996D01*
X0124000Y0117496D01*
X0126500Y0119996D01*
X0126500Y0124996D01*
X0124000Y0127496D01*
X0119000Y0127496D01*
X0116500Y0124996D01*
X0116500Y0119996D01*
X0119000Y0117496D01*
X0116500Y0114996D01*
X0116500Y0109996D01*
X0119000Y0107496D01*
X0116500Y0104996D01*
X0116500Y0099996D01*
X0119000Y0097496D01*
X0116500Y0094996D01*
X0116500Y0089996D01*
X0119000Y0087496D01*
X0116500Y0084996D01*
X0116500Y0079996D01*
X0119000Y0077496D01*
X0116500Y0074996D01*
X0116500Y0069996D01*
X0119000Y0067496D01*
X0116500Y0064996D01*
X0116500Y0059996D01*
X0119000Y0057496D01*
X0116500Y0054996D01*
X0106500Y0110996D02*
X0101500Y0110996D01*
X0099000Y0113496D01*
X0096500Y0110996D01*
X0091500Y0110996D01*
X0089000Y0113496D01*
X0089000Y0118496D01*
X0091500Y0120996D01*
X0096500Y0120996D01*
X0099000Y0118496D01*
X0101500Y0120996D01*
X0106500Y0120996D01*
X0109000Y0118496D01*
X0109000Y0113496D01*
X0106500Y0110996D01*
D16*
X0046650Y0112496D03*
X0046650Y0108496D03*
D17*
X0053909Y0120134D03*
X0053909Y0124858D03*
D18*
X0053909Y0122496D03*
X0101500Y0028906D03*
X0111500Y0028906D03*
D19*
X0109138Y0028906D03*
X0113862Y0028906D03*
X0103862Y0028906D03*
X0099138Y0028906D03*
D20*
X0061866Y0017221D02*
X0061866Y0007772D01*
X0020134Y0007772D01*
X0020134Y0017221D01*
X0041000Y0017221D01*
X0040606Y0017221D02*
X0061866Y0017221D01*
M02*
