%
M48
M72
T01C0.02362
T02C0.04000
%
T01
X21500Y19000
X59000Y19000
X69000Y19000
X76500Y19000
X69000Y34000
X59000Y34000
X39000Y46500
X39000Y51500
X21500Y51500
X36500Y41500
X56500Y49000
X66500Y49000
X86500Y39000
X96500Y39000
T02
X11500Y11500
X11500Y21500
X11500Y31500
X11500Y41500
X11500Y51500
X11500Y61500
X31500Y61500
X41500Y61500
X51500Y61500
X61500Y61500
X75831Y61500
X83665Y61500
X91500Y61500
X99335Y61500
X107169Y61500
X121500Y61500
X121500Y51500
X121500Y41500
X121500Y31500
X121500Y21500
X121500Y11500
X99000Y49000
X89000Y49000
X41500Y11500
X31500Y11500
M30
