G75*
%MOIN*%
%OFA0B0*%
%FSLAX25Y25*%
%IPPOS*%
%LPD*%
%AMOC8*
5,1,8,0,0,1.08239X$1,22.5*
%
%ADD10R,0.06600X0.01900*%
%ADD11R,0.01900X0.06600*%
%ADD12R,0.06706X0.05918*%
%ADD13C,0.05600*%
%ADD14R,0.05918X0.06706*%
%ADD15R,0.08200X0.08200*%
%ADD16C,0.08200*%
%ADD17C,0.07400*%
%ADD18R,0.05524X0.05524*%
%ADD19C,0.07800*%
%ADD20C,0.04562*%
D10*
X0044900Y0066669D03*
X0044900Y0068638D03*
X0044900Y0070606D03*
X0044900Y0072575D03*
X0044900Y0074543D03*
X0044900Y0076512D03*
X0044900Y0078480D03*
X0044900Y0080449D03*
X0044900Y0082417D03*
X0044900Y0084386D03*
X0044900Y0086355D03*
X0044900Y0088323D03*
X0078100Y0088323D03*
X0078100Y0086355D03*
X0078100Y0084386D03*
X0078100Y0082417D03*
X0078100Y0080449D03*
X0078100Y0078480D03*
X0078100Y0076512D03*
X0078100Y0074543D03*
X0078100Y0072575D03*
X0078100Y0070606D03*
X0078100Y0068638D03*
X0078100Y0066669D03*
D11*
X0072327Y0060896D03*
X0070358Y0060896D03*
X0068390Y0060896D03*
X0066421Y0060896D03*
X0064453Y0060896D03*
X0062484Y0060896D03*
X0060516Y0060896D03*
X0058547Y0060896D03*
X0056579Y0060896D03*
X0054610Y0060896D03*
X0052642Y0060896D03*
X0050673Y0060896D03*
X0050673Y0094096D03*
X0052642Y0094096D03*
X0054610Y0094096D03*
X0056579Y0094096D03*
X0058547Y0094096D03*
X0060516Y0094096D03*
X0062484Y0094096D03*
X0064453Y0094096D03*
X0066421Y0094096D03*
X0068390Y0094096D03*
X0070358Y0094096D03*
X0072327Y0094096D03*
D12*
X0101500Y0049236D03*
X0101500Y0041756D03*
X0111500Y0041756D03*
X0111500Y0049236D03*
X0066500Y0048236D03*
X0066500Y0040756D03*
X0067500Y0020236D03*
X0067500Y0012756D03*
D13*
X0028500Y0057996D03*
X0028500Y0076996D03*
D14*
X0024760Y0097496D03*
X0032240Y0097496D03*
X0032240Y0106996D03*
X0024760Y0106996D03*
X0024760Y0117496D03*
X0032240Y0117496D03*
X0069760Y0122496D03*
X0077240Y0122496D03*
X0102760Y0092496D03*
X0110240Y0092496D03*
X0110240Y0082496D03*
X0102760Y0082496D03*
X0102760Y0072496D03*
X0110240Y0072496D03*
X0110240Y0062496D03*
X0102760Y0062496D03*
X0055240Y0047496D03*
X0047760Y0047496D03*
X0047760Y0037496D03*
X0055240Y0037496D03*
X0055240Y0027496D03*
X0047760Y0027496D03*
X0030240Y0027496D03*
X0022760Y0027496D03*
X0022760Y0037496D03*
X0030240Y0037496D03*
D15*
X0091500Y0062496D03*
X0108500Y0012496D03*
D16*
X0011500Y0012496D03*
X0011500Y0022496D03*
X0011500Y0032496D03*
X0011500Y0042496D03*
X0011500Y0052496D03*
X0011500Y0062496D03*
X0011500Y0072496D03*
X0011500Y0082496D03*
X0011500Y0092496D03*
X0011500Y0102496D03*
X0011500Y0112496D03*
X0011500Y0122496D03*
X0084000Y0047496D03*
X0084000Y0027496D03*
X0088500Y0012496D03*
X0078500Y0012496D03*
X0098500Y0012496D03*
X0121500Y0012496D03*
X0121500Y0022496D03*
X0121500Y0032496D03*
X0121500Y0042496D03*
X0121500Y0052496D03*
X0121500Y0062496D03*
X0121500Y0072496D03*
X0121500Y0082496D03*
X0121500Y0092496D03*
X0121500Y0102496D03*
X0121500Y0112496D03*
X0121500Y0122496D03*
X0104000Y0115996D03*
X0094000Y0115996D03*
X0091500Y0092496D03*
X0091500Y0082496D03*
X0091500Y0072496D03*
D17*
X0041500Y0105496D03*
X0041500Y0115496D03*
D18*
X0050366Y0122496D03*
X0058634Y0122496D03*
X0101500Y0033630D03*
X0101500Y0025362D03*
X0111500Y0025362D03*
X0111500Y0033630D03*
D19*
X0056669Y0012496D03*
X0048835Y0012496D03*
X0041000Y0012496D03*
X0033165Y0012496D03*
X0025331Y0012496D03*
D20*
X0038500Y0027496D03*
X0062500Y0032996D03*
X0067500Y0027496D03*
X0092000Y0032496D03*
X0092000Y0039996D03*
X0071500Y0069996D03*
X0061500Y0077496D03*
X0069000Y0084996D03*
X0081500Y0092496D03*
X0081500Y0102496D03*
X0070000Y0106496D03*
X0064000Y0116496D03*
X0056500Y0114996D03*
X0039000Y0091496D03*
X0037500Y0079996D03*
X0052500Y0073996D03*
X0055500Y0054496D03*
X0106500Y0102496D03*
X0086500Y0122496D03*
M02*
