G75*
%MOIN*%
%OFA0B0*%
%FSLAX25Y25*%
%IPPOS*%
%LPD*%
%AMOC8*
5,1,8,0,0,1.08239X$1,22.5*
%
%ADD10C,0.00200*%
%ADD11C,0.00600*%
%ADD12C,0.00000*%
%ADD13C,0.00300*%
%ADD14C,0.00100*%
%ADD15C,0.00500*%
%ADD16C,0.00800*%
%ADD17C,0.01200*%
%ADD18R,0.01181X0.00591*%
%ADD19R,0.01181X0.01181*%
D10*
X0021298Y0008214D02*
X0021298Y0008948D01*
X0021298Y0008581D02*
X0023133Y0008581D01*
X0023500Y0008214D01*
X0023500Y0007847D01*
X0023133Y0007480D01*
X0023500Y0009690D02*
X0023500Y0011158D01*
X0023500Y0010424D02*
X0021298Y0010424D01*
X0022032Y0009690D01*
X0028565Y0021600D02*
X0030033Y0021600D01*
X0030400Y0021967D01*
X0030400Y0022701D01*
X0030033Y0023068D01*
X0030400Y0023810D02*
X0030400Y0025278D01*
X0030400Y0024544D02*
X0028198Y0024544D01*
X0028932Y0023810D01*
X0028565Y0023068D02*
X0028198Y0022701D01*
X0028198Y0021967D01*
X0028565Y0021600D01*
X0049098Y0021281D02*
X0049098Y0020180D01*
X0051300Y0020180D01*
X0050566Y0020180D02*
X0050566Y0021281D01*
X0050199Y0021648D01*
X0049465Y0021648D01*
X0049098Y0021281D01*
X0049465Y0022390D02*
X0049098Y0022757D01*
X0049098Y0023491D01*
X0049465Y0023858D01*
X0049832Y0023858D01*
X0051300Y0022390D01*
X0051300Y0023858D01*
X0051300Y0021648D02*
X0050566Y0020914D01*
X0051698Y0015278D02*
X0051698Y0013810D01*
X0052799Y0013810D01*
X0052432Y0014544D01*
X0052432Y0014911D01*
X0052799Y0015278D01*
X0053533Y0015278D01*
X0053900Y0014911D01*
X0053900Y0014177D01*
X0053533Y0013810D01*
X0053900Y0013068D02*
X0053166Y0012334D01*
X0053166Y0012701D02*
X0053166Y0011600D01*
X0053900Y0011600D02*
X0051698Y0011600D01*
X0051698Y0012701D01*
X0052065Y0013068D01*
X0052799Y0013068D01*
X0053166Y0012701D01*
X0071098Y0027180D02*
X0073300Y0027180D01*
X0073300Y0028648D01*
X0073300Y0029390D02*
X0073300Y0030858D01*
X0073300Y0030124D02*
X0071098Y0030124D01*
X0071832Y0029390D01*
X0083900Y0020278D02*
X0083900Y0018810D01*
X0083900Y0019544D02*
X0081698Y0019544D01*
X0082432Y0018810D01*
X0082065Y0018068D02*
X0082799Y0018068D01*
X0083166Y0017701D01*
X0083166Y0016600D01*
X0083166Y0017334D02*
X0083900Y0018068D01*
X0083900Y0016600D02*
X0081698Y0016600D01*
X0081698Y0017701D01*
X0082065Y0018068D01*
X0094198Y0018310D02*
X0096400Y0018310D01*
X0096400Y0019778D01*
X0096400Y0020520D02*
X0096400Y0021621D01*
X0096033Y0021988D01*
X0094565Y0021988D01*
X0094198Y0021621D01*
X0094198Y0020520D01*
X0096400Y0020520D01*
X0095299Y0019044D02*
X0095299Y0018310D01*
X0094198Y0018310D02*
X0094198Y0019778D01*
X0096400Y0017568D02*
X0096400Y0016100D01*
X0094198Y0016100D01*
X0094932Y0022730D02*
X0094198Y0023464D01*
X0096400Y0023464D01*
X0096400Y0022730D02*
X0096400Y0024198D01*
X0096300Y0025680D02*
X0094098Y0025680D01*
X0094098Y0026781D01*
X0094465Y0027148D01*
X0095199Y0027148D01*
X0095566Y0026781D01*
X0095566Y0025680D01*
X0095566Y0026414D02*
X0096300Y0027148D01*
X0095933Y0027890D02*
X0096300Y0028257D01*
X0096300Y0028991D01*
X0095933Y0029358D01*
X0095566Y0029358D01*
X0095199Y0028991D01*
X0095199Y0028624D01*
X0095199Y0028991D02*
X0094832Y0029358D01*
X0094465Y0029358D01*
X0094098Y0028991D01*
X0094098Y0028257D01*
X0094465Y0027890D01*
X0105098Y0032547D02*
X0105465Y0032180D01*
X0106933Y0032180D01*
X0107300Y0032547D01*
X0107300Y0033281D01*
X0106933Y0033648D01*
X0107300Y0034390D02*
X0105832Y0035858D01*
X0105465Y0035858D01*
X0105098Y0035491D01*
X0105098Y0034757D01*
X0105465Y0034390D01*
X0105465Y0033648D02*
X0105098Y0033281D01*
X0105098Y0032547D01*
X0107300Y0034390D02*
X0107300Y0035858D01*
X0106433Y0038680D02*
X0104965Y0038680D01*
X0104598Y0039047D01*
X0104598Y0039781D01*
X0104965Y0040148D01*
X0104965Y0040890D02*
X0104598Y0041257D01*
X0104598Y0041991D01*
X0104965Y0042358D01*
X0105332Y0042358D01*
X0105699Y0041991D01*
X0106066Y0042358D01*
X0106433Y0042358D01*
X0106800Y0041991D01*
X0106800Y0041257D01*
X0106433Y0040890D01*
X0105699Y0041624D02*
X0105699Y0041991D01*
X0106433Y0040148D02*
X0106800Y0039781D01*
X0106800Y0039047D01*
X0106433Y0038680D01*
X0092500Y0038714D02*
X0092500Y0038347D01*
X0092133Y0037980D01*
X0092500Y0038714D02*
X0092133Y0039081D01*
X0090298Y0039081D01*
X0090298Y0038714D02*
X0090298Y0039448D01*
X0090298Y0040190D02*
X0091399Y0040190D01*
X0091032Y0040924D01*
X0091032Y0041291D01*
X0091399Y0041658D01*
X0092133Y0041658D01*
X0092500Y0041291D01*
X0092500Y0040557D01*
X0092133Y0040190D01*
X0090298Y0040190D02*
X0090298Y0041658D01*
X0071400Y0044967D02*
X0071400Y0045701D01*
X0071033Y0046068D01*
X0070299Y0046810D02*
X0070299Y0048278D01*
X0069198Y0047911D02*
X0070299Y0046810D01*
X0069565Y0046068D02*
X0069198Y0045701D01*
X0069198Y0044967D01*
X0069565Y0044600D01*
X0071033Y0044600D01*
X0071400Y0044967D01*
X0071400Y0047911D02*
X0069198Y0047911D01*
X0068546Y0052706D02*
X0066711Y0052706D01*
X0068546Y0052706D02*
X0068913Y0053072D01*
X0068913Y0053806D01*
X0068546Y0054173D01*
X0066711Y0054173D01*
X0067078Y0054915D02*
X0066711Y0055282D01*
X0066711Y0056016D01*
X0067078Y0056383D01*
X0067078Y0057125D02*
X0066711Y0057492D01*
X0066711Y0058226D01*
X0067078Y0058593D01*
X0067445Y0058593D01*
X0067812Y0058226D01*
X0068179Y0058593D01*
X0068546Y0058593D01*
X0068913Y0058226D01*
X0068913Y0057492D01*
X0068546Y0057125D01*
X0068546Y0056383D02*
X0068179Y0056383D01*
X0067812Y0056016D01*
X0067812Y0055282D01*
X0067445Y0054915D01*
X0067078Y0054915D01*
X0066344Y0055649D02*
X0069280Y0055649D01*
X0068913Y0055282D02*
X0068913Y0056016D01*
X0068546Y0056383D01*
X0068913Y0055282D02*
X0068546Y0054915D01*
X0067812Y0057859D02*
X0067812Y0058226D01*
X0057500Y0055158D02*
X0057500Y0053690D01*
X0056032Y0055158D01*
X0055665Y0055158D01*
X0055298Y0054791D01*
X0055298Y0054057D01*
X0055665Y0053690D01*
X0055298Y0052948D02*
X0055298Y0052214D01*
X0055298Y0052581D02*
X0057133Y0052581D01*
X0057500Y0052214D01*
X0057500Y0051847D01*
X0057133Y0051480D01*
X0021000Y0057847D02*
X0020633Y0057480D01*
X0021000Y0057847D02*
X0021000Y0058214D01*
X0020633Y0058581D01*
X0018798Y0058581D01*
X0018798Y0058214D02*
X0018798Y0058948D01*
X0019899Y0059690D02*
X0019899Y0060791D01*
X0020266Y0061158D01*
X0020633Y0061158D01*
X0021000Y0060791D01*
X0021000Y0060057D01*
X0020633Y0059690D01*
X0019899Y0059690D01*
X0019165Y0060424D01*
X0018798Y0061158D01*
X0105098Y0014491D02*
X0106199Y0013390D01*
X0106199Y0014858D01*
X0107300Y0014491D02*
X0105098Y0014491D01*
X0105465Y0012648D02*
X0106199Y0012648D01*
X0106566Y0012281D01*
X0106566Y0011180D01*
X0107300Y0011180D02*
X0105098Y0011180D01*
X0105098Y0012281D01*
X0105465Y0012648D01*
X0106566Y0011914D02*
X0107300Y0012648D01*
X0114167Y0064300D02*
X0114534Y0064300D01*
X0114901Y0064667D01*
X0114901Y0066502D01*
X0114534Y0066502D02*
X0115268Y0066502D01*
X0116010Y0066502D02*
X0117478Y0066502D01*
X0117478Y0066135D01*
X0116010Y0064667D01*
X0116010Y0064300D01*
X0114167Y0064300D02*
X0113800Y0064667D01*
D11*
X0091100Y0034500D02*
X0089300Y0034500D01*
X0089300Y0032400D01*
X0091100Y0032400D01*
X0091100Y0034500D01*
X0092200Y0032400D02*
X0080800Y0032400D01*
X0080800Y0030200D01*
X0080800Y0027800D01*
X0080800Y0025600D01*
X0092200Y0025600D01*
X0092200Y0032400D01*
X0087400Y0032400D02*
X0087400Y0034500D01*
X0085600Y0034500D01*
X0085600Y0032400D01*
X0087400Y0032400D01*
X0083700Y0032400D02*
X0083700Y0034500D01*
X0081900Y0034500D01*
X0081900Y0032400D01*
X0083700Y0032400D01*
X0083700Y0025600D02*
X0081900Y0025600D01*
X0081900Y0023500D01*
X0083700Y0023500D01*
X0083700Y0025600D01*
X0085600Y0025600D02*
X0085600Y0023500D01*
X0087400Y0023500D01*
X0087400Y0025600D01*
X0085600Y0025600D01*
X0089300Y0025600D02*
X0089300Y0023500D01*
X0091100Y0023500D01*
X0091100Y0025600D01*
X0089300Y0025600D01*
X0051200Y0035600D02*
X0051200Y0037500D01*
X0046800Y0037400D01*
X0046800Y0035600D01*
X0051200Y0035600D01*
X0046800Y0034200D02*
X0046800Y0053800D01*
X0037800Y0053800D01*
X0031200Y0053800D01*
X0031200Y0034200D01*
X0046800Y0034200D01*
X0046800Y0040600D02*
X0051200Y0040600D01*
X0051200Y0042500D01*
X0046800Y0042400D01*
X0046800Y0040600D01*
X0046800Y0045600D02*
X0051200Y0045600D01*
X0051200Y0047500D01*
X0046800Y0047400D01*
X0046800Y0045600D01*
X0046800Y0050600D02*
X0051200Y0050600D01*
X0051200Y0052500D01*
X0046800Y0052400D01*
X0046800Y0050600D01*
X0031200Y0050600D02*
X0026800Y0050500D01*
X0026800Y0052400D01*
X0031200Y0052400D01*
X0031200Y0050600D01*
X0031200Y0047400D02*
X0026800Y0047400D01*
X0026800Y0045500D01*
X0031200Y0045600D01*
X0031200Y0047400D01*
X0031200Y0042400D02*
X0026800Y0042400D01*
X0026800Y0040500D01*
X0031200Y0040600D01*
X0031200Y0042400D01*
X0031200Y0037400D02*
X0026800Y0037400D01*
X0026800Y0035500D01*
X0031200Y0035600D01*
X0031200Y0037400D01*
D12*
X0037800Y0053800D02*
X0037805Y0053732D01*
X0037814Y0053664D01*
X0037826Y0053596D01*
X0037843Y0053530D01*
X0037863Y0053464D01*
X0037887Y0053400D01*
X0037914Y0053337D01*
X0037945Y0053276D01*
X0037980Y0053216D01*
X0038018Y0053159D01*
X0038059Y0053104D01*
X0038103Y0053052D01*
X0038150Y0053002D01*
X0038200Y0052955D01*
X0038252Y0052910D01*
X0038307Y0052869D01*
X0038364Y0052831D01*
X0038423Y0052797D01*
X0038484Y0052765D01*
X0038547Y0052738D01*
X0038611Y0052714D01*
X0038677Y0052693D01*
X0038743Y0052677D01*
X0038811Y0052664D01*
X0038879Y0052655D01*
X0038947Y0052650D01*
X0039016Y0052649D01*
X0039084Y0052652D01*
X0039153Y0052659D01*
X0039220Y0052669D01*
X0039287Y0052684D01*
X0039353Y0052702D01*
X0039418Y0052724D01*
X0039482Y0052750D01*
X0039544Y0052779D01*
X0039604Y0052812D01*
X0039662Y0052848D01*
X0039719Y0052888D01*
X0039772Y0052930D01*
X0039824Y0052976D01*
X0039872Y0053024D01*
X0039918Y0053075D01*
X0039961Y0053129D01*
X0040000Y0053185D01*
X0040037Y0053243D01*
X0040069Y0053303D01*
X0040099Y0053365D01*
X0040125Y0053429D01*
X0040147Y0053494D01*
X0040165Y0053560D01*
X0040180Y0053627D01*
X0040191Y0053695D01*
X0040198Y0053763D01*
X0040201Y0053831D01*
X0040200Y0053900D01*
X0080800Y0030200D02*
X0080869Y0030198D01*
X0080937Y0030192D01*
X0081005Y0030182D01*
X0081072Y0030169D01*
X0081138Y0030151D01*
X0081203Y0030130D01*
X0081267Y0030105D01*
X0081329Y0030077D01*
X0081390Y0030045D01*
X0081449Y0030010D01*
X0081505Y0029971D01*
X0081560Y0029929D01*
X0081611Y0029884D01*
X0081661Y0029836D01*
X0081707Y0029786D01*
X0081750Y0029733D01*
X0081791Y0029677D01*
X0081828Y0029620D01*
X0081861Y0029560D01*
X0081892Y0029498D01*
X0081918Y0029435D01*
X0081941Y0029371D01*
X0081961Y0029305D01*
X0081976Y0029238D01*
X0081988Y0029171D01*
X0081996Y0029103D01*
X0082000Y0029034D01*
X0082000Y0028966D01*
X0081996Y0028897D01*
X0081988Y0028829D01*
X0081976Y0028762D01*
X0081961Y0028695D01*
X0081941Y0028629D01*
X0081918Y0028565D01*
X0081892Y0028502D01*
X0081861Y0028440D01*
X0081828Y0028380D01*
X0081791Y0028323D01*
X0081750Y0028267D01*
X0081707Y0028214D01*
X0081661Y0028164D01*
X0081611Y0028116D01*
X0081560Y0028071D01*
X0081505Y0028029D01*
X0081449Y0027990D01*
X0081390Y0027955D01*
X0081329Y0027923D01*
X0081267Y0027895D01*
X0081203Y0027870D01*
X0081138Y0027849D01*
X0081072Y0027831D01*
X0081005Y0027818D01*
X0080937Y0027808D01*
X0080869Y0027802D01*
X0080800Y0027800D01*
D13*
X0080366Y0024486D02*
X0077230Y0021350D01*
X0078798Y0021350D02*
X0078798Y0024486D01*
X0077230Y0024486D02*
X0080366Y0021350D01*
X0080366Y0022918D02*
X0077230Y0022918D01*
X0033686Y0049534D02*
X0030550Y0052670D01*
X0030550Y0051102D02*
X0033686Y0051102D01*
X0033686Y0052670D02*
X0030550Y0049534D01*
X0032118Y0049534D02*
X0032118Y0052670D01*
D14*
X0040532Y0040495D02*
X0040148Y0040111D01*
X0040148Y0039344D01*
X0040532Y0038960D01*
X0040148Y0038285D02*
X0042066Y0038285D01*
X0042450Y0037901D01*
X0042450Y0037134D01*
X0042066Y0036750D01*
X0040148Y0036750D01*
X0042450Y0038960D02*
X0040915Y0040495D01*
X0040532Y0040495D01*
X0042450Y0040495D02*
X0042450Y0038960D01*
X0089148Y0020727D02*
X0089915Y0019960D01*
X0089148Y0019285D02*
X0091066Y0019285D01*
X0091450Y0018901D01*
X0091450Y0018134D01*
X0091066Y0017750D01*
X0089148Y0017750D01*
X0091450Y0019960D02*
X0091450Y0021495D01*
X0091450Y0020727D02*
X0089148Y0020727D01*
D15*
X0069906Y0025850D02*
X0058094Y0025850D01*
X0058094Y0032150D01*
X0069906Y0032150D01*
X0069906Y0025850D01*
X0067406Y0043350D02*
X0055594Y0043350D01*
X0055594Y0049650D01*
X0067406Y0049650D01*
X0067406Y0043350D01*
D16*
X0014000Y0006500D02*
X0009000Y0006500D01*
X0006500Y0009000D01*
X0006500Y0014000D01*
X0009000Y0016500D01*
X0006500Y0019000D01*
X0006500Y0024000D01*
X0009000Y0026500D01*
X0006500Y0029000D01*
X0006500Y0034000D01*
X0009000Y0036500D01*
X0006500Y0039000D01*
X0006500Y0044000D01*
X0009000Y0046500D01*
X0006500Y0049000D01*
X0006500Y0054000D01*
X0009000Y0056500D01*
X0006500Y0059000D01*
X0006500Y0064000D01*
X0009000Y0066500D01*
X0014000Y0066500D01*
X0016500Y0064000D01*
X0016500Y0059000D01*
X0014000Y0056500D01*
X0016500Y0054000D01*
X0016500Y0049000D01*
X0014000Y0046500D01*
X0016500Y0044000D01*
X0016500Y0039000D01*
X0014000Y0036500D01*
X0016500Y0034000D01*
X0016500Y0029000D01*
X0014000Y0026500D01*
X0016500Y0024000D01*
X0016500Y0019000D01*
X0014000Y0016500D01*
X0016500Y0014000D01*
X0016500Y0009000D01*
X0014000Y0006500D01*
X0026500Y0009000D02*
X0026500Y0014000D01*
X0029000Y0016500D01*
X0034000Y0016500D01*
X0036500Y0014000D01*
X0039000Y0016500D01*
X0044000Y0016500D01*
X0046500Y0014000D01*
X0046500Y0009000D01*
X0044000Y0006500D01*
X0039000Y0006500D01*
X0036500Y0009000D01*
X0034000Y0006500D01*
X0029000Y0006500D01*
X0026500Y0009000D01*
X0084000Y0046500D02*
X0086500Y0044000D01*
X0091500Y0044000D01*
X0094000Y0046500D01*
X0096500Y0044000D01*
X0101500Y0044000D01*
X0104000Y0046500D01*
X0104000Y0051500D01*
X0101500Y0054000D01*
X0096500Y0054000D01*
X0094000Y0051500D01*
X0091500Y0054000D01*
X0086500Y0054000D01*
X0084000Y0051500D01*
X0084000Y0046500D01*
X0066500Y0059000D02*
X0064000Y0056500D01*
X0059000Y0056500D01*
X0056500Y0059000D01*
X0054000Y0056500D01*
X0049000Y0056500D01*
X0046500Y0059000D01*
X0044000Y0056500D01*
X0039000Y0056500D01*
X0036500Y0059000D01*
X0034000Y0056500D01*
X0029000Y0056500D01*
X0026500Y0059000D01*
X0026500Y0064000D01*
X0029000Y0066500D01*
X0034000Y0066500D01*
X0036500Y0064000D01*
X0039000Y0066500D01*
X0044000Y0066500D01*
X0046500Y0064000D01*
X0049000Y0066500D01*
X0054000Y0066500D01*
X0056500Y0064000D01*
X0059000Y0066500D01*
X0064000Y0066500D01*
X0066500Y0064000D01*
X0066500Y0059000D01*
X0116500Y0059000D02*
X0116500Y0064000D01*
X0119000Y0066500D01*
X0124000Y0066500D01*
X0126500Y0064000D01*
X0126500Y0059000D01*
X0124000Y0056500D01*
X0126500Y0054000D01*
X0126500Y0049000D01*
X0124000Y0046500D01*
X0126500Y0044000D01*
X0126500Y0039000D01*
X0124000Y0036500D01*
X0126500Y0034000D01*
X0126500Y0029000D01*
X0124000Y0026500D01*
X0126500Y0024000D01*
X0126500Y0019000D01*
X0124000Y0016500D01*
X0126500Y0014000D01*
X0126500Y0009000D01*
X0124000Y0006500D01*
X0119000Y0006500D01*
X0116500Y0009000D01*
X0116500Y0014000D01*
X0119000Y0016500D01*
X0116500Y0019000D01*
X0116500Y0024000D01*
X0119000Y0026500D01*
X0116500Y0029000D01*
X0116500Y0034000D01*
X0119000Y0036500D01*
X0116500Y0039000D01*
X0116500Y0044000D01*
X0119000Y0046500D01*
X0116500Y0049000D01*
X0116500Y0054000D01*
X0119000Y0056500D01*
X0116500Y0059000D01*
D17*
X0112366Y0056776D02*
X0112366Y0066224D01*
X0070634Y0066224D01*
X0070634Y0056776D01*
X0091894Y0056776D01*
X0091500Y0056776D02*
X0112366Y0056776D01*
D18*
X0097091Y0013862D03*
X0097091Y0009138D03*
D19*
X0097091Y0011500D03*
M02*
