G75*
%MOIN*%
%OFA0B0*%
%FSLAX25Y25*%
%IPPOS*%
%LPD*%
%AMOC8*
5,1,8,0,0,1.08239X$1,22.5*
%
%ADD10C,0.07400*%
%ADD11R,0.07400X0.07400*%
%ADD12C,0.07000*%
%ADD13C,0.03762*%
%ADD14C,0.01000*%
D10*
X0011500Y0011500D03*
X0011500Y0021500D03*
X0011500Y0031500D03*
X0011500Y0041500D03*
X0011500Y0051500D03*
X0011500Y0061500D03*
X0031500Y0061500D03*
X0041500Y0061500D03*
X0051500Y0061500D03*
X0089000Y0049000D03*
X0099000Y0049000D03*
X0121500Y0051500D03*
X0121500Y0041500D03*
X0121500Y0031500D03*
X0121500Y0021500D03*
X0121500Y0011500D03*
X0041500Y0011500D03*
X0031500Y0011500D03*
X0121500Y0061500D03*
D11*
X0061500Y0061500D03*
D12*
X0075831Y0061500D03*
X0083665Y0061500D03*
X0091500Y0061500D03*
X0099335Y0061500D03*
X0107169Y0061500D03*
D13*
X0066500Y0049000D03*
X0056500Y0049000D03*
X0039000Y0046500D03*
X0039000Y0051500D03*
X0021500Y0051500D03*
X0036500Y0041500D03*
X0059000Y0034000D03*
X0069000Y0034000D03*
X0086500Y0039000D03*
X0096500Y0039000D03*
X0076500Y0019000D03*
X0069000Y0019000D03*
X0059000Y0019000D03*
X0021500Y0019000D03*
D14*
X0019000Y0021500D01*
X0019000Y0049000D01*
X0021500Y0051500D01*
X0026500Y0049000D02*
X0026500Y0056500D01*
X0031500Y0061500D01*
X0031500Y0051500D02*
X0041500Y0061500D01*
X0051500Y0061500D02*
X0059000Y0054000D01*
X0069000Y0054000D01*
X0074000Y0049000D01*
X0074000Y0044000D01*
X0079000Y0039000D01*
X0086500Y0039000D01*
X0096500Y0039000D01*
X0096500Y0031500D02*
X0106500Y0041500D01*
X0121500Y0041500D01*
X0121500Y0031500D02*
X0106500Y0031500D01*
X0086500Y0011500D01*
X0066500Y0011500D01*
X0059000Y0019000D01*
X0061500Y0026500D02*
X0069000Y0019000D01*
X0076500Y0019000D02*
X0076500Y0026500D01*
X0069000Y0034000D01*
X0066500Y0041500D02*
X0059000Y0034000D01*
X0059000Y0041500D02*
X0044000Y0041500D01*
X0039000Y0046500D01*
X0039000Y0051500D02*
X0054000Y0051500D01*
X0056500Y0049000D01*
X0059000Y0041500D02*
X0066500Y0049000D01*
X0066500Y0041500D02*
X0071500Y0041500D01*
X0081500Y0031500D01*
X0096500Y0031500D01*
X0089000Y0049000D02*
X0083665Y0054335D01*
X0083665Y0061500D01*
X0091500Y0061500D02*
X0099000Y0054000D01*
X0114000Y0054000D01*
X0116500Y0051500D01*
X0121500Y0051500D01*
X0061500Y0026500D02*
X0046500Y0026500D01*
X0036500Y0036500D01*
X0036500Y0041500D01*
X0026500Y0049000D02*
X0024000Y0046500D01*
X0024000Y0024000D01*
X0031500Y0016500D01*
X0031500Y0011500D01*
X0041500Y0011500D02*
X0031500Y0021500D01*
X0031500Y0051500D01*
M02*
