G75*
%MOIN*%
%OFA0B0*%
%FSLAX25Y25*%
%IPPOS*%
%LPD*%
%AMOC8*
5,1,8,0,0,1.08239X$1,22.5*
%
%ADD10C,0.00000*%
%ADD11R,0.05800X0.01100*%
%ADD12R,0.01100X0.05800*%
%ADD13R,0.05906X0.05118*%
%ADD14C,0.04800*%
%ADD15R,0.05118X0.05906*%
%ADD16R,0.07400X0.07400*%
%ADD17C,0.07400*%
%ADD18C,0.06600*%
%ADD19R,0.04724X0.04724*%
%ADD20C,0.07000*%
%ADD21C,0.01000*%
%ADD22C,0.03762*%
%ADD23C,0.01200*%
D10*
X0001500Y0002496D02*
X0001500Y0132457D01*
X0131201Y0132457D01*
X0131201Y0002496D01*
X0001500Y0002496D01*
D11*
X0044900Y0066669D03*
X0044900Y0068638D03*
X0044900Y0070606D03*
X0044900Y0072575D03*
X0044900Y0074543D03*
X0044900Y0076512D03*
X0044900Y0078480D03*
X0044900Y0080449D03*
X0044900Y0082417D03*
X0044900Y0084386D03*
X0044900Y0086355D03*
X0044900Y0088323D03*
X0078100Y0088323D03*
X0078100Y0086355D03*
X0078100Y0084386D03*
X0078100Y0082417D03*
X0078100Y0080449D03*
X0078100Y0078480D03*
X0078100Y0076512D03*
X0078100Y0074543D03*
X0078100Y0072575D03*
X0078100Y0070606D03*
X0078100Y0068638D03*
X0078100Y0066669D03*
D12*
X0072327Y0060896D03*
X0070358Y0060896D03*
X0068390Y0060896D03*
X0066421Y0060896D03*
X0064453Y0060896D03*
X0062484Y0060896D03*
X0060516Y0060896D03*
X0058547Y0060896D03*
X0056579Y0060896D03*
X0054610Y0060896D03*
X0052642Y0060896D03*
X0050673Y0060896D03*
X0050673Y0094096D03*
X0052642Y0094096D03*
X0054610Y0094096D03*
X0056579Y0094096D03*
X0058547Y0094096D03*
X0060516Y0094096D03*
X0062484Y0094096D03*
X0064453Y0094096D03*
X0066421Y0094096D03*
X0068390Y0094096D03*
X0070358Y0094096D03*
X0072327Y0094096D03*
D13*
X0101500Y0049236D03*
X0101500Y0041756D03*
X0111500Y0041756D03*
X0111500Y0049236D03*
X0066500Y0048236D03*
X0066500Y0040756D03*
X0067500Y0020236D03*
X0067500Y0012756D03*
D14*
X0028500Y0057996D03*
X0028500Y0076996D03*
D15*
X0024760Y0097496D03*
X0032240Y0097496D03*
X0032240Y0106996D03*
X0024760Y0106996D03*
X0024760Y0117496D03*
X0032240Y0117496D03*
X0069760Y0122496D03*
X0077240Y0122496D03*
X0102760Y0092496D03*
X0110240Y0092496D03*
X0110240Y0082496D03*
X0102760Y0082496D03*
X0102760Y0072496D03*
X0110240Y0072496D03*
X0110240Y0062496D03*
X0102760Y0062496D03*
X0055240Y0047496D03*
X0047760Y0047496D03*
X0047760Y0037496D03*
X0055240Y0037496D03*
X0055240Y0027496D03*
X0047760Y0027496D03*
X0030240Y0027496D03*
X0022760Y0027496D03*
X0022760Y0037496D03*
X0030240Y0037496D03*
D16*
X0091500Y0062496D03*
X0108500Y0012496D03*
D17*
X0098500Y0012496D03*
X0088500Y0012496D03*
X0078500Y0012496D03*
X0084000Y0027496D03*
X0084000Y0047496D03*
X0091500Y0072496D03*
X0091500Y0082496D03*
X0091500Y0092496D03*
X0094000Y0115996D03*
X0104000Y0115996D03*
X0121500Y0112496D03*
X0121500Y0102496D03*
X0121500Y0092496D03*
X0121500Y0082496D03*
X0121500Y0072496D03*
X0121500Y0062496D03*
X0121500Y0052496D03*
X0121500Y0042496D03*
X0121500Y0032496D03*
X0121500Y0022496D03*
X0121500Y0012496D03*
X0121500Y0122496D03*
X0011500Y0122496D03*
X0011500Y0112496D03*
X0011500Y0102496D03*
X0011500Y0092496D03*
X0011500Y0082496D03*
X0011500Y0072496D03*
X0011500Y0062496D03*
X0011500Y0052496D03*
X0011500Y0042496D03*
X0011500Y0032496D03*
X0011500Y0022496D03*
X0011500Y0012496D03*
D18*
X0041500Y0105496D03*
X0041500Y0115496D03*
D19*
X0050366Y0122496D03*
X0058634Y0122496D03*
X0101500Y0033630D03*
X0101500Y0025362D03*
X0111500Y0025362D03*
X0111500Y0033630D03*
D20*
X0056669Y0012496D03*
X0048835Y0012496D03*
X0041000Y0012496D03*
X0033165Y0012496D03*
X0025331Y0012496D03*
D21*
X0029248Y0015650D02*
X0028163Y0016735D01*
X0026325Y0017496D01*
X0024336Y0017496D01*
X0022498Y0016735D01*
X0021092Y0015328D01*
X0020331Y0013491D01*
X0020331Y0011502D01*
X0021092Y0009664D01*
X0022498Y0008257D01*
X0024336Y0007496D01*
X0026325Y0007496D01*
X0028163Y0008257D01*
X0029248Y0009342D01*
X0030333Y0008257D01*
X0032171Y0007496D01*
X0034160Y0007496D01*
X0035998Y0008257D01*
X0037083Y0009342D01*
X0038168Y0008257D01*
X0040005Y0007496D01*
X0041995Y0007496D01*
X0043832Y0008257D01*
X0044917Y0009342D01*
X0046002Y0008257D01*
X0047840Y0007496D01*
X0049829Y0007496D01*
X0051667Y0008257D01*
X0052752Y0009342D01*
X0053837Y0008257D01*
X0055675Y0007496D01*
X0057664Y0007496D01*
X0059502Y0008257D01*
X0060908Y0009664D01*
X0061669Y0011502D01*
X0061669Y0013491D01*
X0060908Y0015328D01*
X0059502Y0016735D01*
X0057664Y0017496D01*
X0055675Y0017496D01*
X0053837Y0016735D01*
X0052752Y0015650D01*
X0051667Y0016735D01*
X0049829Y0017496D01*
X0047840Y0017496D01*
X0046002Y0016735D01*
X0044917Y0015650D01*
X0043832Y0016735D01*
X0043645Y0016813D01*
X0044828Y0017996D01*
X0058828Y0017996D01*
X0060000Y0019168D01*
X0063047Y0022215D01*
X0063047Y0017056D01*
X0063607Y0016496D01*
X0063347Y0016236D01*
X0063149Y0015894D01*
X0063047Y0015513D01*
X0063047Y0013256D01*
X0067000Y0013256D01*
X0067000Y0012256D01*
X0068000Y0012256D01*
X0068000Y0008697D01*
X0070650Y0008697D01*
X0071032Y0008799D01*
X0071374Y0008997D01*
X0071653Y0009276D01*
X0071851Y0009618D01*
X0071953Y0009999D01*
X0071953Y0012256D01*
X0068000Y0012256D01*
X0068000Y0013256D01*
X0071953Y0013256D01*
X0071953Y0015513D01*
X0071851Y0015894D01*
X0071653Y0016236D01*
X0071393Y0016496D01*
X0071532Y0016636D01*
X0073692Y0014476D01*
X0073300Y0013531D01*
X0073300Y0011462D01*
X0074092Y0009551D01*
X0075554Y0008088D01*
X0077466Y0007296D01*
X0079534Y0007296D01*
X0081446Y0008088D01*
X0082908Y0009551D01*
X0083514Y0011013D01*
X0083681Y0010500D01*
X0084053Y0009771D01*
X0084534Y0009109D01*
X0085112Y0008530D01*
X0085775Y0008049D01*
X0086504Y0007677D01*
X0087282Y0007424D01*
X0088000Y0007311D01*
X0088000Y0011996D01*
X0089000Y0011996D01*
X0089000Y0007311D01*
X0089718Y0007424D01*
X0090496Y0007677D01*
X0091225Y0008049D01*
X0091888Y0008530D01*
X0092466Y0009109D01*
X0092947Y0009771D01*
X0093319Y0010500D01*
X0093486Y0011013D01*
X0094092Y0009551D01*
X0095554Y0008088D01*
X0097466Y0007296D01*
X0099534Y0007296D01*
X0101446Y0008088D01*
X0102908Y0009551D01*
X0103300Y0010496D01*
X0103300Y0008175D01*
X0104179Y0007296D01*
X0112821Y0007296D01*
X0113700Y0008175D01*
X0113700Y0016818D01*
X0112821Y0017696D01*
X0104179Y0017696D01*
X0103300Y0016818D01*
X0103300Y0014496D01*
X0102908Y0015442D01*
X0101446Y0016905D01*
X0099534Y0017696D01*
X0097466Y0017696D01*
X0095554Y0016905D01*
X0094092Y0015442D01*
X0093486Y0013979D01*
X0093319Y0014492D01*
X0092947Y0015222D01*
X0092466Y0015884D01*
X0091888Y0016463D01*
X0091225Y0016944D01*
X0090496Y0017315D01*
X0089718Y0017568D01*
X0089000Y0017682D01*
X0089000Y0012996D01*
X0088000Y0012996D01*
X0088000Y0017682D01*
X0087282Y0017568D01*
X0086504Y0017315D01*
X0085775Y0016944D01*
X0085112Y0016463D01*
X0084534Y0015884D01*
X0084053Y0015222D01*
X0083681Y0014492D01*
X0083514Y0013979D01*
X0082908Y0015442D01*
X0081446Y0016905D01*
X0079534Y0017696D01*
X0077466Y0017696D01*
X0076520Y0017305D01*
X0072860Y0020965D01*
X0072860Y0021106D01*
X0071953Y0022013D01*
X0071953Y0023417D01*
X0071074Y0024295D01*
X0069500Y0024295D01*
X0069500Y0024715D01*
X0070366Y0025581D01*
X0070881Y0026824D01*
X0070881Y0028169D01*
X0070366Y0029411D01*
X0069415Y0030363D01*
X0068173Y0030877D01*
X0066827Y0030877D01*
X0065585Y0030363D01*
X0064634Y0029411D01*
X0064500Y0029089D01*
X0064500Y0030215D01*
X0065366Y0031081D01*
X0065881Y0032324D01*
X0065881Y0033669D01*
X0065366Y0034911D01*
X0064415Y0035863D01*
X0063173Y0036377D01*
X0061827Y0036377D01*
X0060585Y0035863D01*
X0059634Y0034911D01*
X0059119Y0033669D01*
X0059119Y0032324D01*
X0059634Y0031081D01*
X0060500Y0030215D01*
X0060500Y0025325D01*
X0059218Y0024042D01*
X0059299Y0024346D01*
X0059299Y0026996D01*
X0055740Y0026996D01*
X0055740Y0023043D01*
X0057997Y0023043D01*
X0058300Y0023125D01*
X0057172Y0021996D01*
X0043172Y0021996D01*
X0042000Y0020825D01*
X0042000Y0020825D01*
X0039000Y0017825D01*
X0039000Y0017080D01*
X0038168Y0016735D01*
X0037083Y0015650D01*
X0035998Y0016735D01*
X0034160Y0017496D01*
X0032171Y0017496D01*
X0030333Y0016735D01*
X0029248Y0015650D01*
X0028423Y0016475D02*
X0030073Y0016475D01*
X0032117Y0017474D02*
X0026379Y0017474D01*
X0024282Y0017474D02*
X0013008Y0017474D01*
X0012983Y0017482D02*
X0014446Y0018088D01*
X0015908Y0019551D01*
X0016700Y0021462D01*
X0016700Y0023531D01*
X0015908Y0025442D01*
X0014446Y0026905D01*
X0013017Y0027496D01*
X0014446Y0028088D01*
X0015908Y0029551D01*
X0016700Y0031462D01*
X0016700Y0033531D01*
X0015908Y0035442D01*
X0014446Y0036905D01*
X0013017Y0037496D01*
X0014446Y0038088D01*
X0015908Y0039551D01*
X0016700Y0041462D01*
X0016700Y0043531D01*
X0015908Y0045442D01*
X0014446Y0046905D01*
X0013017Y0047496D01*
X0014446Y0048088D01*
X0015908Y0049551D01*
X0016700Y0051462D01*
X0016700Y0053531D01*
X0015908Y0055442D01*
X0014446Y0056905D01*
X0013017Y0057496D01*
X0014446Y0058088D01*
X0015908Y0059551D01*
X0016700Y0061462D01*
X0016700Y0063531D01*
X0015908Y0065442D01*
X0014446Y0066905D01*
X0013017Y0067496D01*
X0014446Y0068088D01*
X0015908Y0069551D01*
X0016700Y0071462D01*
X0016700Y0073531D01*
X0015908Y0075442D01*
X0014446Y0076905D01*
X0013017Y0077496D01*
X0014446Y0078088D01*
X0015908Y0079551D01*
X0016700Y0081462D01*
X0016700Y0083531D01*
X0015908Y0085442D01*
X0014446Y0086905D01*
X0013017Y0087496D01*
X0014446Y0088088D01*
X0015908Y0089551D01*
X0016700Y0091462D01*
X0016700Y0093531D01*
X0015908Y0095442D01*
X0014446Y0096905D01*
X0013017Y0097496D01*
X0014446Y0098088D01*
X0015908Y0099551D01*
X0016700Y0101462D01*
X0016700Y0103531D01*
X0015908Y0105442D01*
X0014446Y0106905D01*
X0013017Y0107496D01*
X0014446Y0108088D01*
X0015908Y0109551D01*
X0016700Y0111462D01*
X0016700Y0113531D01*
X0015908Y0115442D01*
X0014446Y0116905D01*
X0012983Y0117510D01*
X0013496Y0117677D01*
X0014225Y0118049D01*
X0014888Y0118530D01*
X0015466Y0119109D01*
X0015947Y0119771D01*
X0016319Y0120500D01*
X0016572Y0121279D01*
X0016686Y0121996D01*
X0012000Y0121996D01*
X0012000Y0122996D01*
X0016686Y0122996D01*
X0016572Y0123714D01*
X0016319Y0124492D01*
X0015947Y0125222D01*
X0015466Y0125884D01*
X0014888Y0126463D01*
X0014225Y0126944D01*
X0013496Y0127315D01*
X0012718Y0127568D01*
X0012000Y0127682D01*
X0012000Y0122996D01*
X0011000Y0122996D01*
X0011000Y0121996D01*
X0006314Y0121996D01*
X0006428Y0121279D01*
X0006681Y0120500D01*
X0007053Y0119771D01*
X0007534Y0119109D01*
X0008112Y0118530D01*
X0008775Y0118049D01*
X0009504Y0117677D01*
X0010017Y0117510D01*
X0008554Y0116905D01*
X0007092Y0115442D01*
X0006300Y0113531D01*
X0006300Y0111462D01*
X0007092Y0109551D01*
X0008554Y0108088D01*
X0009983Y0107496D01*
X0008554Y0106905D01*
X0007092Y0105442D01*
X0006300Y0103531D01*
X0006300Y0101462D01*
X0007092Y0099551D01*
X0008554Y0098088D01*
X0009983Y0097496D01*
X0008554Y0096905D01*
X0007092Y0095442D01*
X0006300Y0093531D01*
X0006300Y0091462D01*
X0007092Y0089551D01*
X0008554Y0088088D01*
X0009983Y0087496D01*
X0008554Y0086905D01*
X0007092Y0085442D01*
X0006300Y0083531D01*
X0006300Y0081462D01*
X0007092Y0079551D01*
X0008554Y0078088D01*
X0009983Y0077496D01*
X0008554Y0076905D01*
X0007092Y0075442D01*
X0006300Y0073531D01*
X0006300Y0071462D01*
X0007092Y0069551D01*
X0008554Y0068088D01*
X0009983Y0067496D01*
X0008554Y0066905D01*
X0007092Y0065442D01*
X0006300Y0063531D01*
X0006300Y0061462D01*
X0007092Y0059551D01*
X0008554Y0058088D01*
X0009983Y0057496D01*
X0008554Y0056905D01*
X0007092Y0055442D01*
X0006300Y0053531D01*
X0006300Y0051462D01*
X0007092Y0049551D01*
X0008554Y0048088D01*
X0009983Y0047496D01*
X0008554Y0046905D01*
X0007092Y0045442D01*
X0006300Y0043531D01*
X0006300Y0041462D01*
X0007092Y0039551D01*
X0008554Y0038088D01*
X0009983Y0037496D01*
X0008554Y0036905D01*
X0007092Y0035442D01*
X0006300Y0033531D01*
X0006300Y0031462D01*
X0007092Y0029551D01*
X0008554Y0028088D01*
X0009983Y0027496D01*
X0008554Y0026905D01*
X0007092Y0025442D01*
X0006300Y0023531D01*
X0006300Y0021462D01*
X0007092Y0019551D01*
X0008554Y0018088D01*
X0010017Y0017482D01*
X0009504Y0017315D01*
X0008775Y0016944D01*
X0008112Y0016463D01*
X0007534Y0015884D01*
X0007053Y0015222D01*
X0006681Y0014492D01*
X0006428Y0013714D01*
X0006314Y0012996D01*
X0011000Y0012996D01*
X0011000Y0011996D01*
X0012000Y0011996D01*
X0012000Y0007311D01*
X0012718Y0007424D01*
X0013496Y0007677D01*
X0014225Y0008049D01*
X0014888Y0008530D01*
X0015466Y0009109D01*
X0015947Y0009771D01*
X0016319Y0010500D01*
X0016572Y0011279D01*
X0016686Y0011996D01*
X0012000Y0011996D01*
X0012000Y0012996D01*
X0016686Y0012996D01*
X0016572Y0013714D01*
X0016319Y0014492D01*
X0015947Y0015222D01*
X0015466Y0015884D01*
X0014888Y0016463D01*
X0014225Y0016944D01*
X0013496Y0017315D01*
X0012983Y0017482D01*
X0014830Y0018472D02*
X0039648Y0018472D01*
X0039000Y0017474D02*
X0034214Y0017474D01*
X0036257Y0016475D02*
X0037908Y0016475D01*
X0041000Y0016996D02*
X0044000Y0019996D01*
X0058000Y0019996D01*
X0062500Y0024496D01*
X0062500Y0032996D01*
X0060169Y0035447D02*
X0059299Y0035447D01*
X0059299Y0034449D02*
X0059442Y0034449D01*
X0059299Y0034346D02*
X0059299Y0036996D01*
X0055740Y0036996D01*
X0055740Y0033043D01*
X0057997Y0033043D01*
X0058378Y0033146D01*
X0058720Y0033343D01*
X0058999Y0033622D01*
X0059197Y0033964D01*
X0059299Y0034346D01*
X0059119Y0033450D02*
X0058827Y0033450D01*
X0059119Y0032452D02*
X0040500Y0032452D01*
X0040500Y0033450D02*
X0044173Y0033450D01*
X0044579Y0033043D02*
X0050940Y0033043D01*
X0051500Y0033603D01*
X0051760Y0033343D01*
X0052102Y0033146D01*
X0052484Y0033043D01*
X0054740Y0033043D01*
X0054740Y0036996D01*
X0055740Y0036996D01*
X0055740Y0037996D01*
X0059299Y0037996D01*
X0059299Y0040646D01*
X0059197Y0041028D01*
X0058999Y0041370D01*
X0058720Y0041649D01*
X0058378Y0041847D01*
X0057997Y0041949D01*
X0055740Y0041949D01*
X0055740Y0037996D01*
X0054740Y0037996D01*
X0054740Y0041949D01*
X0052484Y0041949D01*
X0052102Y0041847D01*
X0051760Y0041649D01*
X0051500Y0041389D01*
X0050940Y0041949D01*
X0049760Y0041949D01*
X0049760Y0043043D01*
X0050940Y0043043D01*
X0051500Y0043603D01*
X0051760Y0043343D01*
X0052102Y0043146D01*
X0052484Y0043043D01*
X0054740Y0043043D01*
X0054740Y0046996D01*
X0055740Y0046996D01*
X0055740Y0043043D01*
X0057997Y0043043D01*
X0058378Y0043146D01*
X0058720Y0043343D01*
X0058999Y0043622D01*
X0059197Y0043964D01*
X0059299Y0044346D01*
X0059299Y0046996D01*
X0055740Y0046996D01*
X0055740Y0047996D01*
X0059299Y0047996D01*
X0059299Y0050646D01*
X0059197Y0051028D01*
X0058999Y0051370D01*
X0058720Y0051649D01*
X0058378Y0051847D01*
X0057997Y0051949D01*
X0057734Y0051949D01*
X0058282Y0052496D01*
X0059412Y0052496D01*
X0062047Y0049861D01*
X0062047Y0045056D01*
X0062607Y0044496D01*
X0062347Y0044236D01*
X0062149Y0043894D01*
X0062047Y0043513D01*
X0062047Y0041256D01*
X0066000Y0041256D01*
X0066000Y0040256D01*
X0067000Y0040256D01*
X0067000Y0036697D01*
X0069650Y0036697D01*
X0070032Y0036799D01*
X0070374Y0036997D01*
X0070653Y0037276D01*
X0070851Y0037618D01*
X0070953Y0037999D01*
X0070953Y0040256D01*
X0067000Y0040256D01*
X0067000Y0041256D01*
X0070953Y0041256D01*
X0070953Y0043513D01*
X0070851Y0043894D01*
X0070653Y0044236D01*
X0070393Y0044496D01*
X0070953Y0045056D01*
X0070953Y0051215D01*
X0072500Y0049668D01*
X0072500Y0042168D01*
X0078500Y0036168D01*
X0079672Y0034996D01*
X0086672Y0034996D01*
X0088619Y0033049D01*
X0088619Y0031824D01*
X0089134Y0030581D01*
X0090085Y0029630D01*
X0091327Y0029115D01*
X0092673Y0029115D01*
X0093915Y0029630D01*
X0094866Y0030581D01*
X0095381Y0031824D01*
X0095381Y0033169D01*
X0094866Y0034411D01*
X0093915Y0035363D01*
X0092673Y0035877D01*
X0091447Y0035877D01*
X0090273Y0037052D01*
X0091327Y0036615D01*
X0092673Y0036615D01*
X0093915Y0037130D01*
X0094866Y0038081D01*
X0095381Y0039324D01*
X0095381Y0040669D01*
X0094866Y0041911D01*
X0093915Y0042863D01*
X0092673Y0043377D01*
X0091327Y0043377D01*
X0090085Y0042863D01*
X0089218Y0041996D01*
X0082828Y0041996D01*
X0082219Y0042605D01*
X0082966Y0042296D01*
X0085034Y0042296D01*
X0086946Y0043088D01*
X0088408Y0044551D01*
X0089200Y0046462D01*
X0089200Y0048531D01*
X0088408Y0050442D01*
X0088354Y0050496D01*
X0097047Y0050496D01*
X0097047Y0046056D01*
X0097607Y0045496D01*
X0097047Y0044936D01*
X0097047Y0038576D01*
X0097926Y0037697D01*
X0099500Y0037697D01*
X0099500Y0037492D01*
X0098516Y0037492D01*
X0097638Y0036614D01*
X0097638Y0030647D01*
X0098516Y0029768D01*
X0104484Y0029768D01*
X0105362Y0030647D01*
X0105362Y0036614D01*
X0104484Y0037492D01*
X0103500Y0037492D01*
X0103500Y0037697D01*
X0105074Y0037697D01*
X0105953Y0038576D01*
X0105953Y0044936D01*
X0105393Y0045496D01*
X0105953Y0046056D01*
X0105953Y0051955D01*
X0107047Y0050861D01*
X0107047Y0046056D01*
X0107607Y0045496D01*
X0107047Y0044936D01*
X0107047Y0038576D01*
X0107926Y0037697D01*
X0109500Y0037697D01*
X0109500Y0037492D01*
X0108516Y0037492D01*
X0107638Y0036614D01*
X0107638Y0030647D01*
X0108516Y0029768D01*
X0114484Y0029768D01*
X0115362Y0030647D01*
X0115362Y0036614D01*
X0114484Y0037492D01*
X0113500Y0037492D01*
X0113500Y0037697D01*
X0115074Y0037697D01*
X0115953Y0038576D01*
X0115953Y0044936D01*
X0115393Y0045496D01*
X0115953Y0046056D01*
X0115953Y0052417D01*
X0115074Y0053295D01*
X0110269Y0053295D01*
X0107240Y0056325D01*
X0106069Y0057496D01*
X0095948Y0057496D01*
X0096121Y0057596D01*
X0096400Y0057875D01*
X0096598Y0058217D01*
X0096700Y0058599D01*
X0096700Y0061996D01*
X0092000Y0061996D01*
X0092000Y0062996D01*
X0096700Y0062996D01*
X0096700Y0066394D01*
X0096598Y0066775D01*
X0096400Y0067117D01*
X0096121Y0067396D01*
X0095779Y0067594D01*
X0095397Y0067696D01*
X0093500Y0067696D01*
X0094446Y0068088D01*
X0095908Y0069551D01*
X0096300Y0070496D01*
X0098701Y0070496D01*
X0098701Y0068922D01*
X0099579Y0068043D01*
X0100760Y0068043D01*
X0100760Y0066949D01*
X0099579Y0066949D01*
X0098701Y0066070D01*
X0098701Y0058922D01*
X0099579Y0058043D01*
X0105940Y0058043D01*
X0106500Y0058603D01*
X0106760Y0058343D01*
X0107102Y0058146D01*
X0107484Y0058043D01*
X0109740Y0058043D01*
X0109740Y0061996D01*
X0110740Y0061996D01*
X0110740Y0058043D01*
X0112997Y0058043D01*
X0113378Y0058146D01*
X0113720Y0058343D01*
X0113999Y0058622D01*
X0114197Y0058964D01*
X0114299Y0059346D01*
X0114299Y0061996D01*
X0110740Y0061996D01*
X0110740Y0062996D01*
X0114299Y0062996D01*
X0114299Y0065646D01*
X0114197Y0066028D01*
X0113999Y0066370D01*
X0113720Y0066649D01*
X0113378Y0066847D01*
X0112997Y0066949D01*
X0110740Y0066949D01*
X0110740Y0062996D01*
X0109740Y0062996D01*
X0109740Y0066949D01*
X0107484Y0066949D01*
X0107102Y0066847D01*
X0106760Y0066649D01*
X0106500Y0066389D01*
X0105940Y0066949D01*
X0104760Y0066949D01*
X0104760Y0068043D01*
X0105940Y0068043D01*
X0106500Y0068603D01*
X0106760Y0068343D01*
X0107102Y0068146D01*
X0107484Y0068043D01*
X0109740Y0068043D01*
X0109740Y0071996D01*
X0110740Y0071996D01*
X0110740Y0068043D01*
X0112997Y0068043D01*
X0113378Y0068146D01*
X0113720Y0068343D01*
X0113999Y0068622D01*
X0114197Y0068964D01*
X0114299Y0069346D01*
X0114299Y0071996D01*
X0110740Y0071996D01*
X0110740Y0072996D01*
X0114299Y0072996D01*
X0114299Y0075646D01*
X0114197Y0076028D01*
X0113999Y0076370D01*
X0113720Y0076649D01*
X0113378Y0076847D01*
X0112997Y0076949D01*
X0110740Y0076949D01*
X0110740Y0072996D01*
X0109740Y0072996D01*
X0109740Y0076949D01*
X0107484Y0076949D01*
X0107102Y0076847D01*
X0106760Y0076649D01*
X0106500Y0076389D01*
X0105940Y0076949D01*
X0099579Y0076949D01*
X0098701Y0076070D01*
X0098701Y0074496D01*
X0096300Y0074496D01*
X0095908Y0075442D01*
X0094446Y0076905D01*
X0093017Y0077496D01*
X0094446Y0078088D01*
X0095908Y0079551D01*
X0096300Y0080496D01*
X0098701Y0080496D01*
X0098701Y0078922D01*
X0099579Y0078043D01*
X0105940Y0078043D01*
X0106500Y0078603D01*
X0107060Y0078043D01*
X0113421Y0078043D01*
X0114299Y0078922D01*
X0114299Y0086070D01*
X0113421Y0086949D01*
X0112240Y0086949D01*
X0112240Y0088043D01*
X0113421Y0088043D01*
X0114299Y0088922D01*
X0114299Y0096070D01*
X0113421Y0096949D01*
X0112240Y0096949D01*
X0112240Y0099584D01*
X0109881Y0101944D01*
X0109881Y0103169D01*
X0109366Y0104411D01*
X0108415Y0105363D01*
X0107173Y0105877D01*
X0105827Y0105877D01*
X0104585Y0105363D01*
X0103634Y0104411D01*
X0103119Y0103169D01*
X0103119Y0101824D01*
X0103634Y0100581D01*
X0104585Y0099630D01*
X0105827Y0099115D01*
X0107053Y0099115D01*
X0108240Y0097928D01*
X0108240Y0096949D01*
X0107060Y0096949D01*
X0106500Y0096389D01*
X0105940Y0096949D01*
X0099579Y0096949D01*
X0098701Y0096070D01*
X0098701Y0094496D01*
X0096300Y0094496D01*
X0095908Y0095442D01*
X0094446Y0096905D01*
X0092534Y0097696D01*
X0090466Y0097696D01*
X0089520Y0097305D01*
X0087328Y0099496D01*
X0083093Y0099496D01*
X0083415Y0099630D01*
X0084366Y0100581D01*
X0084881Y0101824D01*
X0084881Y0103169D01*
X0084366Y0104411D01*
X0083415Y0105363D01*
X0082173Y0105877D01*
X0080827Y0105877D01*
X0079585Y0105363D01*
X0078718Y0104496D01*
X0073172Y0104496D01*
X0070390Y0101714D01*
X0070390Y0103115D01*
X0070673Y0103115D01*
X0071915Y0103630D01*
X0072866Y0104581D01*
X0073381Y0105824D01*
X0073381Y0107169D01*
X0072866Y0108411D01*
X0071915Y0109363D01*
X0070673Y0109877D01*
X0069327Y0109877D01*
X0068085Y0109363D01*
X0067134Y0108411D01*
X0066619Y0107169D01*
X0066619Y0105944D01*
X0066453Y0105777D01*
X0066453Y0114167D01*
X0066866Y0114581D01*
X0067381Y0115824D01*
X0067381Y0117169D01*
X0067019Y0118043D01*
X0072940Y0118043D01*
X0073500Y0118603D01*
X0074060Y0118043D01*
X0080421Y0118043D01*
X0081299Y0118922D01*
X0081299Y0120496D01*
X0083718Y0120496D01*
X0084585Y0119630D01*
X0085827Y0119115D01*
X0087173Y0119115D01*
X0088415Y0119630D01*
X0089366Y0120581D01*
X0089881Y0121824D01*
X0089881Y0123169D01*
X0089366Y0124411D01*
X0088415Y0125363D01*
X0087173Y0125877D01*
X0085827Y0125877D01*
X0084585Y0125363D01*
X0083718Y0124496D01*
X0081299Y0124496D01*
X0081299Y0126070D01*
X0080421Y0126949D01*
X0074060Y0126949D01*
X0073500Y0126389D01*
X0072940Y0126949D01*
X0066579Y0126949D01*
X0065701Y0126070D01*
X0065701Y0124496D01*
X0062496Y0124496D01*
X0062496Y0125480D01*
X0061617Y0126358D01*
X0055650Y0126358D01*
X0054772Y0125480D01*
X0054772Y0119513D01*
X0055650Y0118634D01*
X0061356Y0118634D01*
X0061134Y0118411D01*
X0060619Y0117169D01*
X0060619Y0115824D01*
X0061134Y0114581D01*
X0062085Y0113630D01*
X0062453Y0113477D01*
X0062453Y0111872D01*
X0059881Y0114444D01*
X0059881Y0115669D01*
X0059366Y0116911D01*
X0058415Y0117863D01*
X0057173Y0118377D01*
X0055827Y0118377D01*
X0054585Y0117863D01*
X0053634Y0116911D01*
X0053119Y0115669D01*
X0053119Y0114324D01*
X0053556Y0113269D01*
X0053500Y0113325D01*
X0052328Y0114496D01*
X0046281Y0114496D01*
X0046300Y0114541D01*
X0046300Y0116451D01*
X0045569Y0118215D01*
X0044219Y0119565D01*
X0042455Y0120296D01*
X0040545Y0120296D01*
X0038781Y0119565D01*
X0038712Y0119496D01*
X0036299Y0119496D01*
X0036299Y0121070D01*
X0035421Y0121949D01*
X0029060Y0121949D01*
X0028500Y0121389D01*
X0028240Y0121649D01*
X0027898Y0121847D01*
X0027516Y0121949D01*
X0025260Y0121949D01*
X0025260Y0117996D01*
X0024260Y0117996D01*
X0024260Y0116996D01*
X0025260Y0116996D01*
X0025260Y0113043D01*
X0027516Y0113043D01*
X0027898Y0113146D01*
X0028240Y0113343D01*
X0028500Y0113603D01*
X0029060Y0113043D01*
X0035421Y0113043D01*
X0036299Y0113922D01*
X0036299Y0115496D01*
X0036700Y0115496D01*
X0036700Y0114541D01*
X0037431Y0112777D01*
X0038781Y0111427D01*
X0040545Y0110696D01*
X0042455Y0110696D01*
X0043174Y0110994D01*
X0043672Y0110496D01*
X0050672Y0110496D01*
X0056547Y0104621D01*
X0056547Y0100777D01*
X0051000Y0106325D01*
X0049828Y0107496D01*
X0045867Y0107496D01*
X0045569Y0108215D01*
X0044219Y0109565D01*
X0042455Y0110296D01*
X0040545Y0110296D01*
X0038781Y0109565D01*
X0037431Y0108215D01*
X0037133Y0107496D01*
X0036299Y0107496D01*
X0036299Y0110570D01*
X0035421Y0111449D01*
X0029060Y0111449D01*
X0028500Y0110889D01*
X0028240Y0111149D01*
X0027898Y0111347D01*
X0027516Y0111449D01*
X0025260Y0111449D01*
X0025260Y0107496D01*
X0024260Y0107496D01*
X0024260Y0106496D01*
X0025260Y0106496D01*
X0025260Y0102543D01*
X0027516Y0102543D01*
X0027898Y0102646D01*
X0028240Y0102843D01*
X0028500Y0103103D01*
X0029060Y0102543D01*
X0035421Y0102543D01*
X0036299Y0103422D01*
X0036299Y0103496D01*
X0037133Y0103496D01*
X0037431Y0102777D01*
X0038781Y0101427D01*
X0040545Y0100696D01*
X0042455Y0100696D01*
X0044219Y0101427D01*
X0045569Y0102777D01*
X0045867Y0103496D01*
X0048172Y0103496D01*
X0053172Y0098496D01*
X0049502Y0098496D01*
X0048623Y0097618D01*
X0048623Y0090575D01*
X0049502Y0089696D01*
X0065624Y0089696D01*
X0065635Y0089707D01*
X0065674Y0089696D01*
X0066421Y0089696D01*
X0066421Y0090493D01*
X0066421Y0090493D01*
X0066421Y0089696D01*
X0067169Y0089696D01*
X0067208Y0089707D01*
X0067218Y0089696D01*
X0073498Y0089696D01*
X0074377Y0090575D01*
X0074377Y0093318D01*
X0076555Y0095496D01*
X0079907Y0095496D01*
X0079585Y0095363D01*
X0078634Y0094411D01*
X0078119Y0093169D01*
X0078119Y0091824D01*
X0078634Y0090581D01*
X0078842Y0090373D01*
X0074579Y0090373D01*
X0073700Y0089494D01*
X0073700Y0083266D01*
X0072381Y0084585D01*
X0072381Y0085669D01*
X0071866Y0086911D01*
X0070915Y0087863D01*
X0069673Y0088377D01*
X0068327Y0088377D01*
X0067085Y0087863D01*
X0066134Y0086911D01*
X0065619Y0085669D01*
X0065619Y0084324D01*
X0066134Y0083081D01*
X0067085Y0082130D01*
X0068327Y0081615D01*
X0069411Y0081615D01*
X0072677Y0078349D01*
X0073700Y0078349D01*
X0073700Y0072578D01*
X0073415Y0072863D01*
X0072173Y0073377D01*
X0070827Y0073377D01*
X0069585Y0072863D01*
X0068634Y0071911D01*
X0068119Y0070669D01*
X0068119Y0069444D01*
X0066390Y0067714D01*
X0066390Y0065296D01*
X0049502Y0065296D01*
X0048623Y0064418D01*
X0048623Y0057375D01*
X0048673Y0057325D01*
X0048673Y0053668D01*
X0049845Y0052496D01*
X0052718Y0052496D01*
X0053266Y0051949D01*
X0052484Y0051949D01*
X0052102Y0051847D01*
X0051760Y0051649D01*
X0051500Y0051389D01*
X0050940Y0051949D01*
X0046900Y0051949D01*
X0046900Y0064619D01*
X0048421Y0064619D01*
X0049300Y0065498D01*
X0049300Y0066638D01*
X0050470Y0066638D01*
X0053328Y0069496D01*
X0054500Y0070668D01*
X0054500Y0071215D01*
X0055366Y0072081D01*
X0055881Y0073324D01*
X0055881Y0074669D01*
X0055366Y0075911D01*
X0054415Y0076863D01*
X0053173Y0077377D01*
X0051827Y0077377D01*
X0050585Y0076863D01*
X0049634Y0075911D01*
X0049300Y0075106D01*
X0049300Y0084355D01*
X0051813Y0084355D01*
X0058119Y0078049D01*
X0058119Y0076824D01*
X0058634Y0075581D01*
X0059585Y0074630D01*
X0060827Y0074115D01*
X0062173Y0074115D01*
X0063415Y0074630D01*
X0064366Y0075581D01*
X0064881Y0076824D01*
X0064881Y0078169D01*
X0064366Y0079411D01*
X0063415Y0080363D01*
X0062173Y0080877D01*
X0060947Y0080877D01*
X0053470Y0088354D01*
X0049300Y0088354D01*
X0049300Y0089494D01*
X0048421Y0090373D01*
X0045678Y0090373D01*
X0042555Y0093496D01*
X0041782Y0093496D01*
X0040915Y0094363D01*
X0039673Y0094877D01*
X0038327Y0094877D01*
X0037085Y0094363D01*
X0036134Y0093411D01*
X0035619Y0092169D01*
X0035619Y0090824D01*
X0036134Y0089581D01*
X0037085Y0088630D01*
X0038327Y0088115D01*
X0039673Y0088115D01*
X0040500Y0088458D01*
X0040500Y0086386D01*
X0036860Y0086386D01*
X0036760Y0086486D01*
X0036712Y0086486D01*
X0031155Y0093043D01*
X0031740Y0093043D01*
X0031740Y0096996D01*
X0032740Y0096996D01*
X0032740Y0093043D01*
X0034997Y0093043D01*
X0035378Y0093146D01*
X0035720Y0093343D01*
X0035999Y0093622D01*
X0036197Y0093964D01*
X0036299Y0094346D01*
X0036299Y0096996D01*
X0032740Y0096996D01*
X0032740Y0097996D01*
X0036299Y0097996D01*
X0036299Y0100646D01*
X0036197Y0101028D01*
X0035999Y0101370D01*
X0035720Y0101649D01*
X0035378Y0101847D01*
X0034997Y0101949D01*
X0032740Y0101949D01*
X0032740Y0097996D01*
X0031740Y0097996D01*
X0031740Y0101949D01*
X0029484Y0101949D01*
X0029102Y0101847D01*
X0028760Y0101649D01*
X0028500Y0101389D01*
X0027940Y0101949D01*
X0021579Y0101949D01*
X0020701Y0101070D01*
X0020701Y0093922D01*
X0021579Y0093043D01*
X0025912Y0093043D01*
X0033163Y0084487D01*
X0029485Y0080810D01*
X0029276Y0080896D01*
X0027724Y0080896D01*
X0026291Y0080302D01*
X0025194Y0079205D01*
X0024600Y0077772D01*
X0024600Y0076220D01*
X0025194Y0074787D01*
X0026291Y0073690D01*
X0027724Y0073096D01*
X0029276Y0073096D01*
X0030709Y0073690D01*
X0031806Y0074787D01*
X0032400Y0076220D01*
X0032400Y0077772D01*
X0032313Y0077981D01*
X0034119Y0079787D01*
X0034119Y0079324D01*
X0034634Y0078081D01*
X0035585Y0077130D01*
X0036827Y0076615D01*
X0038173Y0076615D01*
X0039415Y0077130D01*
X0040366Y0078081D01*
X0040500Y0078404D01*
X0040500Y0073372D01*
X0040511Y0073362D01*
X0040500Y0073322D01*
X0040500Y0072606D01*
X0037672Y0072606D01*
X0036500Y0071435D01*
X0036500Y0030278D01*
X0035718Y0029496D01*
X0034299Y0029496D01*
X0034299Y0031070D01*
X0033421Y0031949D01*
X0027060Y0031949D01*
X0026500Y0031389D01*
X0026240Y0031649D01*
X0025898Y0031847D01*
X0025516Y0031949D01*
X0023260Y0031949D01*
X0023260Y0027996D01*
X0022260Y0027996D01*
X0022260Y0026996D01*
X0023260Y0026996D01*
X0023260Y0023043D01*
X0025516Y0023043D01*
X0025898Y0023146D01*
X0026240Y0023343D01*
X0026500Y0023603D01*
X0027060Y0023043D01*
X0033421Y0023043D01*
X0034299Y0023922D01*
X0034299Y0025496D01*
X0035718Y0025496D01*
X0036585Y0024630D01*
X0037827Y0024115D01*
X0039173Y0024115D01*
X0040415Y0024630D01*
X0041282Y0025496D01*
X0043701Y0025496D01*
X0043701Y0023922D01*
X0044579Y0023043D01*
X0050940Y0023043D01*
X0051500Y0023603D01*
X0051760Y0023343D01*
X0052102Y0023146D01*
X0052484Y0023043D01*
X0054740Y0023043D01*
X0054740Y0026996D01*
X0055740Y0026996D01*
X0055740Y0027996D01*
X0059299Y0027996D01*
X0059299Y0030646D01*
X0059197Y0031028D01*
X0058999Y0031370D01*
X0058720Y0031649D01*
X0058378Y0031847D01*
X0057997Y0031949D01*
X0055740Y0031949D01*
X0055740Y0027996D01*
X0054740Y0027996D01*
X0054740Y0031949D01*
X0052484Y0031949D01*
X0052102Y0031847D01*
X0051760Y0031649D01*
X0051500Y0031389D01*
X0050940Y0031949D01*
X0044579Y0031949D01*
X0043701Y0031070D01*
X0043701Y0029496D01*
X0041282Y0029496D01*
X0040500Y0030278D01*
X0040500Y0068606D01*
X0040500Y0065498D01*
X0041379Y0064619D01*
X0042900Y0064619D01*
X0042900Y0049528D01*
X0043701Y0048727D01*
X0043701Y0043922D01*
X0044579Y0043043D01*
X0045760Y0043043D01*
X0045760Y0041949D01*
X0044579Y0041949D01*
X0043701Y0041070D01*
X0043701Y0033922D01*
X0044579Y0033043D01*
X0043701Y0034449D02*
X0040500Y0034449D01*
X0040500Y0035447D02*
X0043701Y0035447D01*
X0043701Y0036446D02*
X0040500Y0036446D01*
X0040500Y0037444D02*
X0043701Y0037444D01*
X0043701Y0038443D02*
X0040500Y0038443D01*
X0040500Y0039441D02*
X0043701Y0039441D01*
X0043701Y0040440D02*
X0040500Y0040440D01*
X0040500Y0041438D02*
X0044069Y0041438D01*
X0045760Y0042437D02*
X0040500Y0042437D01*
X0040500Y0043435D02*
X0044188Y0043435D01*
X0043701Y0044434D02*
X0040500Y0044434D01*
X0040500Y0045432D02*
X0043701Y0045432D01*
X0043701Y0046431D02*
X0040500Y0046431D01*
X0040500Y0047429D02*
X0043701Y0047429D01*
X0043701Y0048428D02*
X0040500Y0048428D01*
X0040500Y0049426D02*
X0043001Y0049426D01*
X0042900Y0050425D02*
X0040500Y0050425D01*
X0040500Y0051423D02*
X0042900Y0051423D01*
X0042900Y0052422D02*
X0040500Y0052422D01*
X0040500Y0053420D02*
X0042900Y0053420D01*
X0042900Y0054419D02*
X0040500Y0054419D01*
X0040500Y0055417D02*
X0042900Y0055417D01*
X0042900Y0056416D02*
X0040500Y0056416D01*
X0040500Y0057414D02*
X0042900Y0057414D01*
X0042900Y0058413D02*
X0040500Y0058413D01*
X0040500Y0059411D02*
X0042900Y0059411D01*
X0042900Y0060410D02*
X0040500Y0060410D01*
X0040500Y0061408D02*
X0042900Y0061408D01*
X0042900Y0062407D02*
X0040500Y0062407D01*
X0040500Y0063405D02*
X0042900Y0063405D01*
X0042900Y0064404D02*
X0040500Y0064404D01*
X0040500Y0065402D02*
X0040596Y0065402D01*
X0040500Y0066401D02*
X0040500Y0066401D01*
X0040500Y0067399D02*
X0040500Y0067399D01*
X0040500Y0068398D02*
X0040500Y0068398D01*
X0040500Y0068606D02*
X0040500Y0068606D01*
X0038500Y0070606D02*
X0038500Y0027496D01*
X0047760Y0027496D01*
X0043701Y0025462D02*
X0041247Y0025462D01*
X0040014Y0024463D02*
X0043701Y0024463D01*
X0044158Y0023465D02*
X0033842Y0023465D01*
X0034299Y0024463D02*
X0036986Y0024463D01*
X0035753Y0025462D02*
X0034299Y0025462D01*
X0030240Y0027496D02*
X0038500Y0027496D01*
X0036500Y0030455D02*
X0034299Y0030455D01*
X0033916Y0031453D02*
X0036500Y0031453D01*
X0036500Y0032452D02*
X0016700Y0032452D01*
X0016700Y0033450D02*
X0019173Y0033450D01*
X0019280Y0033343D02*
X0019622Y0033146D01*
X0020003Y0033043D01*
X0022260Y0033043D01*
X0022260Y0036996D01*
X0023260Y0036996D01*
X0023260Y0033043D01*
X0025516Y0033043D01*
X0025898Y0033146D01*
X0026240Y0033343D01*
X0026500Y0033603D01*
X0027060Y0033043D01*
X0033421Y0033043D01*
X0034299Y0033922D01*
X0034299Y0041070D01*
X0033421Y0041949D01*
X0032240Y0041949D01*
X0032240Y0056835D01*
X0032400Y0057220D01*
X0032400Y0058772D01*
X0031806Y0060205D01*
X0030709Y0061302D01*
X0029276Y0061896D01*
X0027724Y0061896D01*
X0026291Y0061302D01*
X0025194Y0060205D01*
X0024600Y0058772D01*
X0024600Y0057220D01*
X0025194Y0055787D01*
X0026291Y0054690D01*
X0027724Y0054096D01*
X0028240Y0054096D01*
X0028240Y0041949D01*
X0027060Y0041949D01*
X0026500Y0041389D01*
X0026240Y0041649D01*
X0025898Y0041847D01*
X0025516Y0041949D01*
X0023260Y0041949D01*
X0023260Y0037996D01*
X0022260Y0037996D01*
X0022260Y0036996D01*
X0018701Y0036996D01*
X0018701Y0034346D01*
X0018803Y0033964D01*
X0019000Y0033622D01*
X0019280Y0033343D01*
X0018701Y0034449D02*
X0016320Y0034449D01*
X0015903Y0035447D02*
X0018701Y0035447D01*
X0018701Y0036446D02*
X0014905Y0036446D01*
X0014800Y0038443D02*
X0018701Y0038443D01*
X0018701Y0037996D02*
X0022260Y0037996D01*
X0022260Y0041949D01*
X0020003Y0041949D01*
X0019622Y0041847D01*
X0019280Y0041649D01*
X0019000Y0041370D01*
X0018803Y0041028D01*
X0018701Y0040646D01*
X0018701Y0037996D01*
X0018701Y0039441D02*
X0015799Y0039441D01*
X0016277Y0040440D02*
X0018701Y0040440D01*
X0019069Y0041438D02*
X0016690Y0041438D01*
X0016700Y0042437D02*
X0028240Y0042437D01*
X0028240Y0043435D02*
X0016700Y0043435D01*
X0016326Y0044434D02*
X0028240Y0044434D01*
X0028240Y0045432D02*
X0015912Y0045432D01*
X0014919Y0046431D02*
X0028240Y0046431D01*
X0028240Y0047429D02*
X0013179Y0047429D01*
X0014785Y0048428D02*
X0028240Y0048428D01*
X0028240Y0049426D02*
X0015784Y0049426D01*
X0016270Y0050425D02*
X0028240Y0050425D01*
X0028240Y0051423D02*
X0016684Y0051423D01*
X0016700Y0052422D02*
X0028240Y0052422D01*
X0028240Y0053420D02*
X0016700Y0053420D01*
X0016332Y0054419D02*
X0026945Y0054419D01*
X0025563Y0055417D02*
X0015918Y0055417D01*
X0014934Y0056416D02*
X0024933Y0056416D01*
X0024600Y0057414D02*
X0013215Y0057414D01*
X0014771Y0058413D02*
X0024600Y0058413D01*
X0024865Y0059411D02*
X0015769Y0059411D01*
X0016264Y0060410D02*
X0025398Y0060410D01*
X0026547Y0061408D02*
X0016678Y0061408D01*
X0016700Y0062407D02*
X0036500Y0062407D01*
X0036500Y0063405D02*
X0016700Y0063405D01*
X0016338Y0064404D02*
X0036500Y0064404D01*
X0036500Y0065402D02*
X0015925Y0065402D01*
X0014949Y0066401D02*
X0036500Y0066401D01*
X0036500Y0067399D02*
X0013251Y0067399D01*
X0014756Y0068398D02*
X0036500Y0068398D01*
X0036500Y0069396D02*
X0015754Y0069396D01*
X0016258Y0070395D02*
X0036500Y0070395D01*
X0036500Y0071393D02*
X0016672Y0071393D01*
X0016700Y0072392D02*
X0037457Y0072392D01*
X0036500Y0072575D02*
X0044900Y0072575D01*
X0044900Y0070606D02*
X0038500Y0070606D01*
X0040500Y0073391D02*
X0029986Y0073391D01*
X0031408Y0074389D02*
X0040500Y0074389D01*
X0040500Y0075388D02*
X0032055Y0075388D01*
X0032400Y0076386D02*
X0040500Y0076386D01*
X0040500Y0077385D02*
X0039670Y0077385D01*
X0040491Y0078383D02*
X0040500Y0078383D01*
X0037500Y0079996D02*
X0039921Y0082417D01*
X0044900Y0082417D01*
X0044900Y0084386D02*
X0035890Y0084386D01*
X0028500Y0076996D01*
X0025592Y0074389D02*
X0016344Y0074389D01*
X0016700Y0073391D02*
X0027014Y0073391D01*
X0024945Y0075388D02*
X0015931Y0075388D01*
X0014964Y0076386D02*
X0024600Y0076386D01*
X0024600Y0077385D02*
X0013287Y0077385D01*
X0014741Y0078383D02*
X0024853Y0078383D01*
X0025370Y0079382D02*
X0015739Y0079382D01*
X0016252Y0080380D02*
X0026478Y0080380D01*
X0030054Y0081379D02*
X0016666Y0081379D01*
X0016700Y0082377D02*
X0031052Y0082377D01*
X0032051Y0083376D02*
X0016700Y0083376D01*
X0016351Y0084374D02*
X0033050Y0084374D01*
X0032412Y0085373D02*
X0015937Y0085373D01*
X0014979Y0086371D02*
X0031566Y0086371D01*
X0030720Y0087370D02*
X0013323Y0087370D01*
X0014726Y0088368D02*
X0029874Y0088368D01*
X0029028Y0089367D02*
X0015724Y0089367D01*
X0016246Y0090365D02*
X0028181Y0090365D01*
X0027335Y0091364D02*
X0016659Y0091364D01*
X0016700Y0092362D02*
X0026489Y0092362D01*
X0031732Y0092362D02*
X0035699Y0092362D01*
X0035738Y0093361D02*
X0036113Y0093361D01*
X0036299Y0094359D02*
X0037081Y0094359D01*
X0036299Y0095358D02*
X0048623Y0095358D01*
X0048623Y0096356D02*
X0036299Y0096356D01*
X0036299Y0098353D02*
X0049359Y0098353D01*
X0048623Y0097355D02*
X0032740Y0097355D01*
X0032740Y0098353D02*
X0031740Y0098353D01*
X0031740Y0099352D02*
X0032740Y0099352D01*
X0032740Y0100350D02*
X0031740Y0100350D01*
X0031740Y0101349D02*
X0032740Y0101349D01*
X0036012Y0101349D02*
X0038970Y0101349D01*
X0037861Y0102347D02*
X0016700Y0102347D01*
X0016700Y0103346D02*
X0020871Y0103346D01*
X0020803Y0103464D02*
X0021000Y0103122D01*
X0021280Y0102843D01*
X0021622Y0102646D01*
X0022003Y0102543D01*
X0024260Y0102543D01*
X0024260Y0106496D01*
X0020701Y0106496D01*
X0020701Y0103846D01*
X0020803Y0103464D01*
X0020701Y0104344D02*
X0016363Y0104344D01*
X0015949Y0105343D02*
X0020701Y0105343D01*
X0020701Y0106341D02*
X0015009Y0106341D01*
X0013395Y0107340D02*
X0024260Y0107340D01*
X0024260Y0107496D02*
X0020701Y0107496D01*
X0020701Y0110146D01*
X0020803Y0110528D01*
X0021000Y0110870D01*
X0021280Y0111149D01*
X0021622Y0111347D01*
X0022003Y0111449D01*
X0024260Y0111449D01*
X0024260Y0107496D01*
X0024260Y0108338D02*
X0025260Y0108338D01*
X0025260Y0109337D02*
X0024260Y0109337D01*
X0024260Y0110335D02*
X0025260Y0110335D01*
X0025260Y0111334D02*
X0024260Y0111334D01*
X0024260Y0113043D02*
X0024260Y0116996D01*
X0020701Y0116996D01*
X0020701Y0114346D01*
X0020803Y0113964D01*
X0021000Y0113622D01*
X0021280Y0113343D01*
X0021622Y0113146D01*
X0022003Y0113043D01*
X0024260Y0113043D01*
X0024260Y0113331D02*
X0025260Y0113331D01*
X0025260Y0114329D02*
X0024260Y0114329D01*
X0024260Y0115328D02*
X0025260Y0115328D01*
X0025260Y0116326D02*
X0024260Y0116326D01*
X0024260Y0117325D02*
X0013430Y0117325D01*
X0014604Y0118324D02*
X0020701Y0118324D01*
X0020701Y0117996D02*
X0024260Y0117996D01*
X0024260Y0121949D01*
X0022003Y0121949D01*
X0021622Y0121847D01*
X0021280Y0121649D01*
X0021000Y0121370D01*
X0020803Y0121028D01*
X0020701Y0120646D01*
X0020701Y0117996D01*
X0020701Y0119322D02*
X0015621Y0119322D01*
X0016228Y0120321D02*
X0020701Y0120321D01*
X0020971Y0121319D02*
X0016578Y0121319D01*
X0016635Y0123316D02*
X0046504Y0123316D01*
X0046504Y0122996D02*
X0046504Y0125056D01*
X0046606Y0125437D01*
X0046804Y0125779D01*
X0047083Y0126059D01*
X0047425Y0126256D01*
X0047806Y0126358D01*
X0049866Y0126358D01*
X0049866Y0122996D01*
X0049866Y0121996D01*
X0050866Y0121996D01*
X0050866Y0118634D01*
X0052926Y0118634D01*
X0053307Y0118736D01*
X0053649Y0118934D01*
X0053929Y0119213D01*
X0054126Y0119555D01*
X0054228Y0119937D01*
X0054228Y0121996D01*
X0050866Y0121996D01*
X0050866Y0122996D01*
X0054228Y0122996D01*
X0054228Y0125056D01*
X0054126Y0125437D01*
X0053929Y0125779D01*
X0053649Y0126059D01*
X0053307Y0126256D01*
X0052926Y0126358D01*
X0050866Y0126358D01*
X0050866Y0122996D01*
X0049866Y0122996D01*
X0046504Y0122996D01*
X0046504Y0121996D02*
X0046504Y0119937D01*
X0046606Y0119555D01*
X0046804Y0119213D01*
X0047083Y0118934D01*
X0047425Y0118736D01*
X0047806Y0118634D01*
X0049866Y0118634D01*
X0049866Y0121996D01*
X0046504Y0121996D01*
X0046504Y0121319D02*
X0036050Y0121319D01*
X0036299Y0120321D02*
X0046504Y0120321D01*
X0046741Y0119322D02*
X0044462Y0119322D01*
X0045461Y0118324D02*
X0055698Y0118324D01*
X0054962Y0119322D02*
X0053992Y0119322D01*
X0054228Y0120321D02*
X0054772Y0120321D01*
X0054772Y0121319D02*
X0054228Y0121319D01*
X0054772Y0122318D02*
X0050866Y0122318D01*
X0050866Y0123316D02*
X0049866Y0123316D01*
X0049866Y0122318D02*
X0012000Y0122318D01*
X0012000Y0123316D02*
X0011000Y0123316D01*
X0011000Y0122996D02*
X0011000Y0127682D01*
X0010282Y0127568D01*
X0009504Y0127315D01*
X0008775Y0126944D01*
X0008112Y0126463D01*
X0007534Y0125884D01*
X0007053Y0125222D01*
X0006681Y0124492D01*
X0006428Y0123714D01*
X0006314Y0122996D01*
X0011000Y0122996D01*
X0011000Y0122318D02*
X0003500Y0122318D01*
X0003500Y0123316D02*
X0006365Y0123316D01*
X0006623Y0124315D02*
X0003500Y0124315D01*
X0003500Y0125313D02*
X0007119Y0125313D01*
X0007962Y0126312D02*
X0003500Y0126312D01*
X0003500Y0127310D02*
X0009494Y0127310D01*
X0011000Y0127310D02*
X0012000Y0127310D01*
X0012000Y0126312D02*
X0011000Y0126312D01*
X0011000Y0125313D02*
X0012000Y0125313D01*
X0012000Y0124315D02*
X0011000Y0124315D01*
X0013506Y0127310D02*
X0119494Y0127310D01*
X0119504Y0127315D02*
X0118775Y0126944D01*
X0118112Y0126463D01*
X0117534Y0125884D01*
X0117053Y0125222D01*
X0116681Y0124492D01*
X0116428Y0123714D01*
X0116314Y0122996D01*
X0121000Y0122996D01*
X0121000Y0121996D01*
X0116314Y0121996D01*
X0116428Y0121279D01*
X0116681Y0120500D01*
X0117053Y0119771D01*
X0117534Y0119109D01*
X0118112Y0118530D01*
X0118775Y0118049D01*
X0119504Y0117677D01*
X0120017Y0117510D01*
X0118554Y0116905D01*
X0117987Y0116337D01*
X0109828Y0124496D01*
X0099672Y0124496D01*
X0098500Y0123325D01*
X0095980Y0120805D01*
X0095034Y0121196D01*
X0092966Y0121196D01*
X0091054Y0120405D01*
X0089592Y0118942D01*
X0088800Y0117031D01*
X0088800Y0114962D01*
X0089592Y0113051D01*
X0091054Y0111588D01*
X0092966Y0110796D01*
X0095034Y0110796D01*
X0096946Y0111588D01*
X0098408Y0113051D01*
X0099014Y0114513D01*
X0099181Y0114000D01*
X0099553Y0113271D01*
X0100034Y0112609D01*
X0100612Y0112030D01*
X0101275Y0111549D01*
X0102004Y0111177D01*
X0102782Y0110924D01*
X0103500Y0110811D01*
X0103500Y0115496D01*
X0104500Y0115496D01*
X0104500Y0110811D01*
X0105218Y0110924D01*
X0105996Y0111177D01*
X0106725Y0111549D01*
X0107388Y0112030D01*
X0107966Y0112609D01*
X0108447Y0113271D01*
X0108819Y0114000D01*
X0109072Y0114779D01*
X0109186Y0115496D01*
X0104500Y0115496D01*
X0104500Y0116496D01*
X0109186Y0116496D01*
X0109072Y0117214D01*
X0108819Y0117992D01*
X0108447Y0118722D01*
X0107966Y0119384D01*
X0107388Y0119963D01*
X0106725Y0120444D01*
X0106622Y0120496D01*
X0108172Y0120496D01*
X0116300Y0112368D01*
X0116300Y0111462D01*
X0117092Y0109551D01*
X0118554Y0108088D01*
X0119983Y0107496D01*
X0118554Y0106905D01*
X0117092Y0105442D01*
X0116300Y0103531D01*
X0116300Y0101462D01*
X0117092Y0099551D01*
X0118554Y0098088D01*
X0119983Y0097496D01*
X0118554Y0096905D01*
X0117092Y0095442D01*
X0116300Y0093531D01*
X0116300Y0091462D01*
X0117092Y0089551D01*
X0118554Y0088088D01*
X0119983Y0087496D01*
X0118554Y0086905D01*
X0117092Y0085442D01*
X0116300Y0083531D01*
X0116300Y0081462D01*
X0117092Y0079551D01*
X0118554Y0078088D01*
X0119983Y0077496D01*
X0118554Y0076905D01*
X0117092Y0075442D01*
X0116300Y0073531D01*
X0116300Y0071462D01*
X0117092Y0069551D01*
X0118554Y0068088D01*
X0119983Y0067496D01*
X0118554Y0066905D01*
X0117092Y0065442D01*
X0116300Y0063531D01*
X0116300Y0061462D01*
X0117092Y0059551D01*
X0118554Y0058088D01*
X0119983Y0057496D01*
X0118554Y0056905D01*
X0117092Y0055442D01*
X0116300Y0053531D01*
X0116300Y0051462D01*
X0117092Y0049551D01*
X0118554Y0048088D01*
X0119983Y0047496D01*
X0118554Y0046905D01*
X0117092Y0045442D01*
X0116300Y0043531D01*
X0116300Y0041462D01*
X0117092Y0039551D01*
X0118554Y0038088D01*
X0119983Y0037496D01*
X0118554Y0036905D01*
X0117092Y0035442D01*
X0116300Y0033531D01*
X0116300Y0031462D01*
X0117092Y0029551D01*
X0118554Y0028088D01*
X0119983Y0027496D01*
X0118554Y0026905D01*
X0117092Y0025442D01*
X0116300Y0023531D01*
X0116300Y0021462D01*
X0117092Y0019551D01*
X0118554Y0018088D01*
X0120017Y0017482D01*
X0119504Y0017315D01*
X0118775Y0016944D01*
X0118112Y0016463D01*
X0117534Y0015884D01*
X0117053Y0015222D01*
X0116681Y0014492D01*
X0116428Y0013714D01*
X0116314Y0012996D01*
X0121000Y0012996D01*
X0121000Y0011996D01*
X0122000Y0011996D01*
X0122000Y0007311D01*
X0122718Y0007424D01*
X0123496Y0007677D01*
X0124225Y0008049D01*
X0124888Y0008530D01*
X0125466Y0009109D01*
X0125947Y0009771D01*
X0126319Y0010500D01*
X0126572Y0011279D01*
X0126686Y0011996D01*
X0122000Y0011996D01*
X0122000Y0012996D01*
X0126686Y0012996D01*
X0126572Y0013714D01*
X0126319Y0014492D01*
X0125947Y0015222D01*
X0125466Y0015884D01*
X0124888Y0016463D01*
X0124225Y0016944D01*
X0123496Y0017315D01*
X0122983Y0017482D01*
X0124446Y0018088D01*
X0125908Y0019551D01*
X0126700Y0021462D01*
X0126700Y0023531D01*
X0125908Y0025442D01*
X0124446Y0026905D01*
X0123017Y0027496D01*
X0124446Y0028088D01*
X0125908Y0029551D01*
X0126700Y0031462D01*
X0126700Y0033531D01*
X0125908Y0035442D01*
X0124446Y0036905D01*
X0123017Y0037496D01*
X0124446Y0038088D01*
X0125908Y0039551D01*
X0126700Y0041462D01*
X0126700Y0043531D01*
X0125908Y0045442D01*
X0124446Y0046905D01*
X0123017Y0047496D01*
X0124446Y0048088D01*
X0125908Y0049551D01*
X0126700Y0051462D01*
X0126700Y0053531D01*
X0125908Y0055442D01*
X0124446Y0056905D01*
X0123017Y0057496D01*
X0124446Y0058088D01*
X0125908Y0059551D01*
X0126700Y0061462D01*
X0126700Y0063531D01*
X0125908Y0065442D01*
X0124446Y0066905D01*
X0123017Y0067496D01*
X0124446Y0068088D01*
X0125908Y0069551D01*
X0126700Y0071462D01*
X0126700Y0073531D01*
X0125908Y0075442D01*
X0124446Y0076905D01*
X0123017Y0077496D01*
X0124446Y0078088D01*
X0125908Y0079551D01*
X0126700Y0081462D01*
X0126700Y0083531D01*
X0125908Y0085442D01*
X0124446Y0086905D01*
X0123017Y0087496D01*
X0124446Y0088088D01*
X0125908Y0089551D01*
X0126700Y0091462D01*
X0126700Y0093531D01*
X0125908Y0095442D01*
X0124446Y0096905D01*
X0123017Y0097496D01*
X0124446Y0098088D01*
X0125908Y0099551D01*
X0126700Y0101462D01*
X0126700Y0103531D01*
X0125908Y0105442D01*
X0124446Y0106905D01*
X0123017Y0107496D01*
X0124446Y0108088D01*
X0125908Y0109551D01*
X0126700Y0111462D01*
X0126700Y0113531D01*
X0125908Y0115442D01*
X0124446Y0116905D01*
X0122983Y0117510D01*
X0123496Y0117677D01*
X0124225Y0118049D01*
X0124888Y0118530D01*
X0125466Y0119109D01*
X0125947Y0119771D01*
X0126319Y0120500D01*
X0126572Y0121279D01*
X0126686Y0121996D01*
X0122000Y0121996D01*
X0122000Y0122996D01*
X0126686Y0122996D01*
X0126572Y0123714D01*
X0126319Y0124492D01*
X0125947Y0125222D01*
X0125466Y0125884D01*
X0124888Y0126463D01*
X0124225Y0126944D01*
X0123496Y0127315D01*
X0122718Y0127568D01*
X0122000Y0127682D01*
X0122000Y0122996D01*
X0121000Y0122996D01*
X0121000Y0127682D01*
X0120282Y0127568D01*
X0119504Y0127315D01*
X0121000Y0127310D02*
X0122000Y0127310D01*
X0122000Y0126312D02*
X0121000Y0126312D01*
X0121000Y0125313D02*
X0122000Y0125313D01*
X0122000Y0124315D02*
X0121000Y0124315D01*
X0121000Y0123316D02*
X0122000Y0123316D01*
X0122000Y0122318D02*
X0129201Y0122318D01*
X0129201Y0123316D02*
X0126635Y0123316D01*
X0126377Y0124315D02*
X0129201Y0124315D01*
X0129201Y0125313D02*
X0125881Y0125313D01*
X0125038Y0126312D02*
X0129201Y0126312D01*
X0129201Y0127310D02*
X0123506Y0127310D01*
X0121000Y0122318D02*
X0112007Y0122318D01*
X0111009Y0123316D02*
X0116365Y0123316D01*
X0116623Y0124315D02*
X0110010Y0124315D01*
X0109000Y0122496D02*
X0119000Y0112496D01*
X0121500Y0112496D01*
X0126233Y0110335D02*
X0129201Y0110335D01*
X0129201Y0109337D02*
X0125695Y0109337D01*
X0124696Y0108338D02*
X0129201Y0108338D01*
X0129201Y0107340D02*
X0123395Y0107340D01*
X0125009Y0106341D02*
X0129201Y0106341D01*
X0129201Y0105343D02*
X0125949Y0105343D01*
X0126363Y0104344D02*
X0129201Y0104344D01*
X0129201Y0103346D02*
X0126700Y0103346D01*
X0126700Y0102347D02*
X0129201Y0102347D01*
X0129201Y0101349D02*
X0126653Y0101349D01*
X0126240Y0100350D02*
X0129201Y0100350D01*
X0129201Y0099352D02*
X0125710Y0099352D01*
X0124711Y0098353D02*
X0129201Y0098353D01*
X0129201Y0097355D02*
X0123359Y0097355D01*
X0124994Y0096356D02*
X0129201Y0096356D01*
X0129201Y0095358D02*
X0125943Y0095358D01*
X0126357Y0094359D02*
X0129201Y0094359D01*
X0129201Y0093361D02*
X0126700Y0093361D01*
X0126700Y0092362D02*
X0129201Y0092362D01*
X0129201Y0091364D02*
X0126659Y0091364D01*
X0126246Y0090365D02*
X0129201Y0090365D01*
X0129201Y0089367D02*
X0125724Y0089367D01*
X0124726Y0088368D02*
X0129201Y0088368D01*
X0129201Y0087370D02*
X0123323Y0087370D01*
X0124979Y0086371D02*
X0129201Y0086371D01*
X0129201Y0085373D02*
X0125937Y0085373D01*
X0126351Y0084374D02*
X0129201Y0084374D01*
X0129201Y0083376D02*
X0126700Y0083376D01*
X0126700Y0082377D02*
X0129201Y0082377D01*
X0129201Y0081379D02*
X0126666Y0081379D01*
X0126252Y0080380D02*
X0129201Y0080380D01*
X0129201Y0079382D02*
X0125739Y0079382D01*
X0124741Y0078383D02*
X0129201Y0078383D01*
X0129201Y0077385D02*
X0123287Y0077385D01*
X0124964Y0076386D02*
X0129201Y0076386D01*
X0129201Y0075388D02*
X0125931Y0075388D01*
X0126344Y0074389D02*
X0129201Y0074389D01*
X0129201Y0073391D02*
X0126700Y0073391D01*
X0126700Y0072392D02*
X0129201Y0072392D01*
X0129201Y0071393D02*
X0126672Y0071393D01*
X0126258Y0070395D02*
X0129201Y0070395D01*
X0129201Y0069396D02*
X0125754Y0069396D01*
X0124756Y0068398D02*
X0129201Y0068398D01*
X0129201Y0067399D02*
X0123251Y0067399D01*
X0124949Y0066401D02*
X0129201Y0066401D01*
X0129201Y0065402D02*
X0125925Y0065402D01*
X0126338Y0064404D02*
X0129201Y0064404D01*
X0129201Y0063405D02*
X0126700Y0063405D01*
X0126700Y0062407D02*
X0129201Y0062407D01*
X0129201Y0061408D02*
X0126678Y0061408D01*
X0126264Y0060410D02*
X0129201Y0060410D01*
X0129201Y0059411D02*
X0125769Y0059411D01*
X0124771Y0058413D02*
X0129201Y0058413D01*
X0129201Y0057414D02*
X0123215Y0057414D01*
X0124934Y0056416D02*
X0129201Y0056416D01*
X0129201Y0055417D02*
X0125918Y0055417D01*
X0126332Y0054419D02*
X0129201Y0054419D01*
X0129201Y0053420D02*
X0126700Y0053420D01*
X0126700Y0052422D02*
X0129201Y0052422D01*
X0129201Y0051423D02*
X0126684Y0051423D01*
X0126270Y0050425D02*
X0129201Y0050425D01*
X0129201Y0049426D02*
X0125784Y0049426D01*
X0124785Y0048428D02*
X0129201Y0048428D01*
X0129201Y0047429D02*
X0123179Y0047429D01*
X0124919Y0046431D02*
X0129201Y0046431D01*
X0129201Y0045432D02*
X0125912Y0045432D01*
X0126326Y0044434D02*
X0129201Y0044434D01*
X0129201Y0043435D02*
X0126700Y0043435D01*
X0126700Y0042437D02*
X0129201Y0042437D01*
X0129201Y0041438D02*
X0126690Y0041438D01*
X0126277Y0040440D02*
X0129201Y0040440D01*
X0129201Y0039441D02*
X0125799Y0039441D01*
X0124800Y0038443D02*
X0129201Y0038443D01*
X0129201Y0037444D02*
X0123143Y0037444D01*
X0124905Y0036446D02*
X0129201Y0036446D01*
X0129201Y0035447D02*
X0125903Y0035447D01*
X0126320Y0034449D02*
X0129201Y0034449D01*
X0129201Y0033450D02*
X0126700Y0033450D01*
X0126700Y0032452D02*
X0129201Y0032452D01*
X0129201Y0031453D02*
X0126696Y0031453D01*
X0126283Y0030455D02*
X0129201Y0030455D01*
X0129201Y0029456D02*
X0125814Y0029456D01*
X0124815Y0028457D02*
X0129201Y0028457D01*
X0129201Y0027459D02*
X0123107Y0027459D01*
X0124890Y0026460D02*
X0129201Y0026460D01*
X0129201Y0025462D02*
X0125888Y0025462D01*
X0126314Y0024463D02*
X0129201Y0024463D01*
X0129201Y0023465D02*
X0126700Y0023465D01*
X0126700Y0022466D02*
X0129201Y0022466D01*
X0129201Y0021468D02*
X0126700Y0021468D01*
X0126289Y0020469D02*
X0129201Y0020469D01*
X0129201Y0019471D02*
X0125829Y0019471D01*
X0124830Y0018472D02*
X0129201Y0018472D01*
X0129201Y0017474D02*
X0123008Y0017474D01*
X0124870Y0016475D02*
X0129201Y0016475D01*
X0129201Y0015477D02*
X0125762Y0015477D01*
X0126324Y0014478D02*
X0129201Y0014478D01*
X0129201Y0013480D02*
X0126609Y0013480D01*
X0126604Y0011483D02*
X0129201Y0011483D01*
X0129201Y0012481D02*
X0122000Y0012481D01*
X0122000Y0011483D02*
X0121000Y0011483D01*
X0121000Y0011996D02*
X0121000Y0007311D01*
X0120282Y0007424D01*
X0119504Y0007677D01*
X0118775Y0008049D01*
X0118112Y0008530D01*
X0117534Y0009109D01*
X0117053Y0009771D01*
X0116681Y0010500D01*
X0116428Y0011279D01*
X0116314Y0011996D01*
X0121000Y0011996D01*
X0121000Y0012481D02*
X0113700Y0012481D01*
X0113700Y0011483D02*
X0116396Y0011483D01*
X0116689Y0010484D02*
X0113700Y0010484D01*
X0113700Y0009486D02*
X0117260Y0009486D01*
X0118171Y0008487D02*
X0113700Y0008487D01*
X0113014Y0007489D02*
X0120084Y0007489D01*
X0121000Y0007489D02*
X0122000Y0007489D01*
X0122916Y0007489D02*
X0129201Y0007489D01*
X0129201Y0008487D02*
X0124829Y0008487D01*
X0125740Y0009486D02*
X0129201Y0009486D01*
X0129201Y0010484D02*
X0126311Y0010484D01*
X0122000Y0010484D02*
X0121000Y0010484D01*
X0121000Y0009486D02*
X0122000Y0009486D01*
X0122000Y0008487D02*
X0121000Y0008487D01*
X0116391Y0013480D02*
X0113700Y0013480D01*
X0113700Y0014478D02*
X0116676Y0014478D01*
X0117238Y0015477D02*
X0113700Y0015477D01*
X0113700Y0016475D02*
X0118130Y0016475D01*
X0118170Y0018472D02*
X0075352Y0018472D01*
X0076351Y0017474D02*
X0076929Y0017474D01*
X0074354Y0019471D02*
X0117171Y0019471D01*
X0116711Y0020469D02*
X0073355Y0020469D01*
X0072498Y0021468D02*
X0116300Y0021468D01*
X0116300Y0022466D02*
X0115272Y0022466D01*
X0115260Y0022421D02*
X0115362Y0022803D01*
X0115362Y0024862D01*
X0112000Y0024862D01*
X0112000Y0021500D01*
X0114060Y0021500D01*
X0114441Y0021602D01*
X0114783Y0021800D01*
X0115062Y0022079D01*
X0115260Y0022421D01*
X0115362Y0023465D02*
X0116300Y0023465D01*
X0116686Y0024463D02*
X0115362Y0024463D01*
X0115362Y0025862D02*
X0115362Y0027922D01*
X0115260Y0028304D01*
X0115062Y0028646D01*
X0114783Y0028925D01*
X0114441Y0029122D01*
X0114060Y0029225D01*
X0112000Y0029225D01*
X0112000Y0025862D01*
X0115362Y0025862D01*
X0115362Y0026460D02*
X0118110Y0026460D01*
X0117112Y0025462D02*
X0112000Y0025462D01*
X0112000Y0025862D02*
X0112000Y0024862D01*
X0111000Y0024862D01*
X0111000Y0021500D01*
X0108940Y0021500D01*
X0108559Y0021602D01*
X0108217Y0021800D01*
X0107937Y0022079D01*
X0107740Y0022421D01*
X0107638Y0022803D01*
X0107638Y0024862D01*
X0111000Y0024862D01*
X0111000Y0025862D01*
X0107638Y0025862D01*
X0107638Y0027922D01*
X0107740Y0028304D01*
X0107937Y0028646D01*
X0108217Y0028925D01*
X0108559Y0029122D01*
X0108940Y0029225D01*
X0111000Y0029225D01*
X0111000Y0025862D01*
X0112000Y0025862D01*
X0112000Y0026460D02*
X0111000Y0026460D01*
X0111000Y0025462D02*
X0102000Y0025462D01*
X0102000Y0025862D02*
X0105362Y0025862D01*
X0105362Y0027922D01*
X0105260Y0028304D01*
X0105062Y0028646D01*
X0104783Y0028925D01*
X0104441Y0029122D01*
X0104060Y0029225D01*
X0102000Y0029225D01*
X0102000Y0025862D01*
X0102000Y0024862D01*
X0102000Y0021500D01*
X0104060Y0021500D01*
X0104441Y0021602D01*
X0104783Y0021800D01*
X0105062Y0022079D01*
X0105260Y0022421D01*
X0105362Y0022803D01*
X0105362Y0024862D01*
X0102000Y0024862D01*
X0101000Y0024862D01*
X0101000Y0021500D01*
X0098940Y0021500D01*
X0098559Y0021602D01*
X0098217Y0021800D01*
X0097937Y0022079D01*
X0097740Y0022421D01*
X0097638Y0022803D01*
X0097638Y0024862D01*
X0101000Y0024862D01*
X0101000Y0025862D01*
X0097638Y0025862D01*
X0097638Y0027922D01*
X0097740Y0028304D01*
X0097937Y0028646D01*
X0098217Y0028925D01*
X0098559Y0029122D01*
X0098940Y0029225D01*
X0101000Y0029225D01*
X0101000Y0025862D01*
X0102000Y0025862D01*
X0102000Y0026460D02*
X0101000Y0026460D01*
X0101000Y0025462D02*
X0088800Y0025462D01*
X0088819Y0025500D02*
X0089072Y0026279D01*
X0089186Y0026996D01*
X0084500Y0026996D01*
X0084500Y0022311D01*
X0085218Y0022424D01*
X0085996Y0022677D01*
X0086725Y0023049D01*
X0087388Y0023530D01*
X0087966Y0024109D01*
X0088447Y0024771D01*
X0088819Y0025500D01*
X0089101Y0026460D02*
X0097638Y0026460D01*
X0097638Y0027459D02*
X0084500Y0027459D01*
X0084500Y0026996D02*
X0084500Y0027996D01*
X0089186Y0027996D01*
X0089072Y0028714D01*
X0088819Y0029492D01*
X0088447Y0030222D01*
X0087966Y0030884D01*
X0087388Y0031463D01*
X0086725Y0031944D01*
X0085996Y0032315D01*
X0085218Y0032568D01*
X0084500Y0032682D01*
X0084500Y0027996D01*
X0083500Y0027996D01*
X0083500Y0026996D01*
X0084500Y0026996D01*
X0084500Y0026460D02*
X0083500Y0026460D01*
X0083500Y0026996D02*
X0083500Y0022311D01*
X0082782Y0022424D01*
X0082004Y0022677D01*
X0081275Y0023049D01*
X0080612Y0023530D01*
X0080034Y0024109D01*
X0079553Y0024771D01*
X0079181Y0025500D01*
X0078928Y0026279D01*
X0078814Y0026996D01*
X0083500Y0026996D01*
X0083500Y0027459D02*
X0070881Y0027459D01*
X0070761Y0028457D02*
X0078887Y0028457D01*
X0078928Y0028714D02*
X0078814Y0027996D01*
X0083500Y0027996D01*
X0083500Y0032682D01*
X0082782Y0032568D01*
X0082004Y0032315D01*
X0081275Y0031944D01*
X0080612Y0031463D01*
X0080034Y0030884D01*
X0079553Y0030222D01*
X0079181Y0029492D01*
X0078928Y0028714D01*
X0079169Y0029456D02*
X0070322Y0029456D01*
X0069193Y0030455D02*
X0079722Y0030455D01*
X0080603Y0031453D02*
X0065520Y0031453D01*
X0065807Y0030455D02*
X0064740Y0030455D01*
X0064678Y0029456D02*
X0064500Y0029456D01*
X0067500Y0027496D02*
X0067500Y0020236D01*
X0070760Y0020236D02*
X0078500Y0012496D01*
X0083295Y0010484D02*
X0083689Y0010484D01*
X0084260Y0009486D02*
X0082843Y0009486D01*
X0081845Y0008487D02*
X0085171Y0008487D01*
X0087084Y0007489D02*
X0079999Y0007489D01*
X0077001Y0007489D02*
X0012916Y0007489D01*
X0012000Y0007489D02*
X0011000Y0007489D01*
X0011000Y0007311D02*
X0011000Y0011996D01*
X0006314Y0011996D01*
X0006428Y0011279D01*
X0006681Y0010500D01*
X0007053Y0009771D01*
X0007534Y0009109D01*
X0008112Y0008530D01*
X0008775Y0008049D01*
X0009504Y0007677D01*
X0010282Y0007424D01*
X0011000Y0007311D01*
X0010084Y0007489D02*
X0003500Y0007489D01*
X0003500Y0008487D02*
X0008171Y0008487D01*
X0007260Y0009486D02*
X0003500Y0009486D01*
X0003500Y0010484D02*
X0006689Y0010484D01*
X0006396Y0011483D02*
X0003500Y0011483D01*
X0003500Y0012481D02*
X0011000Y0012481D01*
X0011000Y0011483D02*
X0012000Y0011483D01*
X0012000Y0012481D02*
X0020331Y0012481D01*
X0020338Y0011483D02*
X0016604Y0011483D01*
X0016311Y0010484D02*
X0020752Y0010484D01*
X0021270Y0009486D02*
X0015740Y0009486D01*
X0014829Y0008487D02*
X0022269Y0008487D01*
X0020331Y0013480D02*
X0016609Y0013480D01*
X0016324Y0014478D02*
X0020740Y0014478D01*
X0021240Y0015477D02*
X0015762Y0015477D01*
X0014870Y0016475D02*
X0022239Y0016475D01*
X0016289Y0020469D02*
X0041645Y0020469D01*
X0040646Y0019471D02*
X0015829Y0019471D01*
X0016700Y0021468D02*
X0042643Y0021468D01*
X0044306Y0017474D02*
X0047786Y0017474D01*
X0045743Y0016475D02*
X0044092Y0016475D01*
X0041000Y0016996D02*
X0041000Y0012496D01*
X0044062Y0008487D02*
X0045773Y0008487D01*
X0051897Y0008487D02*
X0053607Y0008487D01*
X0059731Y0008487D02*
X0075155Y0008487D01*
X0074156Y0009486D02*
X0071774Y0009486D01*
X0071953Y0010484D02*
X0073705Y0010484D01*
X0073300Y0011483D02*
X0071953Y0011483D01*
X0073300Y0012481D02*
X0068000Y0012481D01*
X0068000Y0011483D02*
X0067000Y0011483D01*
X0067000Y0012256D02*
X0067000Y0008697D01*
X0064350Y0008697D01*
X0063968Y0008799D01*
X0063626Y0008997D01*
X0063347Y0009276D01*
X0063149Y0009618D01*
X0063047Y0009999D01*
X0063047Y0012256D01*
X0067000Y0012256D01*
X0067000Y0012481D02*
X0061669Y0012481D01*
X0061661Y0011483D02*
X0063047Y0011483D01*
X0063047Y0010484D02*
X0061248Y0010484D01*
X0060730Y0009486D02*
X0063226Y0009486D01*
X0067000Y0009486D02*
X0068000Y0009486D01*
X0068000Y0010484D02*
X0067000Y0010484D01*
X0063047Y0013480D02*
X0061669Y0013480D01*
X0061260Y0014478D02*
X0063047Y0014478D01*
X0063047Y0015477D02*
X0060760Y0015477D01*
X0059761Y0016475D02*
X0063586Y0016475D01*
X0063047Y0017474D02*
X0057718Y0017474D01*
X0059305Y0018472D02*
X0063047Y0018472D01*
X0063047Y0019471D02*
X0060303Y0019471D01*
X0061302Y0020469D02*
X0063047Y0020469D01*
X0063047Y0021468D02*
X0062300Y0021468D01*
X0059639Y0024463D02*
X0059299Y0024463D01*
X0059299Y0025462D02*
X0060500Y0025462D01*
X0060500Y0026460D02*
X0059299Y0026460D01*
X0060500Y0027459D02*
X0055740Y0027459D01*
X0055740Y0028457D02*
X0054740Y0028457D01*
X0054740Y0029456D02*
X0055740Y0029456D01*
X0055740Y0030455D02*
X0054740Y0030455D01*
X0054740Y0031453D02*
X0055740Y0031453D01*
X0055740Y0033450D02*
X0054740Y0033450D01*
X0054740Y0034449D02*
X0055740Y0034449D01*
X0055740Y0035447D02*
X0054740Y0035447D01*
X0054740Y0036446D02*
X0055740Y0036446D01*
X0055740Y0037444D02*
X0062250Y0037444D01*
X0062347Y0037276D02*
X0062626Y0036997D01*
X0062968Y0036799D01*
X0063350Y0036697D01*
X0066000Y0036697D01*
X0066000Y0040256D01*
X0062047Y0040256D01*
X0062047Y0037999D01*
X0062149Y0037618D01*
X0062347Y0037276D01*
X0062047Y0038443D02*
X0059299Y0038443D01*
X0059299Y0039441D02*
X0062047Y0039441D01*
X0062047Y0041438D02*
X0058931Y0041438D01*
X0059299Y0040440D02*
X0066000Y0040440D01*
X0066000Y0039441D02*
X0067000Y0039441D01*
X0067000Y0038443D02*
X0066000Y0038443D01*
X0066000Y0037444D02*
X0067000Y0037444D01*
X0064831Y0035447D02*
X0079221Y0035447D01*
X0078222Y0036446D02*
X0059299Y0036446D01*
X0055740Y0038443D02*
X0054740Y0038443D01*
X0054740Y0039441D02*
X0055740Y0039441D01*
X0055740Y0040440D02*
X0054740Y0040440D01*
X0054740Y0041438D02*
X0055740Y0041438D01*
X0055740Y0043435D02*
X0054740Y0043435D01*
X0054740Y0044434D02*
X0055740Y0044434D01*
X0055740Y0045432D02*
X0054740Y0045432D01*
X0054740Y0046431D02*
X0055740Y0046431D01*
X0055740Y0047429D02*
X0062047Y0047429D01*
X0062047Y0046431D02*
X0059299Y0046431D01*
X0059299Y0045432D02*
X0062047Y0045432D01*
X0062545Y0044434D02*
X0059299Y0044434D01*
X0058812Y0043435D02*
X0062047Y0043435D01*
X0062047Y0042437D02*
X0049760Y0042437D01*
X0051332Y0043435D02*
X0051668Y0043435D01*
X0051549Y0041438D02*
X0051451Y0041438D01*
X0047760Y0037496D02*
X0047760Y0047496D01*
X0044900Y0050356D01*
X0044900Y0066669D01*
X0044900Y0068638D01*
X0049642Y0068638D01*
X0052500Y0071496D01*
X0052500Y0073996D01*
X0050108Y0076386D02*
X0049300Y0076386D01*
X0049300Y0075388D02*
X0049417Y0075388D01*
X0049300Y0077385D02*
X0058119Y0077385D01*
X0058300Y0076386D02*
X0054892Y0076386D01*
X0055583Y0075388D02*
X0058827Y0075388D01*
X0060166Y0074389D02*
X0055881Y0074389D01*
X0055881Y0073391D02*
X0073700Y0073391D01*
X0073700Y0074389D02*
X0062834Y0074389D01*
X0064173Y0075388D02*
X0073700Y0075388D01*
X0073700Y0076386D02*
X0064700Y0076386D01*
X0064881Y0077385D02*
X0073700Y0077385D01*
X0072643Y0078383D02*
X0064792Y0078383D01*
X0064379Y0079382D02*
X0071645Y0079382D01*
X0070646Y0080380D02*
X0063373Y0080380D01*
X0060446Y0081379D02*
X0069648Y0081379D01*
X0066837Y0082377D02*
X0059448Y0082377D01*
X0058449Y0083376D02*
X0066012Y0083376D01*
X0065619Y0084374D02*
X0057450Y0084374D01*
X0056452Y0085373D02*
X0065619Y0085373D01*
X0065910Y0086371D02*
X0055453Y0086371D01*
X0054455Y0087370D02*
X0066592Y0087370D01*
X0068305Y0088368D02*
X0049300Y0088368D01*
X0049300Y0089367D02*
X0073700Y0089367D01*
X0073700Y0088368D02*
X0069695Y0088368D01*
X0071408Y0087370D02*
X0073700Y0087370D01*
X0073700Y0086371D02*
X0072090Y0086371D01*
X0072381Y0085373D02*
X0073700Y0085373D01*
X0073700Y0084374D02*
X0072592Y0084374D01*
X0073590Y0083376D02*
X0073700Y0083376D01*
X0074167Y0090365D02*
X0074571Y0090365D01*
X0074377Y0091364D02*
X0078309Y0091364D01*
X0078119Y0092362D02*
X0074377Y0092362D01*
X0074420Y0093361D02*
X0078198Y0093361D01*
X0078612Y0094359D02*
X0075418Y0094359D01*
X0076417Y0095358D02*
X0079580Y0095358D01*
X0081500Y0092496D02*
X0091500Y0082496D01*
X0102760Y0082496D01*
X0098701Y0080380D02*
X0096252Y0080380D01*
X0095739Y0079382D02*
X0098701Y0079382D01*
X0099240Y0078383D02*
X0094741Y0078383D01*
X0093287Y0077385D02*
X0119713Y0077385D01*
X0118259Y0078383D02*
X0113760Y0078383D01*
X0114299Y0079382D02*
X0117261Y0079382D01*
X0116748Y0080380D02*
X0114299Y0080380D01*
X0114299Y0081379D02*
X0116334Y0081379D01*
X0116300Y0082377D02*
X0114299Y0082377D01*
X0114299Y0083376D02*
X0116300Y0083376D01*
X0116649Y0084374D02*
X0114299Y0084374D01*
X0114299Y0085373D02*
X0117063Y0085373D01*
X0118021Y0086371D02*
X0113998Y0086371D01*
X0113745Y0088368D02*
X0118274Y0088368D01*
X0117276Y0089367D02*
X0114299Y0089367D01*
X0114299Y0090365D02*
X0116754Y0090365D01*
X0116341Y0091364D02*
X0114299Y0091364D01*
X0114299Y0092362D02*
X0116300Y0092362D01*
X0116300Y0093361D02*
X0114299Y0093361D01*
X0114299Y0094359D02*
X0116643Y0094359D01*
X0117057Y0095358D02*
X0114299Y0095358D01*
X0114013Y0096356D02*
X0118006Y0096356D01*
X0119641Y0097355D02*
X0112240Y0097355D01*
X0112240Y0098353D02*
X0118289Y0098353D01*
X0117290Y0099352D02*
X0112240Y0099352D01*
X0111474Y0100350D02*
X0116760Y0100350D01*
X0116347Y0101349D02*
X0110476Y0101349D01*
X0109881Y0102347D02*
X0116300Y0102347D01*
X0116300Y0103346D02*
X0109808Y0103346D01*
X0109394Y0104344D02*
X0116637Y0104344D01*
X0117051Y0105343D02*
X0108435Y0105343D01*
X0106500Y0102496D02*
X0110240Y0098756D01*
X0110240Y0092496D01*
X0110240Y0082496D01*
X0106720Y0078383D02*
X0106280Y0078383D01*
X0109740Y0076386D02*
X0110740Y0076386D01*
X0110740Y0075388D02*
X0109740Y0075388D01*
X0109740Y0074389D02*
X0110740Y0074389D01*
X0110740Y0073391D02*
X0109740Y0073391D01*
X0110740Y0072392D02*
X0116300Y0072392D01*
X0116300Y0073391D02*
X0114299Y0073391D01*
X0114299Y0074389D02*
X0116656Y0074389D01*
X0117069Y0075388D02*
X0114299Y0075388D01*
X0113983Y0076386D02*
X0118036Y0076386D01*
X0116328Y0071393D02*
X0114299Y0071393D01*
X0114299Y0070395D02*
X0116742Y0070395D01*
X0117246Y0069396D02*
X0114299Y0069396D01*
X0113775Y0068398D02*
X0118244Y0068398D01*
X0119749Y0067399D02*
X0104760Y0067399D01*
X0106295Y0068398D02*
X0106705Y0068398D01*
X0106512Y0066401D02*
X0106488Y0066401D01*
X0109740Y0066401D02*
X0110740Y0066401D01*
X0110740Y0065402D02*
X0109740Y0065402D01*
X0109740Y0064404D02*
X0110740Y0064404D01*
X0110740Y0063405D02*
X0109740Y0063405D01*
X0110740Y0062407D02*
X0116300Y0062407D01*
X0116300Y0063405D02*
X0114299Y0063405D01*
X0114299Y0064404D02*
X0116662Y0064404D01*
X0117075Y0065402D02*
X0114299Y0065402D01*
X0113969Y0066401D02*
X0118051Y0066401D01*
X0116322Y0061408D02*
X0114299Y0061408D01*
X0114299Y0060410D02*
X0116736Y0060410D01*
X0117231Y0059411D02*
X0114299Y0059411D01*
X0113790Y0058413D02*
X0118229Y0058413D01*
X0118066Y0056416D02*
X0107149Y0056416D01*
X0106150Y0057414D02*
X0119785Y0057414D01*
X0117082Y0055417D02*
X0108147Y0055417D01*
X0109146Y0054419D02*
X0116668Y0054419D01*
X0116300Y0053420D02*
X0110144Y0053420D01*
X0106485Y0051423D02*
X0105953Y0051423D01*
X0105953Y0050425D02*
X0107047Y0050425D01*
X0107047Y0049426D02*
X0105953Y0049426D01*
X0105953Y0048428D02*
X0107047Y0048428D01*
X0107047Y0047429D02*
X0105953Y0047429D01*
X0105953Y0046431D02*
X0107047Y0046431D01*
X0107543Y0045432D02*
X0105457Y0045432D01*
X0105953Y0044434D02*
X0107047Y0044434D01*
X0107047Y0043435D02*
X0105953Y0043435D01*
X0105953Y0042437D02*
X0107047Y0042437D01*
X0107047Y0041438D02*
X0105953Y0041438D01*
X0105953Y0040440D02*
X0107047Y0040440D01*
X0107047Y0039441D02*
X0105953Y0039441D01*
X0105820Y0038443D02*
X0107180Y0038443D01*
X0108468Y0037444D02*
X0104532Y0037444D01*
X0105362Y0036446D02*
X0107638Y0036446D01*
X0107638Y0035447D02*
X0105362Y0035447D01*
X0105362Y0034449D02*
X0107638Y0034449D01*
X0107638Y0033450D02*
X0105362Y0033450D01*
X0105362Y0032452D02*
X0107638Y0032452D01*
X0107638Y0031453D02*
X0105362Y0031453D01*
X0105170Y0030455D02*
X0107830Y0030455D01*
X0107829Y0028457D02*
X0105171Y0028457D01*
X0105362Y0027459D02*
X0107638Y0027459D01*
X0107638Y0026460D02*
X0105362Y0026460D01*
X0105362Y0024463D02*
X0107638Y0024463D01*
X0107638Y0023465D02*
X0105362Y0023465D01*
X0105272Y0022466D02*
X0107728Y0022466D01*
X0111000Y0022466D02*
X0112000Y0022466D01*
X0112000Y0023465D02*
X0111000Y0023465D01*
X0111000Y0024463D02*
X0112000Y0024463D01*
X0112000Y0027459D02*
X0111000Y0027459D01*
X0111000Y0028457D02*
X0112000Y0028457D01*
X0115171Y0028457D02*
X0118185Y0028457D01*
X0117186Y0029456D02*
X0093496Y0029456D01*
X0094740Y0030455D02*
X0097830Y0030455D01*
X0097638Y0031453D02*
X0095228Y0031453D01*
X0095381Y0032452D02*
X0097638Y0032452D01*
X0097638Y0033450D02*
X0095265Y0033450D01*
X0094829Y0034449D02*
X0097638Y0034449D01*
X0097638Y0035447D02*
X0093711Y0035447D01*
X0094229Y0037444D02*
X0098468Y0037444D01*
X0097638Y0036446D02*
X0090879Y0036446D01*
X0092000Y0039996D02*
X0082000Y0039996D01*
X0077500Y0044496D01*
X0077500Y0051996D01*
X0073500Y0055996D01*
X0067500Y0055996D01*
X0066421Y0057075D01*
X0066421Y0060896D01*
X0064453Y0060896D02*
X0064453Y0055043D01*
X0066000Y0053496D01*
X0071500Y0053496D01*
X0074500Y0050496D01*
X0074500Y0042996D01*
X0080500Y0036996D01*
X0087500Y0036996D01*
X0092000Y0032496D01*
X0089260Y0030455D02*
X0088278Y0030455D01*
X0088772Y0031453D02*
X0087397Y0031453D01*
X0088619Y0032452D02*
X0085577Y0032452D01*
X0084500Y0032452D02*
X0083500Y0032452D01*
X0083500Y0031453D02*
X0084500Y0031453D01*
X0084500Y0030455D02*
X0083500Y0030455D01*
X0083500Y0029456D02*
X0084500Y0029456D01*
X0084500Y0028457D02*
X0083500Y0028457D01*
X0083500Y0025462D02*
X0084500Y0025462D01*
X0084500Y0024463D02*
X0083500Y0024463D01*
X0083500Y0023465D02*
X0084500Y0023465D01*
X0084500Y0022466D02*
X0083500Y0022466D01*
X0082652Y0022466D02*
X0071953Y0022466D01*
X0071905Y0023465D02*
X0080702Y0023465D01*
X0079776Y0024463D02*
X0069500Y0024463D01*
X0070247Y0025462D02*
X0079200Y0025462D01*
X0078899Y0026460D02*
X0070731Y0026460D01*
X0065881Y0032452D02*
X0082423Y0032452D01*
X0077224Y0037444D02*
X0070750Y0037444D01*
X0070953Y0038443D02*
X0076225Y0038443D01*
X0075227Y0039441D02*
X0070953Y0039441D01*
X0070953Y0041438D02*
X0073230Y0041438D01*
X0072500Y0042437D02*
X0070953Y0042437D01*
X0070953Y0043435D02*
X0072500Y0043435D01*
X0072500Y0044434D02*
X0070455Y0044434D01*
X0070953Y0045432D02*
X0072500Y0045432D01*
X0072500Y0046431D02*
X0070953Y0046431D01*
X0070953Y0047429D02*
X0072500Y0047429D01*
X0072500Y0048428D02*
X0070953Y0048428D01*
X0070953Y0049426D02*
X0072500Y0049426D01*
X0071743Y0050425D02*
X0070953Y0050425D01*
X0066500Y0048236D02*
X0060240Y0054496D01*
X0055500Y0054496D01*
X0050673Y0054496D01*
X0050673Y0060896D01*
X0048623Y0060410D02*
X0046900Y0060410D01*
X0046900Y0061408D02*
X0048623Y0061408D01*
X0048623Y0062407D02*
X0046900Y0062407D01*
X0046900Y0063405D02*
X0048623Y0063405D01*
X0048623Y0064404D02*
X0046900Y0064404D01*
X0049204Y0065402D02*
X0066390Y0065402D01*
X0066390Y0066401D02*
X0049300Y0066401D01*
X0051232Y0067399D02*
X0066390Y0067399D01*
X0067073Y0068398D02*
X0052230Y0068398D01*
X0053229Y0069396D02*
X0068072Y0069396D01*
X0068119Y0070395D02*
X0054227Y0070395D01*
X0054679Y0071393D02*
X0068419Y0071393D01*
X0069114Y0072392D02*
X0055495Y0072392D01*
X0057785Y0078383D02*
X0049300Y0078383D01*
X0049300Y0079382D02*
X0056786Y0079382D01*
X0055788Y0080380D02*
X0049300Y0080380D01*
X0049300Y0081379D02*
X0054789Y0081379D01*
X0053791Y0082377D02*
X0049300Y0082377D01*
X0049300Y0083376D02*
X0052792Y0083376D01*
X0052642Y0086355D02*
X0061500Y0077496D01*
X0071500Y0069996D02*
X0068390Y0066886D01*
X0068390Y0060896D01*
X0072327Y0060896D02*
X0080727Y0052496D01*
X0098240Y0052496D01*
X0101500Y0049236D01*
X0097543Y0045432D02*
X0088773Y0045432D01*
X0089187Y0046431D02*
X0097047Y0046431D01*
X0097047Y0047429D02*
X0089200Y0047429D01*
X0089200Y0048428D02*
X0097047Y0048428D01*
X0097047Y0049426D02*
X0088829Y0049426D01*
X0088415Y0050425D02*
X0097047Y0050425D01*
X0097047Y0044434D02*
X0088291Y0044434D01*
X0087293Y0043435D02*
X0097047Y0043435D01*
X0097047Y0042437D02*
X0094341Y0042437D01*
X0095062Y0041438D02*
X0097047Y0041438D01*
X0097047Y0040440D02*
X0095381Y0040440D01*
X0095381Y0039441D02*
X0097047Y0039441D01*
X0097180Y0038443D02*
X0095016Y0038443D01*
X0089659Y0042437D02*
X0085373Y0042437D01*
X0082627Y0042437D02*
X0082388Y0042437D01*
X0074228Y0040440D02*
X0067000Y0040440D01*
X0065558Y0034449D02*
X0087219Y0034449D01*
X0088218Y0033450D02*
X0065881Y0033450D01*
X0060260Y0030455D02*
X0059299Y0030455D01*
X0059299Y0029456D02*
X0060500Y0029456D01*
X0060500Y0028457D02*
X0059299Y0028457D01*
X0059480Y0031453D02*
X0058916Y0031453D01*
X0055740Y0026460D02*
X0054740Y0026460D01*
X0054740Y0025462D02*
X0055740Y0025462D01*
X0055740Y0024463D02*
X0054740Y0024463D01*
X0054740Y0023465D02*
X0055740Y0023465D01*
X0057642Y0022466D02*
X0016700Y0022466D01*
X0016700Y0023465D02*
X0019158Y0023465D01*
X0019280Y0023343D02*
X0019622Y0023146D01*
X0020003Y0023043D01*
X0022260Y0023043D01*
X0022260Y0026996D01*
X0018701Y0026996D01*
X0018701Y0024346D01*
X0018803Y0023964D01*
X0019000Y0023622D01*
X0019280Y0023343D01*
X0018701Y0024463D02*
X0016314Y0024463D01*
X0015888Y0025462D02*
X0018701Y0025462D01*
X0018701Y0026460D02*
X0014890Y0026460D01*
X0014815Y0028457D02*
X0018701Y0028457D01*
X0018701Y0027996D02*
X0022260Y0027996D01*
X0022260Y0031949D01*
X0020003Y0031949D01*
X0019622Y0031847D01*
X0019280Y0031649D01*
X0019000Y0031370D01*
X0018803Y0031028D01*
X0018701Y0030646D01*
X0018701Y0027996D01*
X0018701Y0029456D02*
X0015814Y0029456D01*
X0016283Y0030455D02*
X0018701Y0030455D01*
X0019084Y0031453D02*
X0016696Y0031453D01*
X0013107Y0027459D02*
X0022260Y0027459D01*
X0022260Y0028457D02*
X0023260Y0028457D01*
X0023260Y0029456D02*
X0022260Y0029456D01*
X0022260Y0030455D02*
X0023260Y0030455D01*
X0023260Y0031453D02*
X0022260Y0031453D01*
X0022260Y0033450D02*
X0023260Y0033450D01*
X0023260Y0034449D02*
X0022260Y0034449D01*
X0022260Y0035447D02*
X0023260Y0035447D01*
X0023260Y0036446D02*
X0022260Y0036446D01*
X0022260Y0037444D02*
X0013143Y0037444D01*
X0009857Y0037444D02*
X0003500Y0037444D01*
X0003500Y0036446D02*
X0008095Y0036446D01*
X0007097Y0035447D02*
X0003500Y0035447D01*
X0003500Y0034449D02*
X0006680Y0034449D01*
X0006300Y0033450D02*
X0003500Y0033450D01*
X0003500Y0032452D02*
X0006300Y0032452D01*
X0006304Y0031453D02*
X0003500Y0031453D01*
X0003500Y0030455D02*
X0006717Y0030455D01*
X0007186Y0029456D02*
X0003500Y0029456D01*
X0003500Y0028457D02*
X0008185Y0028457D01*
X0009893Y0027459D02*
X0003500Y0027459D01*
X0003500Y0026460D02*
X0008110Y0026460D01*
X0007112Y0025462D02*
X0003500Y0025462D01*
X0003500Y0024463D02*
X0006686Y0024463D01*
X0006300Y0023465D02*
X0003500Y0023465D01*
X0003500Y0022466D02*
X0006300Y0022466D01*
X0006300Y0021468D02*
X0003500Y0021468D01*
X0003500Y0020469D02*
X0006711Y0020469D01*
X0007171Y0019471D02*
X0003500Y0019471D01*
X0003500Y0018472D02*
X0008170Y0018472D01*
X0008130Y0016475D02*
X0003500Y0016475D01*
X0003500Y0015477D02*
X0007238Y0015477D01*
X0006676Y0014478D02*
X0003500Y0014478D01*
X0003500Y0013480D02*
X0006391Y0013480D01*
X0003500Y0017474D02*
X0009992Y0017474D01*
X0011000Y0010484D02*
X0012000Y0010484D01*
X0012000Y0009486D02*
X0011000Y0009486D01*
X0011000Y0008487D02*
X0012000Y0008487D01*
X0003500Y0006490D02*
X0129201Y0006490D01*
X0129201Y0005492D02*
X0003500Y0005492D01*
X0003500Y0004496D02*
X0003500Y0130457D01*
X0129201Y0130457D01*
X0129201Y0004496D01*
X0003500Y0004496D01*
X0022260Y0023465D02*
X0023260Y0023465D01*
X0023260Y0024463D02*
X0022260Y0024463D01*
X0022260Y0025462D02*
X0023260Y0025462D01*
X0023260Y0026460D02*
X0022260Y0026460D01*
X0026362Y0023465D02*
X0026638Y0023465D01*
X0026564Y0031453D02*
X0026436Y0031453D01*
X0026347Y0033450D02*
X0026653Y0033450D01*
X0030240Y0037496D02*
X0030240Y0056256D01*
X0028500Y0057996D01*
X0031602Y0060410D02*
X0036500Y0060410D01*
X0036500Y0061408D02*
X0030453Y0061408D01*
X0032135Y0059411D02*
X0036500Y0059411D01*
X0036500Y0058413D02*
X0032400Y0058413D01*
X0032400Y0057414D02*
X0036500Y0057414D01*
X0036500Y0056416D02*
X0032240Y0056416D01*
X0032240Y0055417D02*
X0036500Y0055417D01*
X0036500Y0054419D02*
X0032240Y0054419D01*
X0032240Y0053420D02*
X0036500Y0053420D01*
X0036500Y0052422D02*
X0032240Y0052422D01*
X0032240Y0051423D02*
X0036500Y0051423D01*
X0036500Y0050425D02*
X0032240Y0050425D01*
X0032240Y0049426D02*
X0036500Y0049426D01*
X0036500Y0048428D02*
X0032240Y0048428D01*
X0032240Y0047429D02*
X0036500Y0047429D01*
X0036500Y0046431D02*
X0032240Y0046431D01*
X0032240Y0045432D02*
X0036500Y0045432D01*
X0036500Y0044434D02*
X0032240Y0044434D01*
X0032240Y0043435D02*
X0036500Y0043435D01*
X0036500Y0042437D02*
X0032240Y0042437D01*
X0033931Y0041438D02*
X0036500Y0041438D01*
X0036500Y0040440D02*
X0034299Y0040440D01*
X0034299Y0039441D02*
X0036500Y0039441D01*
X0036500Y0038443D02*
X0034299Y0038443D01*
X0034299Y0037444D02*
X0036500Y0037444D01*
X0036500Y0036446D02*
X0034299Y0036446D01*
X0034299Y0035447D02*
X0036500Y0035447D01*
X0036500Y0034449D02*
X0034299Y0034449D01*
X0033827Y0033450D02*
X0036500Y0033450D01*
X0040500Y0031453D02*
X0044084Y0031453D01*
X0043701Y0030455D02*
X0040500Y0030455D01*
X0051436Y0031453D02*
X0051564Y0031453D01*
X0051653Y0033450D02*
X0051347Y0033450D01*
X0051362Y0023465D02*
X0051638Y0023465D01*
X0049883Y0017474D02*
X0055621Y0017474D01*
X0053577Y0016475D02*
X0051927Y0016475D01*
X0037938Y0008487D02*
X0036227Y0008487D01*
X0030103Y0008487D02*
X0028393Y0008487D01*
X0023260Y0038443D02*
X0022260Y0038443D01*
X0022260Y0039441D02*
X0023260Y0039441D01*
X0023260Y0040440D02*
X0022260Y0040440D01*
X0022260Y0041438D02*
X0023260Y0041438D01*
X0026451Y0041438D02*
X0026549Y0041438D01*
X0009821Y0047429D02*
X0003500Y0047429D01*
X0003500Y0046431D02*
X0008081Y0046431D01*
X0007088Y0045432D02*
X0003500Y0045432D01*
X0003500Y0044434D02*
X0006674Y0044434D01*
X0006300Y0043435D02*
X0003500Y0043435D01*
X0003500Y0042437D02*
X0006300Y0042437D01*
X0006310Y0041438D02*
X0003500Y0041438D01*
X0003500Y0040440D02*
X0006723Y0040440D01*
X0007201Y0039441D02*
X0003500Y0039441D01*
X0003500Y0038443D02*
X0008200Y0038443D01*
X0008215Y0048428D02*
X0003500Y0048428D01*
X0003500Y0049426D02*
X0007216Y0049426D01*
X0006730Y0050425D02*
X0003500Y0050425D01*
X0003500Y0051423D02*
X0006316Y0051423D01*
X0006300Y0052422D02*
X0003500Y0052422D01*
X0003500Y0053420D02*
X0006300Y0053420D01*
X0006668Y0054419D02*
X0003500Y0054419D01*
X0003500Y0055417D02*
X0007082Y0055417D01*
X0008066Y0056416D02*
X0003500Y0056416D01*
X0003500Y0057414D02*
X0009785Y0057414D01*
X0008229Y0058413D02*
X0003500Y0058413D01*
X0003500Y0059411D02*
X0007231Y0059411D01*
X0006736Y0060410D02*
X0003500Y0060410D01*
X0003500Y0061408D02*
X0006322Y0061408D01*
X0006300Y0062407D02*
X0003500Y0062407D01*
X0003500Y0063405D02*
X0006300Y0063405D01*
X0006662Y0064404D02*
X0003500Y0064404D01*
X0003500Y0065402D02*
X0007075Y0065402D01*
X0008051Y0066401D02*
X0003500Y0066401D01*
X0003500Y0067399D02*
X0009749Y0067399D01*
X0008244Y0068398D02*
X0003500Y0068398D01*
X0003500Y0069396D02*
X0007246Y0069396D01*
X0006742Y0070395D02*
X0003500Y0070395D01*
X0003500Y0071393D02*
X0006328Y0071393D01*
X0006300Y0072392D02*
X0003500Y0072392D01*
X0003500Y0073391D02*
X0006300Y0073391D01*
X0006656Y0074389D02*
X0003500Y0074389D01*
X0003500Y0075388D02*
X0007069Y0075388D01*
X0008036Y0076386D02*
X0003500Y0076386D01*
X0003500Y0077385D02*
X0009713Y0077385D01*
X0008259Y0078383D02*
X0003500Y0078383D01*
X0003500Y0079382D02*
X0007261Y0079382D01*
X0006748Y0080380D02*
X0003500Y0080380D01*
X0003500Y0081379D02*
X0006334Y0081379D01*
X0006300Y0082377D02*
X0003500Y0082377D01*
X0003500Y0083376D02*
X0006300Y0083376D01*
X0006649Y0084374D02*
X0003500Y0084374D01*
X0003500Y0085373D02*
X0007063Y0085373D01*
X0008021Y0086371D02*
X0003500Y0086371D01*
X0003500Y0087370D02*
X0009677Y0087370D01*
X0008274Y0088368D02*
X0003500Y0088368D01*
X0003500Y0089367D02*
X0007276Y0089367D01*
X0006754Y0090365D02*
X0003500Y0090365D01*
X0003500Y0091364D02*
X0006341Y0091364D01*
X0006300Y0092362D02*
X0003500Y0092362D01*
X0003500Y0093361D02*
X0006300Y0093361D01*
X0006643Y0094359D02*
X0003500Y0094359D01*
X0003500Y0095358D02*
X0007057Y0095358D01*
X0008006Y0096356D02*
X0003500Y0096356D01*
X0003500Y0097355D02*
X0009641Y0097355D01*
X0008289Y0098353D02*
X0003500Y0098353D01*
X0003500Y0099352D02*
X0007290Y0099352D01*
X0006760Y0100350D02*
X0003500Y0100350D01*
X0003500Y0101349D02*
X0006347Y0101349D01*
X0006300Y0102347D02*
X0003500Y0102347D01*
X0003500Y0103346D02*
X0006300Y0103346D01*
X0006637Y0104344D02*
X0003500Y0104344D01*
X0003500Y0105343D02*
X0007051Y0105343D01*
X0007991Y0106341D02*
X0003500Y0106341D01*
X0003500Y0107340D02*
X0009605Y0107340D01*
X0008304Y0108338D02*
X0003500Y0108338D01*
X0003500Y0109337D02*
X0007305Y0109337D01*
X0006767Y0110335D02*
X0003500Y0110335D01*
X0003500Y0111334D02*
X0006353Y0111334D01*
X0006300Y0112332D02*
X0003500Y0112332D01*
X0003500Y0113331D02*
X0006300Y0113331D01*
X0006631Y0114329D02*
X0003500Y0114329D01*
X0003500Y0115328D02*
X0007045Y0115328D01*
X0007976Y0116326D02*
X0003500Y0116326D01*
X0003500Y0117325D02*
X0009570Y0117325D01*
X0008396Y0118324D02*
X0003500Y0118324D01*
X0003500Y0119322D02*
X0007379Y0119322D01*
X0006772Y0120321D02*
X0003500Y0120321D01*
X0003500Y0121319D02*
X0006422Y0121319D01*
X0003500Y0128309D02*
X0129201Y0128309D01*
X0129201Y0129307D02*
X0003500Y0129307D01*
X0003500Y0130306D02*
X0129201Y0130306D01*
X0129201Y0121319D02*
X0126578Y0121319D01*
X0126228Y0120321D02*
X0129201Y0120321D01*
X0129201Y0119322D02*
X0125621Y0119322D01*
X0124604Y0118324D02*
X0129201Y0118324D01*
X0129201Y0117325D02*
X0123430Y0117325D01*
X0125024Y0116326D02*
X0129201Y0116326D01*
X0129201Y0115328D02*
X0125955Y0115328D01*
X0126369Y0114329D02*
X0129201Y0114329D01*
X0129201Y0113331D02*
X0126700Y0113331D01*
X0126700Y0112332D02*
X0129201Y0112332D01*
X0129201Y0111334D02*
X0126647Y0111334D01*
X0119605Y0107340D02*
X0073310Y0107340D01*
X0073381Y0106341D02*
X0117991Y0106341D01*
X0118304Y0108338D02*
X0072897Y0108338D01*
X0071941Y0109337D02*
X0117305Y0109337D01*
X0116767Y0110335D02*
X0066453Y0110335D01*
X0066453Y0109337D02*
X0068059Y0109337D01*
X0067103Y0108338D02*
X0066453Y0108338D01*
X0066453Y0107340D02*
X0066690Y0107340D01*
X0066619Y0106341D02*
X0066453Y0106341D01*
X0068390Y0104886D02*
X0070000Y0106496D01*
X0068390Y0104886D02*
X0068390Y0094096D01*
X0070358Y0094096D02*
X0070358Y0098855D01*
X0074000Y0102496D01*
X0081500Y0102496D01*
X0084881Y0102347D02*
X0103119Y0102347D01*
X0103192Y0103346D02*
X0084808Y0103346D01*
X0084394Y0104344D02*
X0103606Y0104344D01*
X0104565Y0105343D02*
X0083435Y0105343D01*
X0079565Y0105343D02*
X0073182Y0105343D01*
X0073020Y0104344D02*
X0072630Y0104344D01*
X0072021Y0103346D02*
X0071230Y0103346D01*
X0071023Y0102347D02*
X0070390Y0102347D01*
X0066421Y0097575D02*
X0066421Y0094096D01*
X0064453Y0094096D02*
X0064453Y0116043D01*
X0064000Y0116496D01*
X0067176Y0115328D02*
X0088800Y0115328D01*
X0088800Y0116326D02*
X0067381Y0116326D01*
X0067316Y0117325D02*
X0088922Y0117325D01*
X0089336Y0118324D02*
X0080701Y0118324D01*
X0081299Y0119322D02*
X0085328Y0119322D01*
X0083894Y0120321D02*
X0081299Y0120321D01*
X0077240Y0122496D02*
X0086500Y0122496D01*
X0089672Y0121319D02*
X0096494Y0121319D01*
X0097493Y0122318D02*
X0089881Y0122318D01*
X0089820Y0123316D02*
X0098491Y0123316D01*
X0099490Y0124315D02*
X0089406Y0124315D01*
X0088465Y0125313D02*
X0117119Y0125313D01*
X0117962Y0126312D02*
X0081058Y0126312D01*
X0081299Y0125313D02*
X0084535Y0125313D01*
X0087672Y0119322D02*
X0089972Y0119322D01*
X0089106Y0120321D02*
X0090970Y0120321D01*
X0094000Y0115996D02*
X0100500Y0122496D01*
X0109000Y0122496D01*
X0108347Y0120321D02*
X0106895Y0120321D01*
X0108011Y0119322D02*
X0109346Y0119322D01*
X0108650Y0118324D02*
X0110344Y0118324D01*
X0111343Y0117325D02*
X0109036Y0117325D01*
X0109159Y0115328D02*
X0113340Y0115328D01*
X0114338Y0114329D02*
X0108926Y0114329D01*
X0108478Y0113331D02*
X0115337Y0113331D01*
X0116300Y0112332D02*
X0107690Y0112332D01*
X0106304Y0111334D02*
X0116353Y0111334D01*
X0112341Y0116326D02*
X0104500Y0116326D01*
X0104500Y0115328D02*
X0103500Y0115328D01*
X0103500Y0114329D02*
X0104500Y0114329D01*
X0104500Y0113331D02*
X0103500Y0113331D01*
X0103500Y0112332D02*
X0104500Y0112332D01*
X0104500Y0111334D02*
X0103500Y0111334D01*
X0101696Y0111334D02*
X0096333Y0111334D01*
X0097690Y0112332D02*
X0100310Y0112332D01*
X0099522Y0113331D02*
X0098524Y0113331D01*
X0098938Y0114329D02*
X0099074Y0114329D01*
X0091667Y0111334D02*
X0066453Y0111334D01*
X0066453Y0112332D02*
X0090310Y0112332D01*
X0089476Y0113331D02*
X0066453Y0113331D01*
X0066615Y0114329D02*
X0089062Y0114329D01*
X0084684Y0101349D02*
X0103316Y0101349D01*
X0103864Y0100350D02*
X0084136Y0100350D01*
X0087473Y0099352D02*
X0105256Y0099352D01*
X0107814Y0098353D02*
X0088471Y0098353D01*
X0089470Y0097355D02*
X0089641Y0097355D01*
X0086500Y0097496D02*
X0091500Y0092496D01*
X0102760Y0092496D01*
X0098701Y0095358D02*
X0095943Y0095358D01*
X0094994Y0096356D02*
X0098987Y0096356D01*
X0093359Y0097355D02*
X0108240Y0097355D01*
X0112240Y0087370D02*
X0119677Y0087370D01*
X0110740Y0071393D02*
X0109740Y0071393D01*
X0109740Y0070395D02*
X0110740Y0070395D01*
X0110740Y0069396D02*
X0109740Y0069396D01*
X0109740Y0068398D02*
X0110740Y0068398D01*
X0110740Y0061408D02*
X0109740Y0061408D01*
X0109740Y0060410D02*
X0110740Y0060410D01*
X0110740Y0059411D02*
X0109740Y0059411D01*
X0109740Y0058413D02*
X0110740Y0058413D01*
X0106690Y0058413D02*
X0106310Y0058413D01*
X0105240Y0055496D02*
X0084000Y0055496D01*
X0078500Y0060996D01*
X0078500Y0066269D01*
X0078100Y0066669D01*
X0080500Y0064619D02*
X0081621Y0064619D01*
X0082500Y0065498D01*
X0082500Y0088668D01*
X0086692Y0084476D01*
X0086300Y0083531D01*
X0086300Y0081462D01*
X0087092Y0079551D01*
X0088554Y0078088D01*
X0089983Y0077496D01*
X0088554Y0076905D01*
X0087092Y0075442D01*
X0086300Y0073531D01*
X0086300Y0071462D01*
X0087092Y0069551D01*
X0088554Y0068088D01*
X0089500Y0067696D01*
X0087603Y0067696D01*
X0087221Y0067594D01*
X0086879Y0067396D01*
X0086600Y0067117D01*
X0086402Y0066775D01*
X0086300Y0066394D01*
X0086300Y0062996D01*
X0091000Y0062996D01*
X0091000Y0061996D01*
X0086300Y0061996D01*
X0086300Y0058599D01*
X0086402Y0058217D01*
X0086600Y0057875D01*
X0086879Y0057596D01*
X0087052Y0057496D01*
X0084828Y0057496D01*
X0080500Y0061825D01*
X0080500Y0064619D01*
X0080500Y0064404D02*
X0086300Y0064404D01*
X0086300Y0065402D02*
X0082404Y0065402D01*
X0082500Y0066401D02*
X0086302Y0066401D01*
X0086884Y0067399D02*
X0082500Y0067399D01*
X0082500Y0068398D02*
X0088244Y0068398D01*
X0087246Y0069396D02*
X0082500Y0069396D01*
X0082500Y0070395D02*
X0086742Y0070395D01*
X0086328Y0071393D02*
X0082500Y0071393D01*
X0082500Y0072392D02*
X0086300Y0072392D01*
X0086300Y0073391D02*
X0082500Y0073391D01*
X0082500Y0074389D02*
X0086656Y0074389D01*
X0087069Y0075388D02*
X0082500Y0075388D01*
X0082500Y0076386D02*
X0088036Y0076386D01*
X0089713Y0077385D02*
X0082500Y0077385D01*
X0082500Y0078383D02*
X0088259Y0078383D01*
X0087261Y0079382D02*
X0082500Y0079382D01*
X0082500Y0080380D02*
X0086748Y0080380D01*
X0086334Y0081379D02*
X0082500Y0081379D01*
X0082500Y0082377D02*
X0086300Y0082377D01*
X0086300Y0083376D02*
X0082500Y0083376D01*
X0082500Y0084374D02*
X0086649Y0084374D01*
X0085795Y0085373D02*
X0082500Y0085373D01*
X0082500Y0086371D02*
X0084797Y0086371D01*
X0083798Y0087370D02*
X0082500Y0087370D01*
X0082500Y0088368D02*
X0082800Y0088368D01*
X0086500Y0097496D02*
X0075727Y0097496D01*
X0072327Y0094096D01*
X0066421Y0090493D02*
X0066421Y0090493D01*
X0066421Y0090365D02*
X0066421Y0090365D01*
X0060516Y0094096D02*
X0060516Y0110980D01*
X0056500Y0114996D01*
X0053391Y0116326D02*
X0046300Y0116326D01*
X0046300Y0115328D02*
X0053119Y0115328D01*
X0053119Y0114329D02*
X0052495Y0114329D01*
X0053494Y0113331D02*
X0053530Y0113331D01*
X0051500Y0112496D02*
X0044500Y0112496D01*
X0041500Y0115496D01*
X0039500Y0117496D01*
X0032240Y0117496D01*
X0036299Y0115328D02*
X0036700Y0115328D01*
X0036788Y0114329D02*
X0036299Y0114329D01*
X0035708Y0113331D02*
X0037201Y0113331D01*
X0037876Y0112332D02*
X0016700Y0112332D01*
X0016700Y0113331D02*
X0021301Y0113331D01*
X0020705Y0114329D02*
X0016369Y0114329D01*
X0015955Y0115328D02*
X0020701Y0115328D01*
X0020701Y0116326D02*
X0015024Y0116326D01*
X0016647Y0111334D02*
X0021600Y0111334D01*
X0020751Y0110335D02*
X0016233Y0110335D01*
X0015695Y0109337D02*
X0020701Y0109337D01*
X0020701Y0108338D02*
X0014696Y0108338D01*
X0016653Y0101349D02*
X0020979Y0101349D01*
X0020701Y0100350D02*
X0016240Y0100350D01*
X0015710Y0099352D02*
X0020701Y0099352D01*
X0020701Y0098353D02*
X0014711Y0098353D01*
X0013359Y0097355D02*
X0020701Y0097355D01*
X0020701Y0096356D02*
X0014994Y0096356D01*
X0015943Y0095358D02*
X0020701Y0095358D01*
X0020701Y0094359D02*
X0016357Y0094359D01*
X0016700Y0093361D02*
X0021262Y0093361D01*
X0024760Y0097496D02*
X0035870Y0084386D01*
X0035963Y0087370D02*
X0040500Y0087370D01*
X0040500Y0088368D02*
X0040284Y0088368D01*
X0037716Y0088368D02*
X0035117Y0088368D01*
X0034271Y0089367D02*
X0036348Y0089367D01*
X0035809Y0090365D02*
X0033425Y0090365D01*
X0032578Y0091364D02*
X0035619Y0091364D01*
X0032740Y0093361D02*
X0031740Y0093361D01*
X0031740Y0094359D02*
X0032740Y0094359D01*
X0032740Y0095358D02*
X0031740Y0095358D01*
X0031740Y0096356D02*
X0032740Y0096356D01*
X0036299Y0099352D02*
X0052316Y0099352D01*
X0051317Y0100350D02*
X0036299Y0100350D01*
X0036223Y0103346D02*
X0037195Y0103346D01*
X0033740Y0105496D02*
X0041500Y0105496D01*
X0049000Y0105496D01*
X0056579Y0097917D01*
X0056579Y0094096D01*
X0058547Y0094096D02*
X0058547Y0105449D01*
X0051500Y0112496D01*
X0050832Y0110335D02*
X0036299Y0110335D01*
X0036299Y0109337D02*
X0038552Y0109337D01*
X0037554Y0108338D02*
X0036299Y0108338D01*
X0035536Y0111334D02*
X0039006Y0111334D01*
X0044447Y0109337D02*
X0051831Y0109337D01*
X0052829Y0108338D02*
X0045446Y0108338D01*
X0049985Y0107340D02*
X0053828Y0107340D01*
X0054826Y0106341D02*
X0050983Y0106341D01*
X0051982Y0105343D02*
X0055825Y0105343D01*
X0056547Y0104344D02*
X0052980Y0104344D01*
X0053979Y0103346D02*
X0056547Y0103346D01*
X0056547Y0102347D02*
X0054977Y0102347D01*
X0055976Y0101349D02*
X0056547Y0101349D01*
X0050319Y0101349D02*
X0044030Y0101349D01*
X0045139Y0102347D02*
X0049320Y0102347D01*
X0048322Y0103346D02*
X0045805Y0103346D01*
X0048623Y0094359D02*
X0040919Y0094359D01*
X0042691Y0093361D02*
X0048623Y0093361D01*
X0048623Y0092362D02*
X0043689Y0092362D01*
X0044688Y0091364D02*
X0048623Y0091364D01*
X0048429Y0090365D02*
X0048833Y0090365D01*
X0044900Y0088323D02*
X0041727Y0091496D01*
X0039000Y0091496D01*
X0044900Y0086355D02*
X0052642Y0086355D01*
X0035330Y0077385D02*
X0032400Y0077385D01*
X0032715Y0078383D02*
X0034508Y0078383D01*
X0034119Y0079382D02*
X0033714Y0079382D01*
X0046900Y0059411D02*
X0048623Y0059411D01*
X0048623Y0058413D02*
X0046900Y0058413D01*
X0046900Y0057414D02*
X0048623Y0057414D01*
X0048673Y0056416D02*
X0046900Y0056416D01*
X0046900Y0055417D02*
X0048673Y0055417D01*
X0048673Y0054419D02*
X0046900Y0054419D01*
X0046900Y0053420D02*
X0048921Y0053420D01*
X0046900Y0052422D02*
X0052793Y0052422D01*
X0051534Y0051423D02*
X0051466Y0051423D01*
X0058207Y0052422D02*
X0059486Y0052422D01*
X0058946Y0051423D02*
X0060485Y0051423D01*
X0061483Y0050425D02*
X0059299Y0050425D01*
X0059299Y0049426D02*
X0062047Y0049426D01*
X0062047Y0048428D02*
X0059299Y0048428D01*
X0080916Y0061408D02*
X0086300Y0061408D01*
X0086300Y0060410D02*
X0081915Y0060410D01*
X0082913Y0059411D02*
X0086300Y0059411D01*
X0086350Y0058413D02*
X0083912Y0058413D01*
X0080500Y0062407D02*
X0091000Y0062407D01*
X0092000Y0062407D02*
X0098701Y0062407D01*
X0098701Y0063405D02*
X0096700Y0063405D01*
X0096700Y0064404D02*
X0098701Y0064404D01*
X0098701Y0065402D02*
X0096700Y0065402D01*
X0096698Y0066401D02*
X0099031Y0066401D01*
X0100760Y0067399D02*
X0096116Y0067399D01*
X0094756Y0068398D02*
X0099225Y0068398D01*
X0098701Y0069396D02*
X0095754Y0069396D01*
X0096258Y0070395D02*
X0098701Y0070395D01*
X0102760Y0072496D02*
X0102760Y0062496D01*
X0098701Y0061408D02*
X0096700Y0061408D01*
X0096700Y0060410D02*
X0098701Y0060410D01*
X0098701Y0059411D02*
X0096700Y0059411D01*
X0096650Y0058413D02*
X0099210Y0058413D01*
X0105240Y0055496D02*
X0111500Y0049236D01*
X0115457Y0045432D02*
X0117088Y0045432D01*
X0116674Y0044434D02*
X0115953Y0044434D01*
X0115953Y0043435D02*
X0116300Y0043435D01*
X0116300Y0042437D02*
X0115953Y0042437D01*
X0115953Y0041438D02*
X0116310Y0041438D01*
X0115953Y0040440D02*
X0116723Y0040440D01*
X0117201Y0039441D02*
X0115953Y0039441D01*
X0115820Y0038443D02*
X0118200Y0038443D01*
X0118095Y0036446D02*
X0115362Y0036446D01*
X0115362Y0035447D02*
X0117097Y0035447D01*
X0116680Y0034449D02*
X0115362Y0034449D01*
X0115362Y0033450D02*
X0116300Y0033450D01*
X0116300Y0032452D02*
X0115362Y0032452D01*
X0115362Y0031453D02*
X0116304Y0031453D01*
X0116717Y0030455D02*
X0115170Y0030455D01*
X0115362Y0027459D02*
X0119893Y0027459D01*
X0119857Y0037444D02*
X0114532Y0037444D01*
X0111500Y0033630D02*
X0111500Y0041756D01*
X0115953Y0046431D02*
X0118081Y0046431D01*
X0119821Y0047429D02*
X0115953Y0047429D01*
X0115953Y0048428D02*
X0118215Y0048428D01*
X0117216Y0049426D02*
X0115953Y0049426D01*
X0115953Y0050425D02*
X0116730Y0050425D01*
X0116316Y0051423D02*
X0115953Y0051423D01*
X0115948Y0052422D02*
X0116300Y0052422D01*
X0101500Y0041756D02*
X0101500Y0033630D01*
X0101000Y0028457D02*
X0102000Y0028457D01*
X0102000Y0027459D02*
X0101000Y0027459D01*
X0101000Y0024463D02*
X0102000Y0024463D01*
X0102000Y0023465D02*
X0101000Y0023465D01*
X0101000Y0022466D02*
X0102000Y0022466D01*
X0097728Y0022466D02*
X0085348Y0022466D01*
X0087298Y0023465D02*
X0097638Y0023465D01*
X0097638Y0024463D02*
X0088224Y0024463D01*
X0089113Y0028457D02*
X0097829Y0028457D01*
X0090504Y0029456D02*
X0088831Y0029456D01*
X0089000Y0017474D02*
X0088000Y0017474D01*
X0088000Y0016475D02*
X0089000Y0016475D01*
X0089000Y0015477D02*
X0088000Y0015477D01*
X0088000Y0014478D02*
X0089000Y0014478D01*
X0089000Y0013480D02*
X0088000Y0013480D01*
X0088000Y0011483D02*
X0089000Y0011483D01*
X0089000Y0010484D02*
X0088000Y0010484D01*
X0088000Y0009486D02*
X0089000Y0009486D01*
X0089000Y0008487D02*
X0088000Y0008487D01*
X0088000Y0007489D02*
X0089000Y0007489D01*
X0089916Y0007489D02*
X0097001Y0007489D01*
X0095155Y0008487D02*
X0091829Y0008487D01*
X0092740Y0009486D02*
X0094156Y0009486D01*
X0093705Y0010484D02*
X0093311Y0010484D01*
X0093324Y0014478D02*
X0093693Y0014478D01*
X0094127Y0015477D02*
X0092762Y0015477D01*
X0091870Y0016475D02*
X0095125Y0016475D01*
X0096929Y0017474D02*
X0090008Y0017474D01*
X0086992Y0017474D02*
X0080071Y0017474D01*
X0081875Y0016475D02*
X0085130Y0016475D01*
X0084238Y0015477D02*
X0082873Y0015477D01*
X0083307Y0014478D02*
X0083676Y0014478D01*
X0073689Y0014478D02*
X0071953Y0014478D01*
X0071953Y0013480D02*
X0073300Y0013480D01*
X0072691Y0015477D02*
X0071953Y0015477D01*
X0071692Y0016475D02*
X0071414Y0016475D01*
X0100071Y0017474D02*
X0103956Y0017474D01*
X0103300Y0016475D02*
X0101875Y0016475D01*
X0102873Y0015477D02*
X0103300Y0015477D01*
X0103295Y0010484D02*
X0103300Y0010484D01*
X0103300Y0009486D02*
X0102843Y0009486D01*
X0103300Y0008487D02*
X0101845Y0008487D01*
X0099999Y0007489D02*
X0103986Y0007489D01*
X0113044Y0017474D02*
X0119992Y0017474D01*
X0086300Y0063405D02*
X0080500Y0063405D01*
X0091500Y0072496D02*
X0102760Y0072496D01*
X0098701Y0075388D02*
X0095931Y0075388D01*
X0094964Y0076386D02*
X0099017Y0076386D01*
X0062453Y0112332D02*
X0061992Y0112332D01*
X0062453Y0113331D02*
X0060994Y0113331D01*
X0061385Y0114329D02*
X0059995Y0114329D01*
X0059881Y0115328D02*
X0060824Y0115328D01*
X0060619Y0116326D02*
X0059609Y0116326D01*
X0058953Y0117325D02*
X0060684Y0117325D01*
X0061097Y0118324D02*
X0057302Y0118324D01*
X0054047Y0117325D02*
X0045938Y0117325D01*
X0049866Y0119322D02*
X0050866Y0119322D01*
X0050866Y0120321D02*
X0049866Y0120321D01*
X0049866Y0121319D02*
X0050866Y0121319D01*
X0050866Y0124315D02*
X0049866Y0124315D01*
X0049866Y0125313D02*
X0050866Y0125313D01*
X0050866Y0126312D02*
X0049866Y0126312D01*
X0047632Y0126312D02*
X0015038Y0126312D01*
X0015881Y0125313D02*
X0046573Y0125313D01*
X0046504Y0124315D02*
X0016377Y0124315D01*
X0024260Y0121319D02*
X0025260Y0121319D01*
X0025260Y0120321D02*
X0024260Y0120321D01*
X0024260Y0119322D02*
X0025260Y0119322D01*
X0025260Y0118324D02*
X0024260Y0118324D01*
X0028219Y0113331D02*
X0028772Y0113331D01*
X0028945Y0111334D02*
X0027920Y0111334D01*
X0025260Y0106341D02*
X0024260Y0106341D01*
X0024260Y0105343D02*
X0025260Y0105343D01*
X0025260Y0104344D02*
X0024260Y0104344D01*
X0024260Y0103346D02*
X0025260Y0103346D01*
X0053100Y0126312D02*
X0055604Y0126312D01*
X0054772Y0125313D02*
X0054159Y0125313D01*
X0054228Y0124315D02*
X0054772Y0124315D01*
X0054772Y0123316D02*
X0054228Y0123316D01*
X0058634Y0122496D02*
X0069760Y0122496D01*
X0065701Y0125313D02*
X0062496Y0125313D01*
X0061664Y0126312D02*
X0065942Y0126312D01*
X0073220Y0118324D02*
X0073780Y0118324D01*
X0113006Y0121319D02*
X0116422Y0121319D01*
X0116772Y0120321D02*
X0114004Y0120321D01*
X0115003Y0119322D02*
X0117379Y0119322D01*
X0118396Y0118324D02*
X0116001Y0118324D01*
X0117000Y0117325D02*
X0119570Y0117325D01*
D22*
X0106500Y0102496D03*
X0086500Y0122496D03*
X0070000Y0106496D03*
X0064000Y0116496D03*
X0056500Y0114996D03*
X0039000Y0091496D03*
X0037500Y0079996D03*
X0052500Y0073996D03*
X0061500Y0077496D03*
X0069000Y0084996D03*
X0081500Y0092496D03*
X0081500Y0102496D03*
X0071500Y0069996D03*
X0055500Y0054496D03*
X0062500Y0032996D03*
X0067500Y0027496D03*
X0092000Y0032496D03*
X0092000Y0039996D03*
X0038500Y0027496D03*
D23*
X0067500Y0020236D02*
X0070760Y0020236D01*
X0036500Y0072496D02*
X0036500Y0072575D01*
X0035890Y0084386D02*
X0035870Y0084386D01*
X0044900Y0086355D02*
X0047642Y0086355D01*
X0066421Y0087575D02*
X0066500Y0087496D01*
X0066421Y0087575D02*
X0066421Y0094096D01*
X0069000Y0084996D02*
X0073547Y0080449D01*
X0078100Y0080449D01*
X0033740Y0105496D02*
X0032240Y0106996D01*
M02*
